<?xml version="1.0" encoding="UTF-8" standalone="no"?>
<!DOCTYPE svg PUBLIC "-//W3C//DTD SVG 1.1//EN" "http://www.w3.org/Graphics/SVG/1.1/DTD/svg11.dtd">
<svg xmlns:dc="http://purl.org/dc/elements/1.1/" xmlns="http://www.w3.org/2000/svg" version="1.1" xmlns:xl="http://www.w3.org/1999/xlink" viewBox="1060 676 256 256" width="256" height="256">
  <defs/>
  <g id="Canvas_1" stroke="none" stroke-dasharray="none" fill="none" stroke-opacity="1" fill-opacity="1">
    <title>Canvas 1</title>
    <g id="Canvas_1_Layer_3">
      <title>Layer 3</title>
      <g id="Graphic_38">
        <path d="M 1188 891.425 C 1094.965 891.425 1073 908.915 1073 917 C 1073 925.085 1084.4424 932 1098.5556 932 L 1277.4444 932 C 1291.5576 932 1303 925.0587 1303 917 C 1303 908.9412 1281.035 891.425 1188 891.425 Z" fill="#5c913b"/>
      </g>
    </g>
    <g id="Canvas_1_Layer_5">
      <title>Layer 5</title>
      <g id="Graphic_37">
        <path d="M 1250.8 887.9605 C 1250.8 895.9391 1245.0665 898.8 1237.9988 898.8 C 1230.9313 898.8 1225.1977 895.9442 1225.1977 887.9605 L 1228.3968 855.4473 C 1228.3968 847.4687 1230.9266 848.2192 1237.9988 848.2192 C 1245.0665 848.2192 1247.6008 847.4636 1247.6008 855.4473 Z" fill="#643"/>
      </g>
      <g id="Graphic_36">
        <path d="M 1291.0616 840.8798 C 1263.5006 816.0507 1252.3381 780.4976 1237.999 780.4976 C 1223.66 780.4976 1212.4976 816.0507 1184.9426 840.8798 C 1173.3597 851.3157 1178.878 857.3503 1194.7541 856.1434 C 1208.9069 855.0685 1222.141 851.694 1237.999 851.694 C 1253.8572 851.694 1267.0974 855.0746 1281.2442 856.1434 C 1297.1204 857.3503 1302.6385 851.3098 1291.0616 840.8798 Z" fill="#5c913b"/>
      </g>
      <g id="Graphic_35">
        <path d="M 1282.1089 831.0382 C 1260.9306 810.6166 1249.0295 781.3623 1237.999 781.3623 C 1226.9746 781.3623 1215.0737 810.6166 1193.8954 831.0382 C 1177.0646 847.2686 1215.9502 850.9074 1237.999 831.0382 C 1260.042 850.9074 1298.9336 847.2686 1282.1089 831.0382 Z" fill="#3e721d"/>
      </g>
      <g id="Graphic_34">
        <path d="M 1282.1089 814.4956 C 1260.9306 795.413 1249.0295 768.0861 1237.999 768.0861 C 1226.9746 768.0861 1215.0737 795.413 1193.8954 814.4956 C 1177.0646 829.6571 1215.9502 833.0557 1237.999 814.4956 C 1260.042 833.0557 1298.9336 829.6512 1282.1089 814.4956 Z" fill="#5c913b"/>
      </g>
      <g id="Graphic_33">
        <path d="M 1272.4354 800.9433 C 1255.9049 786.0459 1246.6098 764.7117 1237.999 764.7117 C 1229.3945 764.7117 1220.0994 786.0459 1203.5628 800.9433 C 1190.4248 812.7783 1220.778 815.4384 1237.999 800.9433 C 1255.2143 815.4323 1285.5735 812.7783 1272.4354 800.9433 Z" fill="#3e721d"/>
      </g>
      <g id="Graphic_32">
        <path d="M 1272.4354 788.5438 C 1255.9049 773.6463 1246.6098 752.3121 1237.999 752.3121 C 1229.3945 752.3121 1220.0994 773.6463 1203.5628 788.5438 C 1190.4248 800.3787 1220.778 803.0389 1237.999 788.5438 C 1255.2143 803.0389 1285.5735 800.3848 1272.4354 788.5438 Z" fill="#5c913b"/>
      </g>
      <g id="Graphic_31">
        <path d="M 1265.7883 777.5373 C 1252.446 765.5161 1244.9464 748.301 1237.999 748.301 C 1231.0518 748.301 1223.552 765.5161 1210.2098 777.5373 C 1199.6057 787.0907 1224.1044 789.2342 1237.999 777.5373 C 1251.8938 789.2342 1276.3984 787.0907 1265.7883 777.5373 Z" fill="#3e721d"/>
      </g>
      <g id="Graphic_30">
        <path d="M 1265.7883 768.2062 C 1252.446 756.185 1244.9464 738.9699 1237.999 738.9699 C 1231.0518 738.9699 1223.552 756.185 1210.2098 768.2062 C 1199.6057 777.7595 1224.1044 779.9031 1237.999 768.2062 C 1251.8938 779.9031 1276.3984 777.7595 1265.7883 768.2062 Z" fill="#5c913b"/>
      </g>
      <g id="Graphic_29">
        <path d="M 1259.1472 754.4678 C 1248.9994 745.3228 1243.2891 732.22075 1237.999 732.22075 C 1232.715 732.22075 1227.0047 745.3228 1216.8509 754.4678 C 1208.7807 761.7393 1227.425 763.3665 1237.999 754.4678 C 1248.5732 763.37255 1267.2173 761.7393 1259.1472 754.4678 Z" fill="#3e721d"/>
      </g>
      <g id="Graphic_28">
        <path d="M 1259.1472 748.2469 C 1248.9994 739.102 1243.2891 726 1237.999 726 C 1232.715 726 1227.0047 739.102 1216.8509 748.2469 C 1208.7807 755.51855 1227.425 757.1457 1237.999 748.2469 C 1248.5732 757.1457 1267.2173 755.51855 1259.1472 748.2469 Z" fill="#5c913b"/>
      </g>
    </g>
    <g id="Canvas_1_Layer_2">
      <title>Layer 2</title>
      <g id="Group_26">
        <g id="Graphic_14">
          <path d="M 1272.2353 801.8463 L 1188 717.61105 L 1103.7648 801.8463 L 1103.7648 912 L 1272.2353 912 Z" fill="#f3ddab"/>
        </g>
        <g id="Graphic_12">
          <path d="M 1094.8735 813.4555 C 1096.7073 813.4555 1098.5412 812.7535 1099.9382 811.3566 L 1188 723.2946 L 1276.0619 811.3566 C 1278.8629 814.1575 1283.3903 814.1575 1286.1913 811.3566 C 1288.9922 808.5556 1288.9922 804.0282 1286.1913 801.2273 L 1193.0648 708.1007 C 1190.2638 705.2997 1185.7363 705.2997 1182.9353 708.1007 L 1089.8087 801.2273 C 1087.0077 804.0282 1087.0077 808.5556 1089.8087 811.3566 C 1091.2057 812.7535 1093.0396 813.4555 1094.8735 813.4555 Z" fill="#f50"/>
        </g>
        <g id="Graphic_10">
          <rect x="1170.8272" y="859.2883" width="34.3456" height="52.7117" fill="#fff0ce"/>
        </g>
        <g id="Graphic_19">
          <rect x="1173.8273" y="862.2883" width="28.34554" height="49.7117" fill="gray"/>
        </g>
        <g id="Graphic_20">
          <path d="M 1241.457 816.6023 L 1215.5384 816.6023 L 1215.5384 847.534 L 1241.457 847.534 Z M 1160.4617 816.6023 L 1134.5431 816.6023 L 1134.5431 847.534 L 1160.4617 847.534 Z" fill="gray"/>
        </g>
        <g id="Graphic_21">
          <rect x="1214.2656" y="847.534" width="28.345583" height="3" fill="#fff0ce"/>
        </g>
        <g id="Graphic_22">
          <rect x="1133.3104" y="847.534" width="28.345583" height="3" fill="#fff0ce"/>
        </g>
        <g id="Graphic_23">
          <path d="M 1202.1728 862.2883 L 1178 857.8 L 1178 916.4 L 1202.1728 912 Z" fill="#f50"/>
        </g>
      </g>
    </g>
    <g id="Canvas_1_Layer_4">
      <title>Layer 4</title>
      <g id="Group_39">
        <g id="Graphic_44">
          <path d="M 1108.2122 882.9042 C 1108.2122 903.4083 1121.9101 903.0563 1118.958 903.9 C 1104.3747 908.0667 1100.6184 888.0292 1099.2413 888.0292 C 1094.2872 888.0292 1087.708 887.1479 1087.708 882.9042 C 1087.708 878.6563 1092.833 872.65 1100.5226 872.65 C 1105.4788 872.65 1108.2122 878.6563 1108.2122 882.9042 Z M 1162.708 901.0625 C 1162.708 903.3625 1155.3788 899.5188 1152.2913 901.0625 C 1148.1247 903.1458 1148.1247 899.1958 1148.1247 896.8958 C 1148.1247 894.5958 1150.9226 894.8125 1154.3747 894.8125 C 1157.8267 894.8125 1162.708 898.7604 1162.708 901.0625 Z" fill="#77b255"/>
        </g>
        <g id="Graphic_43">
          <path d="M 1122.5309 910.4479 C 1122.5309 916.2 1119.8663 916.4 1116.5788 916.4 C 1113.2913 916.4 1110.6247 916.1979 1110.6247 910.4479 C 1110.6247 909.4292 1110.8017 908.3042 1111.1122 907.1417 C 1112.5497 901.7458 1116.8497 895.5667 1119.5538 895.5667 C 1122.8413 895.5667 1122.5309 904.6958 1122.5309 910.4479 Z M 1140.3872 910.4479 C 1140.3872 916.2 1143.0497 916.4 1146.3372 916.4 C 1149.6267 916.4 1152.2913 916.1979 1152.2913 910.4479 C 1152.2913 909.4292 1152.1142 908.3042 1151.8038 907.1417 C 1150.3642 901.7458 1146.0663 895.5667 1143.3622 895.5667 C 1140.0747 895.5667 1140.3872 904.6958 1140.3872 910.4479 Z" fill="#77b255"/>
        </g>
        <g id="Graphic_42">
          <path d="M 1154.3747 897.65 C 1154.3747 905.9833 1143.6476 905.9833 1130.4163 905.9833 C 1117.1851 905.9833 1106.458 905.9833 1106.458 897.65 C 1106.458 883.8438 1117.1851 872.65 1130.4163 872.65 C 1143.6476 872.65 1154.3747 883.8438 1154.3747 897.65 Z" fill="#3e721d"/>
        </g>
        <g id="Graphic_41">
          <circle cx="1098.1247" cy="878.9" r="2.08333666229564" fill="#f3ddab"/>
        </g>
        <g id="Graphic_40">
          <path d="M 1137.0142 893.6917 C 1137.0142 901.1729 1134.06 901.8167 1130.4163 901.8167 C 1126.7726 901.8167 1123.8184 901.1708 1123.8184 893.6917 C 1123.8184 886.2125 1126.7705 876.8167 1130.4163 876.8167 C 1134.0622 876.8167 1137.0142 886.2125 1137.0142 893.6917 Z M 1150.208 891.4 C 1152.0226 898.6542 1148.5747 899.7333 1144.9309 899.7333 C 1141.2872 899.7333 1139.6538 901.1708 1139.6538 893.6917 C 1139.6538 886.2125 1137.3288 880.15 1140.9726 880.15 C 1144.6142 880.15 1148.1247 883.0667 1150.208 891.4 Z M 1121.1809 893.6917 C 1121.1809 901.1729 1119.5455 899.7333 1115.9017 899.7333 C 1112.258 899.7333 1108.8101 898.6542 1110.6247 891.4 C 1112.708 883.0667 1117.3976 880.15 1121.0413 880.15 C 1124.6872 880.15 1121.1809 886.2125 1121.1809 893.6917 Z" fill="#5c913b"/>
        </g>
      </g>
    </g>
  </g>
</svg>
