<?xml version="1.0" encoding="UTF-8" standalone="no"?>
<!DOCTYPE svg PUBLIC "-//W3C//DTD SVG 1.1//EN" "http://www.w3.org/Graphics/SVG/1.1/DTD/svg11.dtd">
<svg xmlns:xl="http://www.w3.org/1999/xlink" xmlns:dc="http://purl.org/dc/elements/1.1/" xmlns="http://www.w3.org/2000/svg" version="1.1" viewBox="1 2 256 256" width="256" height="256">
  <defs/>
  <g id="Canvas_1" stroke="none" fill="none" stroke-opacity="1" fill-opacity="1" stroke-dasharray="none">
    <title>Canvas 1</title>
    <g id="Canvas_1_Layer_3">
      <title>Layer 3</title>
      <g id="Graphic_22">
        <path d="M 129 217.425 C 35.965 217.425 14 234.915 14 243 C 14 251.085 25.442415 258 39.555556 258 L 218.44444 258 C 232.55759 258 244 251.0587 244 243 C 244 234.9412 222.035 217.425 129 217.425 Z" fill="#5c913b"/>
      </g>
    </g>
    <g id="Canvas_1_Layer_1">
      <title>Layer 1</title>
      <g id="Group_10">
        <g id="Graphic_9">
          <circle cx="129.00388" cy="173.88428" r="62.0508744881402" fill="#f3ddab"/>
        </g>
        <g id="Graphic_2">
          <path d="M 151.67723 177.78935 C 151.45799 186.2779 150.55205 194.34863 149.07937 201.58375 C 143.10371 202.31827 137.09237 202.72566 131.07224 202.80408 L 131.07224 178.01687 C 138.88236 178.00446 145.71209 177.92586 151.67723 177.78935 Z M 144.69859 121.56721 C 148.4506 122.23322 152.06608 123.10193 155.49956 124.09474 C 151.09659 120.32524 145.97988 117.48059 140.45432 115.7303 C 141.9518 117.37671 143.3707 119.32097 144.69859 121.56721 Z M 109.01939 145.70082 C 114.98213 145.26378 120.95711 145.01407 126.93552 144.95208 L 126.93552 124.30571 C 123.12974 124.405 119.43151 124.74834 115.88635 125.29853 C 113.0651 130.66385 110.69476 137.63422 109.01939 145.70082 Z M 71.67724 156.24532 C 70.24583 160.97433 69.40657 165.86265 69.17866 170.7983 C 70.53964 171.19542 73.33192 171.61736 77.3735 172.01862 C 77.50295 165.8589 78.36391 159.73638 79.93826 153.77983 C 75.50784 154.75196 72.64523 155.64963 71.67724 156.24532 Z M 126.93552 173.87601 L 126.93552 149.08466 C 120.3085 149.1343 114.02896 149.42387 108.24583 149.8665 C 106.92583 157.7056 106.26165 165.64111 106.2602 173.59058 C 112.4901 173.76018 119.40256 173.85946 126.93552 173.87601 Z M 113.30917 121.56721 C 114.52178 119.48128 115.94539 117.52539 117.55758 115.7303 C 112.03202 117.48059 106.91531 120.32524 102.51234 124.09474 C 105.94167 123.10193 109.55717 122.23322 113.30917 121.56721 Z" fill="#ffac33"/>
        </g>
        <g id="Graphic_3">
          <path d="M 148.98837 145.70082 C 143.02563 145.26378 137.05065 145.01407 131.07224 144.95208 L 131.07224 124.30571 C 134.87802 124.405 138.57625 124.74834 142.12141 125.29853 C 144.94266 130.66385 147.313 137.63422 148.98837 145.70082 Z M 80.3478 195.38695 C 78.55751 189.13172 77.56237 182.67588 77.38591 176.1719 C 73.57185 175.72926 70.90367 175.24113 69.06697 174.753 C 69.1497 180.62714 70.04737 186.31099 71.71447 191.6639 C 72.57904 192.4085 75.61539 193.81086 80.3478 195.38695 Z M 104.72548 146.0483 C 106.22711 138.45329 108.32856 131.73526 110.89746 126.20033 C 105.90093 127.25883 100.99495 128.70697 96.22452 130.53148 C 92.00507 135.6031 88.54264 141.63856 86.02338 148.3566 C 91.64931 147.40515 98.09018 146.62331 104.72548 146.0483 Z M 88.50954 213.64228 C 84.37696 211.60288 81.49781 209.73309 80.16992 208.58721 C 77.6323 205.06017 75.48777 201.26634 73.77455 197.2733 C 75.99183 198.27438 78.738615 199.2796 81.92389 200.25586 C 83.68199 205.06273 85.89514 209.55107 88.50954 213.64228 Z M 155.88428 173.47061 C 164.1908 173.19759 171.12808 172.81701 176.5141 172.3868 C 176.39378 165.77382 175.38078 159.2074 173.50256 152.86562 C 167.05789 151.70381 160.56524 150.82598 154.04344 150.23467 C 155.20585 157.40774 155.8636 165.21786 155.88428 173.47061 Z M 176.72506 149.22944 C 179.74073 149.84995 182.3841 150.52424 184.51864 151.2523 C 182.6715 146.76685 180.28497 142.52305 177.41176 138.61462 C 176.06319 137.47703 173.24195 135.69824 169.2707 133.75398 C 172.3944 138.57957 174.89885 143.77886 176.72506 149.22944 Z M 104.57656 200.9922 C 103.1449 193.3004 102.3466 185.50412 102.18967 177.6818 C 93.39501 177.42945 86.67284 177.04474 81.53504 176.59383 C 81.79151 183.72967 82.99116 190.5594 85.06366 196.83893 C 90.36693 198.34884 96.99809 199.85874 104.57656 200.9922 Z" fill="#f50"/>
        </g>
        <g id="Graphic_4">
          <path d="M 142.30343 222.11015 C 138.72517 222.65206 134.96489 222.98713 131.07224 223.07814 L 131.07224 206.93666 C 136.76824 206.85087 142.4564 206.48086 148.11552 205.82802 C 146.57252 212.14066 144.59517 217.65904 142.30343 222.11015 Z M 180.6384 172.01862 C 184.67584 171.61736 187.47226 171.19542 188.83324 170.7983 C 188.60571 165.8626 187.76644 160.97425 186.33466 156.24532 C 185.36667 155.64963 182.50406 154.75196 178.07363 153.77983 C 179.6125 159.54642 180.48948 165.66462 180.6384 172.01862 Z M 118.33528 226.59849 C 120.95383 230.3753 123.87021 232.81184 126.93552 233.58127 L 126.93552 227.219 C 124.06057 227.14828 121.1906 226.9412 118.33528 226.59849 Z" fill="#5dadec"/>
        </g>
        <g id="Graphic_5">
          <title>Bézier</title>
          <path d="M 188.9408 174.753 C 188.87608 180.48795 187.9844 186.18357 186.2933 191.6639 C 185.42458 192.41265 182.39237 193.81086 177.65582 195.38695 C 179.39738 189.3432 180.42329 182.89406 180.61771 176.1719 C 184.4359 175.72926 187.1041 175.24113 188.9408 174.753 Z M 152.54594 205.27784 C 151.16014 211.28435 149.36894 216.63727 147.27576 221.2249 C 152.331 220.1761 157.29326 218.72077 162.11417 216.87306 C 165.83994 212.2656 168.8776 207.142 171.13222 201.66235 C 165.0093 203.21427 158.80413 204.42133 152.54594 205.27784 Z M 113.09406 225.81665 C 109.35885 225.15986 105.66316 224.29533 102.0242 223.22706 C 106.53566 227.20853 111.82528 230.20904 117.55758 232.03827 C 115.85174 230.12982 114.35535 228.04403 113.09406 225.81665 Z M 139.67248 226.59849 C 136.81716 226.9412 133.94718 227.14828 131.07224 227.219 L 131.07224 233.58127 C 134.13755 232.81184 137.05393 230.3753 139.67248 226.59849 Z" fill="#5dadec"/>
        </g>
        <g id="Graphic_8">
          <path d="M 181.90059 137.72941 C 181.63744 137.26228 181.31487 136.83123 180.94093 136.44702 C 155.25362 100.90429 102.77457 100.85878 77.05416 136.44702 C 76.63224 136.90206 76.305465 137.33228 76.09864 137.72941 C 60.82758 159.95612 61.1853 189.38597 76.99211 211.23487 C 77.04589 211.2845 77.08725 211.3838 77.14516 211.43757 C 102.84488 246.8314 155.13366 246.8769 180.86234 211.43757 L 181.05262 211.27624 C 196.81723 189.39303 197.15647 159.97033 181.90059 137.72941 Z M 177.83033 208.58737 C 176.50253 209.73324 173.61943 211.5989 169.49126 213.64244 C 172.1671 209.43337 174.37527 204.9446 176.07648 200.256 C 178.85191 199.43163 181.57342 198.43552 184.22527 197.27343 C 182.51054 201.26567 180.36625 205.05934 177.83033 208.58737 Z M 73.77396 197.27343 C 75.991095 198.27451 78.73769 199.27974 81.922755 200.256 C 83.68074 205.06288 85.89374 209.55536 88.50797 213.64244 C 84.37567 211.60304 81.4967 209.73324 80.1689 208.58737 C 77.63298 205.05934 75.48869 201.26567 73.77396 197.27343 Z M 186.28522 191.6599 C 185.41656 192.40864 182.38455 193.80685 177.64832 195.38294 C 179.38977 189.33919 180.4156 182.89003 180.61002 176.16786 C 184.42795 175.72523 187.09596 175.2371 188.93254 174.74482 C 188.86846 180.48119 187.97682 186.17828 186.28522 191.6599 Z M 69.17837 170.79839 C 69.43483 165.764 70.24971 160.87852 71.676785 156.24539 C 72.64471 155.6497 75.50713 154.75203 79.93726 153.7799 C 78.36301 159.73645 77.50211 165.85898 77.37267 172.01872 C 73.33136 171.61746 70.53926 171.19551 69.17837 170.79839 Z M 84.5039 152.86568 C 90.94814 151.70388 97.44035 150.82604 103.96172 150.23473 C 102.73872 157.91828 102.12324 165.68629 102.12101 173.46657 C 95.23752 173.26198 88.35959 172.90061 81.49256 172.38275 C 81.62493 165.5282 82.68386 158.9715 84.5039 152.86568 Z M 188.82086 170.79839 C 187.45997 171.19551 184.66787 171.61746 180.62656 172.01872 C 180.49712 165.85898 179.63622 159.73645 178.06197 153.7799 C 182.48796 154.75203 185.35038 155.6497 186.32245 156.24539 C 187.74952 160.87852 188.5644 165.76813 188.82086 170.79839 Z M 176.50667 172.38689 C 171.11688 172.8171 164.18006 173.19769 155.87822 173.47071 C 155.87599 165.69042 155.2605 157.92242 154.0375 150.23886 C 161.64856 150.95038 168.25032 151.90183 173.49533 152.86982 C 175.31537 158.9715 176.3743 165.5282 176.50667 172.38689 Z M 131.06784 124.30574 C 134.87336 124.40502 138.57134 124.74837 142.11628 125.29855 C 144.93733 130.66802 147.30751 137.6384 148.98277 145.70088 C 143.02044 145.26383 137.04585 145.01413 131.06784 144.95213 L 131.06784 124.30574 Z M 126.9314 144.948 C 120.95344 145.01206 114.97891 145.26176 109.01646 145.69674 C 110.69172 137.63013 113.0619 130.66388 115.88295 125.29441 C 119.54071 124.72787 123.23117 124.39763 126.9314 124.30574 L 126.9314 144.948 Z M 126.9314 149.08472 L 126.9314 173.8761 C 120.0378 173.86456 113.1446 173.76941 106.25331 173.59068 C 106.26986 165.20967 106.98546 157.18443 108.23881 149.86656 C 114.45901 149.39417 120.69347 149.1334 126.9314 149.08472 Z M 126.9314 178.01697 L 126.9314 202.80423 C 120.91175 202.72374 114.90092 202.31636 108.92546 201.5839 C 107.45288 194.34462 106.547 186.27387 106.32777 177.78945 C 112.29252 177.92596 119.12179 178.00456 126.9314 178.01697 Z M 126.9314 206.94095 L 126.9314 223.08245 C 123.17113 222.9961 119.42013 222.6714 115.70095 222.11032 C 113.40936 217.6592 111.43214 212.14081 109.88925 205.8323 C 115.42381 206.46523 121.16519 206.86235 126.9314 206.94095 Z M 131.06784 206.94095 C 136.76346 206.85515 142.45125 206.48514 148.10998 205.8323 C 146.56295 212.14081 144.58573 217.6592 142.29828 222.11032 C 138.72026 222.65223 134.96023 222.9873 131.06784 223.07831 L 131.06784 206.94095 Z M 131.06784 202.80423 L 131.06784 178.01697 C 138.87744 178.00456 145.70671 177.92596 151.67146 177.78945 C 151.45223 186.278 150.54635 194.34876 149.07377 201.5839 C 143.09831 202.31636 137.08748 202.72374 131.06784 202.80423 Z M 131.06784 173.8761 L 131.06784 149.08472 C 137.69442 149.13436 143.97354 149.42393 149.75629 149.86656 C 151.00963 157.18029 151.72523 165.20553 151.74178 173.59068 C 145.5123 173.76028 138.6003 173.85956 131.06784 173.8761 Z M 153.2764 146.04836 C 151.77487 138.45334 149.67356 131.7353 147.10483 126.20036 C 152.10103 127.25886 157.00668 128.707 161.7768 130.53151 C 165.99596 135.60313 169.45817 141.63861 171.97726 148.35665 C 165.77659 147.34042 159.53807 146.57038 153.2764 146.04836 Z M 144.69328 121.56723 C 143.48072 119.48235 142.0587 117.5266 140.44929 115.7303 C 145.97449 117.4806 151.09085 120.32525 155.49353 124.09476 C 152.06029 123.10195 148.44503 122.23324 144.69328 121.56723 Z M 139.349 120.76056 C 136.61894 120.42963 133.84753 120.24347 131.06784 120.17315 L 131.06784 114.18731 C 134.01298 114.92778 136.81336 117.23194 139.349 120.76056 Z M 126.9314 120.17315 C 124.1517 120.24347 121.38029 120.42963 118.65023 120.76056 C 121.19001 117.23607 123.98625 114.92778 126.9314 114.18731 Z M 113.30595 121.56723 C 109.5542 122.23324 105.93894 123.10195 102.5057 124.09476 C 106.90838 120.32525 112.02474 117.4806 117.54994 115.7303 C 115.94053 117.5266 114.51851 119.48235 113.30595 121.56723 Z M 110.8944 126.19622 C 108.32567 131.7353 106.22436 138.4492 104.72283 146.04423 C 98.46146 146.56727 92.22304 147.33591 86.02197 148.34838 C 88.54106 141.63034 92.00327 135.59486 96.22244 130.52323 C 100.9944 128.70527 105.89964 127.25862 110.8944 126.19622 Z M 102.19133 177.6819 C 102.38574 186.0174 103.21303 193.8689 104.57805 200.99234 C 97.99378 200.02464 91.47803 198.6374 85.07059 196.83907 C 82.94639 190.2907 81.75851 183.47488 81.5422 176.59394 C 86.67139 177.04484 93.39725 177.42956 102.19133 177.6819 Z M 105.45912 205.27799 C 106.84483 211.2845 108.6359 216.63743 110.72895 221.22506 C 105.67406 220.17628 100.71212 218.72094 95.89152 216.87323 C 92.166 212.26576 89.12856 207.14216 86.87408 201.6625 C 92.34659 203.07311 98.68776 204.33481 105.45912 205.27799 Z M 113.09085 225.81683 C 114.35206 228.0442 115.84835 230.13 117.55408 232.03846 C 111.82104 230.21178 106.53127 227.21099 102.02173 223.22724 C 105.48807 224.249 109.19846 225.13013 113.09085 225.81683 Z M 118.33173 226.59867 C 121.18686 226.9414 124.05664 227.14846 126.9314 227.21918 L 126.9314 233.58146 C 123.86629 232.81203 120.9501 230.3755 118.33173 226.59867 Z M 131.06784 227.21918 C 133.94269 227.15052 136.81257 226.94345 139.6675 226.59867 C 137.04913 230.3755 134.13294 232.81203 131.06784 233.58146 L 131.06784 227.21918 Z M 144.90838 225.81683 C 148.79663 225.13013 152.51116 224.249 155.9775 223.22724 C 151.46634 227.20871 146.17707 230.20922 140.44515 232.03846 C 142.15088 230.13 143.64717 228.0442 144.90838 225.81683 Z M 147.26615 221.22092 C 149.35919 216.6333 151.15027 211.28038 152.53598 205.27385 C 158.79278 204.41976 164.9963 203.21267 171.11688 201.65835 C 168.8614 207.13753 165.82404 212.261 162.09943 216.8691 C 157.28064 218.71796 152.31999 220.17333 147.26615 221.22092 Z M 153.42531 200.99234 C 154.7862 193.8689 155.6135 186.0174 155.81204 177.6819 C 164.60612 177.42956 171.32784 177.04484 176.4653 176.59394 C 176.249 183.47488 175.06112 190.2907 172.93692 196.83907 C 167.634 198.34897 161.00328 199.85888 153.42531 200.99234 Z M 184.51068 151.25236 C 181.95556 150.4236 179.35324 149.74811 176.71762 149.2295 C 174.89153 143.77891 172.38726 138.57962 169.26375 133.75402 C 173.23474 135.69414 176.0558 137.47707 177.40427 138.61467 C 180.2773 142.5231 182.66366 146.76691 184.51068 151.25236 Z M 88.73548 133.75402 C 85.61525 138.58146 83.11118 143.78032 81.28161 149.2295 C 78.64521 149.7447 76.04269 150.42024 73.48855 151.25236 C 75.33557 146.76691 77.72194 142.5231 80.59496 138.61467 C 81.94344 137.47707 84.76035 135.69828 88.73548 133.75402 Z M 77.38921 176.172 C 77.58363 182.89417 78.60533 189.33919 80.35091 195.38708 C 75.61468 193.81099 72.58267 192.40864 71.71401 191.66403 C 70.02505 186.18322 69.13347 180.48788 69.06669 174.7531 C 70.90327 175.24123 73.57128 175.72936 77.38921 176.172 Z" fill="gray"/>
        </g>
      </g>
    </g>
  </g>
</svg>
