<?xml version="1.0" encoding="UTF-8" standalone="no"?>
<!DOCTYPE svg PUBLIC "-//W3C//DTD SVG 1.1//EN" "http://www.w3.org/Graphics/SVG/1.1/DTD/svg11.dtd">
<svg xmlns:dc="http://purl.org/dc/elements/1.1/" xmlns="http://www.w3.org/2000/svg" version="1.1" xmlns:xl="http://www.w3.org/1999/xlink" viewBox="1564 1035 256 256" width="256" height="256">
  <defs/>
  <g id="Canvas_1" stroke="none" stroke-dasharray="none" fill="none" stroke-opacity="1" fill-opacity="1">
    <title>Canvas 1</title>
    <g id="Canvas_1_Layer_1">
      <title>Layer 1</title>
      <g id="Graphic_61">
        <path d="M 1692 1250.425 C 1598.965 1250.425 1577 1267.915 1577 1276 C 1577 1284.085 1588.4424 1291 1602.5556 1291 L 1781.4444 1291 C 1795.5576 1291 1807 1284.0587 1807 1276 C 1807 1267.9412 1785.035 1250.425 1692 1250.425 Z" fill="#5c913b"/>
      </g>
    </g>
    <g id="Canvas_1_Layer_2">
      <title>Layer 2</title>
      <g id="Group_3">
        <title>Canvas_1_Layer_2</title>
        <g id="Group_4">
          <title>Group_102</title>
          <g id="Group_5">
            <title>Group_103</title>
            <g id="Group_22">
              <title>Group_115</title>
              <g id="Group_35">
                <title>Group_124</title>
                <g id="Group_36">
                  <title>Graphic_125</title>
                  <g id="Graphic_37">
                    <path d="M 1670.6289 1142.7729 L 1644.9834 1142.7729 L 1615.0637 1181.2409 L 1657.8062 1181.2409 Z" fill="white"/>
                  </g>
                </g>
              </g>
              <g id="Group_32">
                <title>Group_122</title>
                <g id="Group_33">
                  <title>Graphic_123</title>
                  <g id="Graphic_34">
                    <path d="M 1768.9363 1181.2409 L 1739.0166 1142.7729 L 1713.3712 1142.7729 L 1726.194 1181.2409 Z" fill="white"/>
                  </g>
                </g>
              </g>
              <g id="Group_29">
                <title>Group_120</title>
                <g id="Group_30">
                  <title>Graphic_121</title>
                  <g id="Graphic_31">
                    <path d="M 1726.194 1181.2409 L 1768.9363 1181.2409 L 1692 1270.9998 Z" fill="white"/>
                  </g>
                </g>
              </g>
              <g id="Group_26">
                <title>Group_118</title>
                <g id="Group_27">
                  <title>Graphic_119</title>
                  <g id="Graphic_28">
                    <path d="M 1657.8062 1181.2409 L 1615.0637 1181.2409 L 1692 1270.9998 Z M 1670.6289 1142.7729 L 1657.8062 1181.2409 L 1726.194 1181.2409 L 1713.3712 1142.7729 Z" fill="white"/>
                  </g>
                </g>
              </g>
              <g id="Group_23">
                <title>Group_116</title>
                <g id="Group_24">
                  <title>Graphic_117</title>
                  <g id="Graphic_25">
                    <path d="M 1692 1270.9998 L 1657.8062 1181.2409 L 1726.194 1181.2409 Z" fill="white"/>
                  </g>
                </g>
              </g>
            </g>
            <g id="Group_6">
              <title>Group_104</title>
              <g id="Group_19">
                <title>Group_113</title>
                <g id="Group_20">
                  <title>Graphic_114</title>
                  <g id="Graphic_21">
                    <path d="M 1670.6289 1142.7729 L 1644.9834 1142.7729 L 1615.0637 1181.2409 L 1657.8062 1181.2409 Z" fill="#8ac5ff" fill-opacity=".25"/>
                  </g>
                </g>
              </g>
              <g id="Group_16">
                <title>Group_111</title>
                <g id="Group_17">
                  <title>Graphic_112</title>
                  <g id="Graphic_18">
                    <path d="M 1768.9363 1181.2409 L 1739.0166 1142.7729 L 1713.3712 1142.7729 L 1726.194 1181.2409 Z" fill="#8ac5ff" fill-opacity=".7"/>
                  </g>
                </g>
              </g>
              <g id="Group_13">
                <title>Group_109</title>
                <g id="Group_14">
                  <title>Graphic_110</title>
                  <g id="Graphic_15">
                    <path d="M 1726.194 1181.2409 L 1768.9363 1181.2409 L 1692 1270.9998 Z" fill="#8ac5ff" fill-opacity=".9"/>
                  </g>
                </g>
              </g>
              <g id="Group_10">
                <title>Group_107</title>
                <g id="Group_11">
                  <title>Graphic_108</title>
                  <g id="Graphic_12">
                    <path d="M 1657.8062 1181.2409 L 1615.0637 1181.2409 L 1692 1270.9998 Z M 1670.6289 1142.7729 L 1657.8062 1181.2409 L 1726.194 1181.2409 L 1713.3712 1142.7729 Z" fill="#8ac5ff" fill-opacity=".5"/>
                  </g>
                </g>
              </g>
              <g id="Group_7">
                <title>Group_105</title>
                <g id="Group_8">
                  <title>Graphic_106</title>
                  <g id="Graphic_9">
                    <path d="M 1692 1270.9998 L 1657.8062 1181.2409 L 1726.194 1181.2409 Z" fill="#8ac5ff" fill-opacity=".6"/>
                  </g>
                </g>
              </g>
            </g>
          </g>
        </g>
      </g>
    </g>
    <g id="Canvas_1_Layer_3">
      <title>Layer 3</title>
      <g id="Group_76">
        <g id="Graphic_75">
          <path d="M 1708.6667 1086.7681 C 1707.2917 1086.7681 1705.9667 1086.9796 1704.7183 1087.3722 C 1703.24 1083.0829 1699.23 1080 1694.5 1080 C 1689.4267 1080 1685.18 1083.5465 1684.0017 1088.3265 C 1682.745 1087.362 1681.1983 1086.7681 1679.5 1086.7681 C 1675.3583 1086.7681 1672 1090.1775 1672 1094.3822 C 1672 1095.4042 1672.205 1096.3754 1672.565 1097.2654 C 1671.85 1097.0641 1671.1117 1096.9203 1670.3333 1096.9203 C 1665.73 1096.9203 1662 1100.707 1662 1105.3804 C 1662 1110.0538 1665.73 1113.8405 1670.3333 1113.8405 L 1708.6667 1113.8405 C 1716.03 1113.8405 1722 1107.7814 1722 1100.3043 C 1722 1092.829 1716.03 1086.7681 1708.6667 1086.7681 Z" fill="#5dadec"/>
        </g>
        <g id="Graphic_74">
          <path d="M 1681.9983 1122.2347 L 1681.81 1116.4462 L 1677.0267 1119.3362 C 1675.9633 1119.92 1675.2567 1121.0689 1675.3 1122.3802 C 1675.3617 1124.2465 1676.91 1125.7236 1678.76 1125.6847 C 1680.6083 1125.6458 1682.06 1124.0993 1681.9983 1122.2347 Z M 1678.7 1134.8572 L 1678.5117 1129.0688 L 1673.7283 1131.9587 C 1672.665 1132.5425 1671.9583 1133.6914 1672.0017 1135.0027 C 1672.0633 1136.869 1673.6117 1138.3461 1675.4617 1138.3072 C 1677.3117 1138.2683 1678.7617 1136.7218 1678.7 1134.8572 Z M 1670.3667 1127.3107 L 1670.1783 1121.5223 L 1665.395 1124.4123 C 1664.3317 1124.996 1663.625 1126.145 1663.6683 1127.4563 C 1663.73 1129.3209 1665.2783 1130.798 1667.1283 1130.7608 C 1668.9783 1130.7219 1670.4283 1129.1754 1670.3667 1127.3107 Z M 1700.3667 1122.2347 L 1700.1783 1116.4462 L 1695.3967 1119.3362 C 1694.3317 1119.92 1693.6267 1121.0689 1693.67 1122.3802 C 1693.7317 1124.2465 1695.28 1125.7236 1697.13 1125.6847 C 1698.9783 1125.6458 1700.4283 1124.0993 1700.3667 1122.2347 Z M 1690.3317 1129.0028 L 1690.1433 1123.2143 L 1685.3617 1126.1043 C 1684.2967 1126.6881 1683.5917 1127.837 1683.635 1129.1483 C 1683.6967 1131.0146 1685.245 1132.4917 1687.095 1132.4528 C 1688.9433 1132.4139 1690.3933 1130.8674 1690.3317 1129.0028 Z M 1698.7 1136.5492 L 1698.51 1130.7608 L 1693.7283 1133.6508 C 1692.6633 1134.2345 1691.9583 1135.3834 1692.0017 1136.6947 C 1692.0633 1138.561 1693.6117 1140.0382 1695.4617 1139.9992 C 1697.3117 1139.9603 1698.7617 1138.4138 1698.7 1136.5492 Z M 1710.3317 1127.3107 L 1710.1433 1121.5223 L 1705.3617 1124.4123 C 1704.2967 1124.996 1703.5917 1126.145 1703.635 1127.4563 C 1703.6967 1129.3226 1705.245 1130.7997 1707.095 1130.7608 C 1708.9433 1130.7219 1710.3933 1129.1754 1710.3317 1127.3107 Z" fill="#5dadec"/>
        </g>
      </g>
    </g>
  </g>
</svg>
