<?xml version="1.0" encoding="UTF-8" standalone="no"?>
<!DOCTYPE svg PUBLIC "-//W3C//DTD SVG 1.1//EN" "http://www.w3.org/Graphics/SVG/1.1/DTD/svg11.dtd">
<svg xmlns="http://www.w3.org/2000/svg" version="1.1" xmlns:dc="http://purl.org/dc/elements/1.1/" xmlns:xl="http://www.w3.org/1999/xlink" viewBox="1564 1035 256 256" width="256" height="256">
  <defs/>
  <g id="Canvas_1" fill="none" fill-opacity="1" stroke-dasharray="none" stroke="none" stroke-opacity="1">
    <title>Canvas 1</title>
    <g id="Canvas_1_Layer_1">
      <title>Layer 1</title>
      <g id="Graphic_61">
        <path d="M 1692 1250.425 C 1598.965 1250.425 1577 1267.915 1577 1276 C 1577 1284.085 1588.4424 1291 1602.5556 1291 L 1781.4444 1291 C 1795.5576 1291 1807 1284.0587 1807 1276 C 1807 1267.9412 1785.035 1250.425 1692 1250.425 Z" fill="#5c913b"/>
      </g>
    </g>
    <g id="Canvas_1_Layer_2">
      <title>Layer 2</title>
      <g id="Group_3">
        <title>Canvas_1_Layer_2</title>
        <g id="Group_4">
          <title>Group_102</title>
          <g id="Group_5">
            <title>Group_103</title>
            <g id="Group_22">
              <title>Group_115</title>
              <g id="Group_35">
                <title>Group_124</title>
                <g id="Group_36">
                  <title>Graphic_125</title>
                  <g id="Graphic_37">
                    <path d="M 1670.6289 1142.7729 L 1644.9834 1142.7729 L 1615.0637 1181.2409 L 1657.8062 1181.2409 Z" fill="white"/>
                  </g>
                </g>
              </g>
              <g id="Group_32">
                <title>Group_122</title>
                <g id="Group_33">
                  <title>Graphic_123</title>
                  <g id="Graphic_34">
                    <path d="M 1768.9363 1181.2409 L 1739.0166 1142.7729 L 1713.3712 1142.7729 L 1726.194 1181.2409 Z" fill="white"/>
                  </g>
                </g>
              </g>
              <g id="Group_29">
                <title>Group_120</title>
                <g id="Group_30">
                  <title>Graphic_121</title>
                  <g id="Graphic_31">
                    <path d="M 1726.194 1181.2409 L 1768.9363 1181.2409 L 1692 1270.9998 Z" fill="white"/>
                  </g>
                </g>
              </g>
              <g id="Group_26">
                <title>Group_118</title>
                <g id="Group_27">
                  <title>Graphic_119</title>
                  <g id="Graphic_28">
                    <path d="M 1657.8062 1181.2409 L 1615.0637 1181.2409 L 1692 1270.9998 Z M 1670.6289 1142.7729 L 1657.8062 1181.2409 L 1726.194 1181.2409 L 1713.3712 1142.7729 Z" fill="white"/>
                  </g>
                </g>
              </g>
              <g id="Group_23">
                <title>Group_116</title>
                <g id="Group_24">
                  <title>Graphic_117</title>
                  <g id="Graphic_25">
                    <path d="M 1692 1270.9998 L 1657.8062 1181.2409 L 1726.194 1181.2409 Z" fill="white"/>
                  </g>
                </g>
              </g>
            </g>
            <g id="Group_6">
              <title>Group_104</title>
              <g id="Group_19">
                <title>Group_113</title>
                <g id="Group_20">
                  <title>Graphic_114</title>
                  <g id="Graphic_21">
                    <path d="M 1670.6289 1142.7729 L 1644.9834 1142.7729 L 1615.0637 1181.2409 L 1657.8062 1181.2409 Z" fill="#8ac5ff" fill-opacity=".25"/>
                  </g>
                </g>
              </g>
              <g id="Group_16">
                <title>Group_111</title>
                <g id="Group_17">
                  <title>Graphic_112</title>
                  <g id="Graphic_18">
                    <path d="M 1768.9363 1181.2409 L 1739.0166 1142.7729 L 1713.3712 1142.7729 L 1726.194 1181.2409 Z" fill="#8ac5ff" fill-opacity=".7"/>
                  </g>
                </g>
              </g>
              <g id="Group_13">
                <title>Group_109</title>
                <g id="Group_14">
                  <title>Graphic_110</title>
                  <g id="Graphic_15">
                    <path d="M 1726.194 1181.2409 L 1768.9363 1181.2409 L 1692 1270.9998 Z" fill="#8ac5ff" fill-opacity=".9"/>
                  </g>
                </g>
              </g>
              <g id="Group_10">
                <title>Group_107</title>
                <g id="Group_11">
                  <title>Graphic_108</title>
                  <g id="Graphic_12">
                    <path d="M 1657.8062 1181.2409 L 1615.0637 1181.2409 L 1692 1270.9998 Z M 1670.6289 1142.7729 L 1657.8062 1181.2409 L 1726.194 1181.2409 L 1713.3712 1142.7729 Z" fill="#8ac5ff" fill-opacity=".5"/>
                  </g>
                </g>
              </g>
              <g id="Group_7">
                <title>Group_105</title>
                <g id="Group_8">
                  <title>Graphic_106</title>
                  <g id="Graphic_9">
                    <path d="M 1692 1270.9998 L 1657.8062 1181.2409 L 1726.194 1181.2409 Z" fill="#8ac5ff" fill-opacity=".6"/>
                  </g>
                </g>
              </g>
            </g>
          </g>
        </g>
      </g>
    </g>
    <g id="Canvas_1_Layer_3">
      <title>Layer 3</title>
      <g id="Group_76">
        <g id="Graphic_75">
          <path d="M 1712.8333 1088.4601 C 1711.1146 1088.4601 1709.4583 1088.7245 1707.898 1089.2152 C 1706.05 1083.8536 1701.0375 1080 1695.125 1080 C 1688.7833 1080 1683.475 1084.4331 1682.002 1090.4081 C 1680.4312 1089.2025 1678.498 1088.4601 1676.375 1088.4601 C 1671.198 1088.4601 1667 1092.7219 1667 1097.9778 C 1667 1099.2553 1667.2562 1100.4693 1667.7062 1101.5818 C 1666.8125 1101.3301 1665.8896 1101.1503 1664.9167 1101.1503 C 1659.1625 1101.1503 1654.5 1105.8838 1654.5 1111.7255 C 1654.5 1117.5672 1659.1625 1122.3007 1664.9167 1122.3007 L 1712.8333 1122.3007 C 1722.0375 1122.3007 1729.5 1114.7267 1729.5 1105.3804 C 1729.5 1096.0362 1722.0375 1088.4601 1712.8333 1088.4601 Z" fill="#5dadec"/>
        </g>
        <g id="Graphic_74">
          <path d="M 1679.498 1132.7933 L 1679.2625 1125.5578 L 1673.2833 1129.1703 C 1671.9542 1129.9 1671.0708 1131.3361 1671.125 1132.9752 C 1671.202 1135.3081 1673.1375 1137.1545 1675.45 1137.1059 C 1677.7604 1137.0572 1679.575 1135.1241 1679.498 1132.7933 Z M 1675.375 1148.5715 L 1675.1396 1141.336 L 1669.1604 1144.9484 C 1667.8312 1145.6781 1666.948 1147.1142 1667.002 1148.7534 C 1667.0792 1151.0862 1669.0146 1152.9327 1671.327 1152.884 C 1673.6396 1152.8354 1675.452 1150.9022 1675.375 1148.5715 Z M 1664.9583 1139.1384 L 1664.723 1131.9029 L 1658.7437 1135.5154 C 1657.4146 1136.245 1656.5312 1137.6812 1656.5854 1139.3203 C 1656.6625 1141.6511 1658.598 1143.4975 1660.9104 1143.451 C 1663.223 1143.4023 1665.0354 1141.4692 1664.9583 1139.1384 Z M 1702.4583 1132.7933 L 1702.223 1125.5578 L 1696.2458 1129.1703 C 1694.9146 1129.9 1694.0333 1131.3361 1694.0875 1132.9752 C 1694.1646 1135.3081 1696.1 1137.1545 1698.4125 1137.1059 C 1700.723 1137.0572 1702.5354 1135.1241 1702.4583 1132.7933 Z M 1689.9146 1141.2535 L 1689.6792 1134.018 L 1683.702 1137.6304 C 1682.3708 1138.3601 1681.4896 1139.7962 1681.5438 1141.4354 C 1681.6208 1143.7682 1683.5562 1145.6147 1685.8688 1145.566 C 1688.1792 1145.5174 1689.9917 1143.5842 1689.9146 1141.2535 Z M 1700.375 1150.6865 L 1700.1375 1143.451 L 1694.1604 1147.0635 C 1692.8292 1147.7931 1691.948 1149.2293 1692.002 1150.8684 C 1692.0792 1153.2013 1694.0146 1155.0477 1696.327 1154.999 C 1698.6396 1154.9504 1700.452 1153.0173 1700.375 1150.6865 Z M 1714.9146 1139.1384 L 1714.6792 1131.9029 L 1708.702 1135.5154 C 1707.3708 1136.245 1706.4896 1137.6812 1706.5438 1139.3203 C 1706.6208 1141.6532 1708.5562 1143.4996 1710.8688 1143.451 C 1713.1792 1143.4023 1714.9917 1141.4692 1714.9146 1139.1384 Z" fill="#5dadec"/>
        </g>
      </g>
    </g>
  </g>
</svg>
