<?xml version="1.0" encoding="UTF-8" standalone="no"?>
<!DOCTYPE svg PUBLIC "-//W3C//DTD SVG 1.1//EN" "http://www.w3.org/Graphics/SVG/1.1/DTD/svg11.dtd">
<svg xmlns="http://www.w3.org/2000/svg" xmlns:xl="http://www.w3.org/1999/xlink" version="1.1" xmlns:dc="http://purl.org/dc/elements/1.1/" viewBox="1564 1035 256 256" width="256" height="256">
  <defs/>
  <g id="Canvas_1" fill="none" stroke="none" stroke-opacity="1" stroke-dasharray="none" fill-opacity="1">
    <title>Canvas 1</title>
    <g id="Canvas_1_Layer_1">
      <title>Layer 1</title>
      <g id="Graphic_61">
        <path d="M 1692 1250.425 C 1598.965 1250.425 1577 1267.915 1577 1276 C 1577 1284.085 1588.4424 1291 1602.5556 1291 L 1781.4444 1291 C 1795.5576 1291 1807 1284.0587 1807 1276 C 1807 1267.9412 1785.035 1250.425 1692 1250.425 Z" fill="#5c913b"/>
      </g>
    </g>
    <g id="Canvas_1_Layer_2">
      <title>Layer 2</title>
      <g id="Group_3">
        <title>Canvas_1_Layer_2</title>
        <g id="Group_4">
          <title>Group_102</title>
          <g id="Group_5">
            <title>Group_103</title>
            <g id="Group_22">
              <title>Group_115</title>
              <g id="Group_35">
                <title>Group_124</title>
                <g id="Group_36">
                  <title>Graphic_125</title>
                  <g id="Graphic_37">
                    <path d="M 1670.6289 1142.7729 L 1644.9834 1142.7729 L 1615.0637 1181.2409 L 1657.8062 1181.2409 Z" fill="white"/>
                  </g>
                </g>
              </g>
              <g id="Group_32">
                <title>Group_122</title>
                <g id="Group_33">
                  <title>Graphic_123</title>
                  <g id="Graphic_34">
                    <path d="M 1768.9363 1181.2409 L 1739.0166 1142.7729 L 1713.3712 1142.7729 L 1726.194 1181.2409 Z" fill="white"/>
                  </g>
                </g>
              </g>
              <g id="Group_29">
                <title>Group_120</title>
                <g id="Group_30">
                  <title>Graphic_121</title>
                  <g id="Graphic_31">
                    <path d="M 1726.194 1181.2409 L 1768.9363 1181.2409 L 1692 1270.9998 Z" fill="white"/>
                  </g>
                </g>
              </g>
              <g id="Group_26">
                <title>Group_118</title>
                <g id="Group_27">
                  <title>Graphic_119</title>
                  <g id="Graphic_28">
                    <path d="M 1657.8062 1181.2409 L 1615.0637 1181.2409 L 1692 1270.9998 Z M 1670.6289 1142.7729 L 1657.8062 1181.2409 L 1726.194 1181.2409 L 1713.3712 1142.7729 Z" fill="white"/>
                  </g>
                </g>
              </g>
              <g id="Group_23">
                <title>Group_116</title>
                <g id="Group_24">
                  <title>Graphic_117</title>
                  <g id="Graphic_25">
                    <path d="M 1692 1270.9998 L 1657.8062 1181.2409 L 1726.194 1181.2409 Z" fill="white"/>
                  </g>
                </g>
              </g>
            </g>
            <g id="Group_6">
              <title>Group_104</title>
              <g id="Group_19">
                <title>Group_113</title>
                <g id="Group_20">
                  <title>Graphic_114</title>
                  <g id="Graphic_21">
                    <path d="M 1670.6289 1142.7729 L 1644.9834 1142.7729 L 1615.0637 1181.2409 L 1657.8062 1181.2409 Z" fill="#8ac5ff" fill-opacity=".25"/>
                  </g>
                </g>
              </g>
              <g id="Group_16">
                <title>Group_111</title>
                <g id="Group_17">
                  <title>Graphic_112</title>
                  <g id="Graphic_18">
                    <path d="M 1768.9363 1181.2409 L 1739.0166 1142.7729 L 1713.3712 1142.7729 L 1726.194 1181.2409 Z" fill="#8ac5ff" fill-opacity=".7"/>
                  </g>
                </g>
              </g>
              <g id="Group_13">
                <title>Group_109</title>
                <g id="Group_14">
                  <title>Graphic_110</title>
                  <g id="Graphic_15">
                    <path d="M 1726.194 1181.2409 L 1768.9363 1181.2409 L 1692 1270.9998 Z" fill="#8ac5ff" fill-opacity=".9"/>
                  </g>
                </g>
              </g>
              <g id="Group_10">
                <title>Group_107</title>
                <g id="Group_11">
                  <title>Graphic_108</title>
                  <g id="Graphic_12">
                    <path d="M 1657.8062 1181.2409 L 1615.0637 1181.2409 L 1692 1270.9998 Z M 1670.6289 1142.7729 L 1657.8062 1181.2409 L 1726.194 1181.2409 L 1713.3712 1142.7729 Z" fill="#8ac5ff" fill-opacity=".5"/>
                  </g>
                </g>
              </g>
              <g id="Group_7">
                <title>Group_105</title>
                <g id="Group_8">
                  <title>Graphic_106</title>
                  <g id="Graphic_9">
                    <path d="M 1692 1270.9998 L 1657.8062 1181.2409 L 1726.194 1181.2409 Z" fill="#8ac5ff" fill-opacity=".6"/>
                  </g>
                </g>
              </g>
            </g>
          </g>
        </g>
      </g>
    </g>
    <g id="Canvas_1_Layer_3">
      <title>Layer 3</title>
      <g id="Group_76">
        <g id="Graphic_75">
          <path d="M 1675.3333 1086.7681 C 1676.7083 1086.7681 1678.0333 1086.9796 1679.2817 1087.3722 C 1680.76 1083.0829 1684.77 1080 1689.5 1080 C 1694.5733 1080 1698.82 1083.5465 1699.9983 1088.3265 C 1701.255 1087.362 1702.8017 1086.7681 1704.5 1086.7681 C 1708.6417 1086.7681 1712 1090.1775 1712 1094.3822 C 1712 1095.4042 1711.795 1096.3754 1711.435 1097.2654 C 1712.15 1097.0641 1712.8883 1096.9203 1713.6667 1096.9203 C 1718.27 1096.9203 1722 1100.707 1722 1105.3804 C 1722 1110.0538 1718.27 1113.8405 1713.6667 1113.8405 L 1675.3333 1113.8405 C 1667.97 1113.8405 1662 1107.7814 1662 1100.3043 C 1662 1092.829 1667.97 1086.7681 1675.3333 1086.7681 Z" fill="#5dadec"/>
        </g>
        <g id="Graphic_74">
          <path d="M 1702.0017 1122.2347 L 1702.19 1116.4462 L 1706.9733 1119.3362 C 1708.0367 1119.92 1708.7433 1121.0689 1708.7 1122.3802 C 1708.6383 1124.2465 1707.09 1125.7236 1705.24 1125.6847 C 1703.3917 1125.6458 1701.94 1124.0993 1702.0017 1122.2347 Z M 1705.3 1134.8572 L 1705.4883 1129.0688 L 1710.2717 1131.9587 C 1711.335 1132.5425 1712.0417 1133.6914 1711.9983 1135.0027 C 1711.9367 1136.869 1710.3883 1138.3461 1708.5383 1138.3072 C 1706.6883 1138.2683 1705.2383 1136.7218 1705.3 1134.8572 Z M 1713.6333 1127.3107 L 1713.8217 1121.5223 L 1718.605 1124.4123 C 1719.6683 1124.996 1720.375 1126.145 1720.3317 1127.4563 C 1720.27 1129.3209 1718.7217 1130.798 1716.8717 1130.7608 C 1715.0217 1130.7219 1713.5717 1129.1754 1713.6333 1127.3107 Z M 1683.6333 1122.2347 L 1683.8217 1116.4462 L 1688.6033 1119.3362 C 1689.6683 1119.92 1690.3733 1121.0689 1690.33 1122.3802 C 1690.2683 1124.2465 1688.72 1125.7236 1686.87 1125.6847 C 1685.0217 1125.6458 1683.5717 1124.0993 1683.6333 1122.2347 Z M 1693.6683 1129.0028 L 1693.8567 1123.2143 L 1698.6383 1126.1043 C 1699.7033 1126.6881 1700.4083 1127.837 1700.365 1129.1483 C 1700.3033 1131.0146 1698.755 1132.4917 1696.905 1132.4528 C 1695.0567 1132.4139 1693.6067 1130.8674 1693.6683 1129.0028 Z M 1685.3 1136.5492 L 1685.49 1130.7608 L 1690.2717 1133.6508 C 1691.3367 1134.2345 1692.0417 1135.3834 1691.9983 1136.6947 C 1691.9367 1138.561 1690.3883 1140.0382 1688.5383 1139.9992 C 1686.6883 1139.9603 1685.2383 1138.4138 1685.3 1136.5492 Z M 1673.6683 1127.3107 L 1673.8567 1121.5223 L 1678.6383 1124.4123 C 1679.7033 1124.996 1680.4083 1126.145 1680.365 1127.4563 C 1680.3033 1129.3226 1678.755 1130.7997 1676.905 1130.7608 C 1675.0567 1130.7219 1673.6067 1129.1754 1673.6683 1127.3107 Z" fill="#5dadec"/>
        </g>
      </g>
    </g>
  </g>
</svg>
