<?xml version="1.0" encoding="UTF-8" standalone="no"?>
<!DOCTYPE svg PUBLIC "-//W3C//DTD SVG 1.1//EN" "http://www.w3.org/Graphics/SVG/1.1/DTD/svg11.dtd">
<svg version="1.1" xmlns="http://www.w3.org/2000/svg" xmlns:xl="http://www.w3.org/1999/xlink" xmlns:dc="http://purl.org/dc/elements/1.1/" viewBox="2609 2376 135 133" width="135" height="133">
  <defs/>
  <g id="Canvas_294" stroke-dasharray="none" fill="none" fill-opacity="1" stroke-opacity="1" stroke="none">
    <title>Canvas 294</title>
    <g id="Canvas_294_Layer_1">
      <title>Layer 1</title>
      <g id="Group_2">
        <g id="Graphic_18">
          <path d="M 2676.5 2468.2313 C 2621.8925 2468.2313 2609 2485.7213 2609 2493.8063 C 2609 2501.8913 2615.7162 2508.8063 2624 2508.8063 L 2729 2508.8063 C 2737.2838 2508.8063 2744 2501.865 2744 2493.8063 C 2744 2485.7475 2731.1075 2468.2313 2676.5 2468.2313 Z" fill="#78b159"/>
        </g>
        <g id="Graphic_17">
          <path d="M 2717.015 2479.3688 C 2717.015 2485.11 2712.3575 2487.1688 2706.6162 2487.1688 C 2700.875 2487.1688 2696.2175 2485.1138 2696.2175 2479.3688 L 2698.8162 2455.9725 C 2698.8162 2450.2312 2700.8712 2450.7712 2706.6162 2450.7712 C 2712.3575 2450.7712 2714.4162 2450.2275 2714.4162 2455.9725 L 2717.015 2479.3688 Z" fill="#662113"/>
        </g>
        <g id="Graphic_16">
          <path d="M 2739.755 2447.745 C 2722.5425 2432.2387 2715.5713 2410.035 2706.6162 2410.035 C 2697.6612 2410.035 2690.69 2432.2387 2673.4813 2447.745 C 2666.2475 2454.2625 2669.6938 2458.0312 2679.6088 2457.2775 C 2688.4475 2456.6062 2696.7125 2454.4987 2706.6162 2454.4987 C 2716.52 2454.4987 2724.7888 2456.61 2733.6238 2457.2775 C 2743.5388 2458.0312 2746.985 2454.2588 2739.755 2447.745 Z" fill="#5c913b"/>
        </g>
        <g id="Graphic_15">
          <path d="M 2734.1638 2441.5987 C 2720.9375 2428.845 2713.505 2410.575 2706.6162 2410.575 C 2699.7312 2410.575 2692.2988 2428.845 2679.0725 2441.5987 C 2668.5613 2451.735 2692.8462 2454.0075 2706.6162 2441.5987 C 2720.3825 2454.0075 2744.6712 2451.735 2734.1638 2441.5987 Z" fill="#3e721d"/>
        </g>
        <g id="Graphic_14">
          <path d="M 2734.1638 2431.2675 C 2720.9375 2419.35 2713.505 2402.2837 2706.6162 2402.2837 C 2699.7312 2402.2837 2692.2988 2419.35 2679.0725 2431.2675 C 2668.5613 2440.7362 2692.8462 2442.8587 2706.6162 2431.2675 C 2720.3825 2442.8587 2744.6712 2440.7325 2734.1638 2431.2675 Z" fill="#5c913b"/>
        </g>
        <g id="Graphic_13">
          <path d="M 2728.1225 2422.8038 C 2717.7988 2413.5 2711.9938 2400.1763 2706.6162 2400.1763 C 2701.2425 2400.1763 2695.4375 2413.5 2685.11 2422.8038 C 2676.905 2430.195 2695.8613 2431.8563 2706.6162 2422.8038 C 2717.3675 2431.8525 2736.3275 2430.195 2728.1225 2422.8038 Z" fill="#3e721d"/>
        </g>
        <g id="Graphic_12">
          <path d="M 2728.1225 2415.06 C 2717.7988 2405.7562 2711.9938 2392.4325 2706.6162 2392.4325 C 2701.2425 2392.4325 2695.4375 2405.7562 2685.11 2415.06 C 2676.905 2422.4512 2695.8613 2424.1125 2706.6162 2415.06 C 2717.3675 2424.1125 2736.3275 2422.455 2728.1225 2415.06 Z" fill="#5c913b"/>
        </g>
        <g id="Graphic_11">
          <path d="M 2723.9712 2408.1862 C 2715.6387 2400.6787 2710.955 2389.9275 2706.6162 2389.9275 C 2702.2775 2389.9275 2697.5937 2400.6787 2689.2612 2408.1862 C 2682.6387 2414.1525 2697.9387 2415.4912 2706.6162 2408.1862 C 2715.2938 2415.4912 2730.5975 2414.1525 2723.9712 2408.1862 Z" fill="#3e721d"/>
        </g>
        <g id="Graphic_10">
          <path d="M 2723.9712 2402.3587 C 2715.6387 2394.8512 2710.955 2384.1 2706.6162 2384.1 C 2702.2775 2384.1 2697.5937 2394.8512 2689.2612 2402.3587 C 2682.6387 2408.325 2697.9387 2409.6637 2706.6162 2402.3587 C 2715.2938 2409.6637 2730.5975 2408.325 2723.9712 2402.3587 Z" fill="#5c913b"/>
        </g>
        <g id="Graphic_9">
          <path d="M 2719.8237 2393.7788 C 2713.4862 2388.0675 2709.92 2379.885 2706.6162 2379.885 C 2703.3162 2379.885 2699.75 2388.0675 2693.4087 2393.7788 C 2688.3687 2398.32 2700.0125 2399.3362 2706.6162 2393.7788 C 2713.22 2399.34 2724.8637 2398.32 2719.8237 2393.7788 Z" fill="#3e721d"/>
        </g>
        <g id="Graphic_8">
          <path d="M 2719.8237 2389.8937 C 2713.4862 2384.1825 2709.92 2376 2706.6162 2376 C 2703.3162 2376 2699.75 2384.1825 2693.4087 2389.8937 C 2688.3687 2394.435 2700.0125 2395.4512 2706.6162 2389.8937 C 2713.22 2395.4512 2724.8637 2394.435 2719.8237 2389.8937 Z" fill="#5c913b"/>
        </g>
        <g id="Graphic_7">
          <path d="M 2665.6288 2497.5562 C 2664.0388 2497.5562 2662.6212 2496.555 2662.0888 2495.0588 L 2643.2938 2442.435 C 2642.8812 2441.2838 2643.0575 2440.08 2643.7625 2439.075 C 2644.4675 2438.0812 2645.615 2437.5562 2646.8375 2437.5562 L 2690.9338 2437.5562 C 2692.4375 2437.5562 2693.7988 2438.3812 2694.3912 2439.765 L 2716.9438 2492.3512 C 2717.4425 2493.5138 2717.3225 2494.83 2716.6288 2495.8838 C 2715.9238 2496.9413 2714.7462 2497.5562 2713.4825 2497.5562 L 2665.6288 2497.5562 Z" fill="#643"/>
        </g>
        <g id="Graphic_6">
          <path d="M 2624.2812 2497.5563 C 2623.0175 2497.5563 2621.8362 2496.9188 2621.1425 2495.8688 C 2620.4487 2494.8113 2620.3325 2493.4762 2620.8275 2492.3138 L 2643.395 2439.6563 C 2643.9837 2438.2763 2645.3487 2437.38 2646.8487 2437.38 C 2648.3525 2437.38 2649.7175 2438.28 2650.3062 2439.6563 L 2672.8737 2492.31 C 2673.3725 2493.4762 2673.2487 2494.8075 2672.555 2495.865 C 2671.8612 2496.9188 2670.68 2497.5563 2669.4162 2497.5563 Z" fill="#805540"/>
        </g>
        <g id="Graphic_5">
          <path d="M 2646.8375 2446.6913 L 2639.315 2497.5563 L 2654.3525 2497.5563 Z" fill="#292f33"/>
        </g>
        <g id="Graphic_4">
          <path d="M 2661.9763 2493.3825 L 2663.6563 2497.5562 L 2654.3525 2497.5562 Z M 2631.695 2493.3825 L 2630.015 2497.5562 L 2639.315 2497.5562 Z" fill="#f3ddab"/>
        </g>
        <g id="Graphic_3">
          <path d="M 2654.3525 2497.5562 C 2654.3525 2497.5562 2661.1888 2495.8125 2664.53 2492.7262 L 2646.8375 2446.6912 Z M 2639.315 2497.5562 C 2639.315 2497.5562 2632.4788 2495.8125 2629.1375 2492.7262 L 2646.8338 2446.6875 Z" fill="#f3ddab"/>
        </g>
      </g>
    </g>
  </g>
</svg>
