<?xml version="1.0" encoding="UTF-8" standalone="no"?>
<!DOCTYPE svg PUBLIC "-//W3C//DTD SVG 1.1//EN" "http://www.w3.org/Graphics/SVG/1.1/DTD/svg11.dtd">
<svg xmlns:xl="http://www.w3.org/1999/xlink" xmlns="http://www.w3.org/2000/svg" version="1.1" xmlns:dc="http://purl.org/dc/elements/1.1/" viewBox="2609 2376 256 256" width="256" height="256">
  <defs/>
  <g id="Canvas_1" fill-opacity="1" stroke-dasharray="none" stroke-opacity="1" stroke="none" fill="none">
    <title>Canvas 1</title>
    <g id="Canvas_1_Layer_1">
      <title>Layer 1</title>
      <g id="Group_53">
        <g id="Graphic_48">
          <path d="M 2737 2591.425 C 2643.965 2591.425 2622 2608.915 2622 2617 C 2622 2625.085 2633.4424 2632 2647.5556 2632 L 2826.4444 2632 C 2840.5576 2632 2852 2625.0587 2852 2617 C 2852 2608.9412 2830.035 2591.425 2737 2591.425 Z" fill="#5c913b"/>
        </g>
        <g id="Graphic_50">
          <path d="M 2799.8 2587.9605 C 2799.8 2595.939 2794.0665 2598.8 2786.9988 2598.8 C 2779.9313 2598.8 2774.1977 2595.9442 2774.1977 2587.9605 L 2777.3968 2555.4473 C 2777.3968 2547.4687 2779.9266 2548.2192 2786.9988 2548.2192 C 2794.0665 2548.2192 2796.601 2547.4636 2796.601 2555.4473 Z" fill="#643"/>
        </g>
        <g id="Graphic_32">
          <path d="M 2840.0616 2540.8798 C 2812.5006 2516.0507 2801.338 2480.4976 2786.999 2480.4976 C 2772.66 2480.4976 2761.4976 2516.0507 2733.9426 2540.8798 C 2722.3597 2551.3157 2727.878 2557.3503 2743.754 2556.1434 C 2757.907 2555.0685 2771.141 2551.694 2786.999 2551.694 C 2802.8572 2551.694 2816.0974 2555.0746 2830.2442 2556.1434 C 2846.1204 2557.3503 2851.6385 2551.3098 2840.0616 2540.8798 Z" fill="#5c913b"/>
        </g>
        <g id="Graphic_30">
          <path d="M 2831.109 2531.0382 C 2809.9306 2510.6166 2798.0295 2481.3623 2786.999 2481.3623 C 2775.9746 2481.3623 2764.0737 2510.6166 2742.8954 2531.0382 C 2726.0646 2547.2686 2764.9502 2550.9074 2786.999 2531.0382 C 2809.042 2550.9074 2847.9336 2547.2686 2831.109 2531.0382 Z" fill="#3e721d"/>
        </g>
        <g id="Graphic_28">
          <path d="M 2831.109 2514.4956 C 2809.9306 2495.413 2798.0295 2468.086 2786.999 2468.086 C 2775.9746 2468.086 2764.0737 2495.413 2742.8954 2514.4956 C 2726.0646 2529.657 2764.9502 2533.0557 2786.999 2514.4956 C 2809.042 2533.0557 2847.9336 2529.6512 2831.109 2514.4956 Z" fill="#5c913b"/>
        </g>
        <g id="Graphic_26">
          <path d="M 2821.4354 2500.9433 C 2804.905 2486.046 2795.6098 2464.7117 2786.999 2464.7117 C 2778.3945 2464.7117 2769.0994 2486.046 2752.5628 2500.9433 C 2739.4248 2512.7783 2769.778 2515.4384 2786.999 2500.9433 C 2804.2143 2515.4323 2834.5735 2512.7783 2821.4354 2500.9433 Z" fill="#3e721d"/>
        </g>
        <g id="Graphic_24">
          <path d="M 2821.4354 2488.5438 C 2804.905 2473.6463 2795.6098 2452.312 2786.999 2452.312 C 2778.3945 2452.312 2769.0994 2473.6463 2752.5628 2488.5438 C 2739.4248 2500.3787 2769.778 2503.039 2786.999 2488.5438 C 2804.2143 2503.039 2834.5735 2500.3848 2821.4354 2488.5438 Z" fill="#5c913b"/>
        </g>
        <g id="Graphic_22">
          <path d="M 2814.7883 2477.5373 C 2801.446 2465.516 2793.9464 2448.301 2786.999 2448.301 C 2780.0518 2448.301 2772.552 2465.516 2759.2098 2477.5373 C 2748.6057 2487.0907 2773.1044 2489.2342 2786.999 2477.5373 C 2800.8938 2489.2342 2825.3984 2487.0907 2814.7883 2477.5373 Z" fill="#3e721d"/>
        </g>
        <g id="Graphic_20">
          <path d="M 2814.7883 2468.2062 C 2801.446 2456.185 2793.9464 2438.97 2786.999 2438.97 C 2780.0518 2438.97 2772.552 2456.185 2759.2098 2468.2062 C 2748.6057 2477.7595 2773.1044 2479.903 2786.999 2468.2062 C 2800.8938 2479.903 2825.3984 2477.7595 2814.7883 2468.2062 Z" fill="#5c913b"/>
        </g>
        <g id="Graphic_18">
          <path d="M 2808.1472 2454.4678 C 2797.9994 2445.3228 2792.289 2432.2208 2786.999 2432.2208 C 2781.715 2432.2208 2776.0047 2445.3228 2765.851 2454.4678 C 2757.7807 2461.7393 2776.425 2463.3665 2786.999 2454.4678 C 2797.5732 2463.3726 2816.2173 2461.7393 2808.1472 2454.4678 Z" fill="#3e721d"/>
        </g>
        <g id="Graphic_16">
          <path d="M 2808.1472 2448.247 C 2797.9994 2439.102 2792.289 2426 2786.999 2426 C 2781.715 2426 2776.0047 2439.102 2765.851 2448.247 C 2757.7807 2455.5186 2776.425 2457.1457 2786.999 2448.247 C 2797.5732 2457.1457 2816.2173 2455.5186 2808.1472 2448.247 Z" fill="#5c913b"/>
        </g>
      </g>
    </g>
    <g id="Canvas_1_Layer_2">
      <title>Layer 2</title>
      <g id="Group_40">
        <g id="Graphic_45">
          <path d="M 2730.0714 2611.9375 C 2726.6863 2611.9375 2723.6696 2609.8073 2722.5297 2606.618 L 2682.5004 2494.5386 C 2681.6254 2492.086 2681.9996 2489.5185 2683.4965 2487.3884 C 2684.999 2485.264 2687.2467 2483.773 2689.849 2483.773 L 2783.9578 2484.147 C 2787.1645 2484.147 2790.0546 2485.903 2791.321 2488.8507 L 2839.3527 2600.855 C 2840.412 2603.3307 2840.1587 2606.1343 2838.6848 2608.3797 C 2837.1938 2610.625 2834.678 2611.9375 2831.9894 2611.9375 Z" fill="#f3ddab"/>
        </g>
        <g id="Graphic_44">
          <path d="M 2642.005 2611.9375 C 2639.3164 2611.9375 2636.8006 2610.5788 2635.3153 2608.3392 C 2633.8414 2606.0883 2633.588 2603.2443 2634.6474 2600.7686 L 2682.7076 2488.626 C 2683.9627 2485.69 2686.8642 2483.773 2690.0653 2483.773 C 2693.272 2483.773 2696.1736 2485.69 2697.4287 2488.626 L 2745.4888 2600.7686 C 2746.5482 2603.25 2746.289 2606.0883 2744.8154 2608.3392 C 2743.3415 2610.5788 2740.8255 2611.9375 2738.1314 2611.9375 Z" fill="#fff0ce"/>
        </g>
        <g id="Graphic_43">
          <path d="M 2690.0425 2503.6628 L 2672.6787 2612 L 2707.4 2612 Z" fill="black"/>
        </g>
        <g id="Graphic_42">
          <path d="M 2722.2878 2603.111 L 2725.863 2612 L 2706.0527 2612 Z M 2657.791 2603.111 L 2654.2158 2612 L 2674.026 2612 Z" fill="#f50"/>
        </g>
        <g id="Graphic_41">
          <path d="M 2706.0527 2612 C 2706.0527 2612 2720.6125 2608.2868 2727.734 2601.7177 L 2690.0423 2503.6628 Z M 2674.026 2612 C 2674.026 2612 2659.4662 2608.2868 2652.3448 2601.7177 L 2690.0307 2503.6686 Z" fill="#f50"/>
        </g>
      </g>
    </g>
  </g>
</svg>
