<?xml version="1.0" encoding="UTF-8" standalone="no"?>
<!DOCTYPE svg PUBLIC "-//W3C//DTD SVG 1.1//EN" "http://www.w3.org/Graphics/SVG/1.1/DTD/svg11.dtd">
<svg xmlns:xl="http://www.w3.org/1999/xlink" xmlns="http://www.w3.org/2000/svg" version="1.1" xmlns:dc="http://purl.org/dc/elements/1.1/" viewBox="1660 708 256 256" width="256" height="256">
  <defs/>
  <g id="Canvas_1" fill-opacity="1" stroke-dasharray="none" stroke-opacity="1" stroke="none" fill="none">
    <title>Canvas 1</title>
    <g id="Canvas_1_Layer_1">
      <title>Layer 1</title>
      <g id="Graphic_62">
        <path d="M 1788 923.425 C 1694.965 923.425 1673 940.915 1673 949 C 1673 957.085 1684.4424 964 1698.5556 964 L 1877.4444 964 C 1891.5576 964 1903 957.0587 1903 949 C 1903 940.9412 1881.035 923.425 1788 923.425 Z" fill="#5c913b"/>
      </g>
      <g id="Group_41">
        <title>Stone_Blue_Far_2_Layer_4</title>
        <g id="Graphic_51">
          <path d="M 1763.6836 820.1295 C 1763.6836 820.1295 1779.8945 815.7729 1783.9472 815.7729 C 1788 815.7729 1804.2109 820.1295 1804.2109 820.1295 C 1804.2109 820.1295 1820.4218 837.5481 1824.4745 837.5481 C 1824.4745 837.5481 1832.58 837.5481 1840.6853 846.2573 C 1848.7909 854.9666 1848.7909 872.3854 1848.7909 872.3854 C 1848.7909 872.3854 1856.8963 889.8039 1856.8963 898.5132 C 1856.8963 907.2225 1852.8436 915.9318 1848.7909 920.2885 C 1844.738 924.6451 1828.5272 928.9978 1828.5272 928.9978 C 1828.5272 928.9978 1824.4745 937.7071 1816.369 942.0637 C 1792.0526 946.4204 1775.8418 942.0637 1775.8418 942.0637 L 1767.7364 933.3545 C 1767.7364 933.3545 1739.3674 928.9978 1735.3145 928.9978 C 1731.2618 928.9978 1719.1037 911.5792 1719.1037 907.2225 C 1719.1037 902.8658 1719.1037 889.8039 1723.1564 876.7379 C 1731.2618 863.6719 1735.3145 859.3194 1735.3145 859.3194 C 1735.3145 859.3194 1731.2618 850.6141 1735.3145 841.9048 C 1743.42 833.1955 1759.6309 828.8388 1759.6309 828.8388 Z" fill="#805800"/>
        </g>
        <g id="Graphic_50">
          <path d="M 1765.341 821.479 C 1765.341 821.479 1780.0648 817.3412 1783.8784 817.3412 C 1787.692 817.3412 1804.1015 821.9978 1804.1015 821.9978 C 1804.1015 821.9978 1818.5858 838.2978 1822.3995 838.2978 C 1822.3995 838.2978 1830.659 838.1155 1838.2902 846.3182 C 1845.9215 854.5209 1845.2123 869.0823 1845.2123 869.0823 C 1845.2123 869.0823 1852.8436 885.4797 1852.8436 893.6783 C 1852.8436 901.877 1849.03 910.0797 1845.2163 914.181 C 1841.4028 918.2824 1826.1442 922.3797 1826.1442 922.3797 C 1826.1442 922.3797 1822.3306 930.5784 1814.6992 934.6797 C 1791.8136 938.7811 1776.5551 934.6797 1776.5551 934.6797 L 1768.9278 926.481 C 1768.9278 926.481 1742.2284 922.3797 1738.4149 922.3797 C 1734.6012 922.3797 1723.1564 905.9783 1723.1564 901.877 C 1723.1564 897.7756 1723.1564 885.4756 1726.97 873.1756 C 1734.6012 860.8756 1738.4149 856.7783 1738.4149 856.7783 C 1738.4149 856.7783 1733.6003 850.1196 1737.414 841.9169 C 1745.0411 833.7183 1761.248 829.4994 1761.248 829.4994 Z" fill="#ffb000" fill-opacity=".7"/>
        </g>
        <g id="Graphic_49">
          <path d="M 1766.8083 824.8104 C 1766.8083 824.8104 1780.5795 821.1954 1784.1458 821.1954 C 1787.7122 821.1954 1803.06 825.2603 1803.06 825.2603 C 1803.06 825.2603 1816.604 839.4894 1820.1705 839.4894 C 1820.1705 839.4894 1827.895 839.3314 1835.0318 846.4884 C 1842.1646 853.6455 1841.508 866.3589 1841.508 866.3589 C 1841.508 866.3589 1842.6225 883.5628 1845.5122 884.0815 C 1852.8476 885.3945 1846.189 899.1292 1842.6225 902.7077 C 1839.0562 906.2863 1814.213 907.8831 1814.213 907.8831 C 1814.213 907.8831 1815.0884 919.0484 1807.9516 922.631 C 1786.5491 926.2095 1777.2926 923.6279 1777.2926 923.6279 L 1770.16 916.4707 C 1770.16 916.4707 1752.7737 899.8668 1749.2074 899.8668 C 1745.6409 899.8668 1727.351 898.5741 1727.351 894.9955 C 1727.351 891.4169 1727.351 880.6772 1730.9174 869.9415 C 1738.05 859.2058 1741.6207 855.6232 1741.6207 855.6232 C 1741.6207 855.6232 1737.118 849.8076 1740.6844 842.6505 C 1747.817 835.4934 1762.9744 831.8095 1762.9744 831.8095 Z" fill="#e69f00"/>
        </g>
        <g id="Graphic_48">
          <path d="M 1740.5425 854.3345 L 1756.6765 861.8361 L 1748.2468 867.7855 L 1730.9255 869.9415 Z" fill="#ffb000" fill-opacity=".7"/>
        </g>
        <g id="Graphic_47">
          <path d="M 1721.5233 892.3652 C 1721.5233 892.3652 1726.0986 907.6278 1727.3023 909.4393 C 1728.506 911.251 1743.9144 909.958 1745.8395 909.958 C 1747.7645 909.958 1757.1546 914.8741 1757.1546 914.8741 C 1757.1546 914.8741 1744.636 918.2378 1740.3035 917.7191 C 1735.9711 917.2003 1724.7087 915.1781 1723.6915 912.2844 C 1722.6742 909.3908 1721.5233 892.3652 1721.5233 892.3652 Z" fill="#ffb000" fill-opacity=".6"/>
        </g>
        <g id="Graphic_46">
          <path d="M 1744.636 842.1763 C 1746.6217 841.5482 1760.2833 835.7082 1763.1729 835.9676 C 1766.0625 836.2269 1778.3423 843.2097 1775.4528 845.5401 C 1772.5631 847.8704 1756.6724 846.0588 1752.1009 846.0588 C 1747.5295 846.0588 1740.5425 843.4691 1744.636 842.1763 Z M 1735.0065 873.4796 C 1736.2345 871.1655 1752.5832 870.3751 1752.5832 870.3751 C 1752.5832 870.3751 1773.7709 878.9143 1773.7709 880.2071 C 1773.7709 881.4998 1754.5123 890.2983 1752.5832 890.5537 C 1750.6542 890.809 1734.042 875.2911 1735.0065 873.4796 Z M 1782.4356 889.2609 C 1782.0545 887.2142 1790.622 874.7724 1792.308 873.7389 C 1793.994 872.7055 1816.6244 866.7521 1820.4745 866.7521 C 1824.3245 866.7521 1836.6043 875.8058 1836.8475 877.6173 C 1837.0865 879.4289 1826.0145 891.8465 1823.1249 892.8799 C 1820.2352 893.9175 1783.157 893.1394 1782.4356 889.2609 Z M 1804.1055 855.1085 C 1803.1936 857.2849 1825.7755 860.2838 1828.1828 859.2464 C 1830.59 858.2129 1834.9224 851.2261 1834.201 849.4144 C 1833.4797 847.6029 1826.4967 842.4276 1822.8858 842.9463 C 1819.2708 843.4691 1806.2697 849.9372 1804.1055 855.1085 Z M 1786.2898 823.2907 C 1788.308 823.7243 1801.6982 826.9137 1803.384 829.4994 C 1805.07 832.085 1795.4408 840.1054 1792.7903 840.3648 C 1790.1438 840.6241 1772.0849 829.4994 1770.16 828.2065 C 1768.2349 826.9137 1782.6746 822.5125 1786.2898 823.2907 Z" fill="#ffb000" fill-opacity=".8"/>
        </g>
        <g id="Graphic_45">
          <path d="M 1767.9917 930.3919 C 1766.3057 927.8063 1768.9562 919.2672 1770.399 920.3006 C 1771.8418 921.334 1776.1782 924.4385 1776.4174 927.0282 C 1776.6564 929.6138 1780.9927 934.5298 1784.1216 936.0819 C 1787.2502 937.6342 1804.3446 937.6342 1807.2343 936.6008 C 1810.1238 935.5672 1816.8635 929.8732 1818.5493 926.5095 C 1820.2352 923.1457 1822.1806 922.8984 1826.1442 922.3757 C 1830.1077 921.8529 1833.9336 925.7962 1828.5272 928.9978 C 1823.1249 932.1995 1817.3457 937.8935 1810.606 939.1863 C 1803.8664 940.4791 1781.9573 941.5166 1778.1032 939.9644 C 1774.2491 938.4123 1767.9917 930.3919 1767.9917 930.3919 Z" fill="#ffb000" fill-opacity=".6"/>
        </g>
        <g id="Graphic_44">
          <path d="M 1796.916 911.7089 C 1794.8856 910.6186 1794.1277 901.5974 1795.1734 900.8476 C 1796.2189 900.0978 1805.9778 901.5974 1808.2434 901.9702 C 1810.5087 902.343 1824.276 901.2204 1825.67 902.7199 C 1827.0642 904.2195 1830.424 909.7149 1831.595 913.0179 C 1832.7664 916.3249 1825.1472 915.8264 1822.1846 915.0766 C 1819.2222 914.3269 1799.7043 913.2084 1796.916 911.7089 Z M 1766.0625 852.0042 C 1768.709 852.0042 1779.7851 851.7448 1782.1924 852.0042 C 1784.5997 852.2636 1792.304 859.5057 1788.693 860.2838 C 1785.082 861.0619 1775.4528 863.6476 1774.006 863.907 C 1772.5591 864.1664 1767.2663 859.2504 1765.5804 857.9576 C 1763.8984 856.6608 1763.1771 852.0042 1766.0625 852.0042 Z M 1796.4012 844.7619 C 1797.7386 842.6099 1802.9018 841.9169 1803.141 844.2432 C 1803.38 846.5735 1801.9372 851.7448 1799.0477 851.4855 C 1796.158 851.2301 1794.4722 847.8663 1796.4012 844.7619 Z M 1782.4356 899.348 C 1784.8389 899.0603 1789.4184 898.5699 1789.4184 900.6409 C 1789.4184 902.7118 1786.5289 903.4859 1783.157 903.2265 C 1779.789 902.9712 1780.2673 899.6075 1782.4356 899.348 Z" fill="#ffb000" fill-opacity=".7"/>
        </g>
        <g id="Graphic_43">
          <path d="M 1773.0453 870.6345 C 1775.1488 868.827 1782.4356 868.5636 1784.1216 869.3417 C 1785.8075 870.1198 1782.1965 875.5505 1780.0283 875.8098 C 1777.86 876.0652 1770.638 872.7013 1773.0453 870.6345 Z" fill="#ffb000" fill-opacity=".95"/>
        </g>
        <g id="Graphic_42">
          <path d="M 1821.1958 910.2135 C 1823.5991 909.569 1829.3823 908.9207 1829.139 910.7322 C 1828.9 912.5437 1826.4928 915.9075 1824.5636 915.6482 C 1822.6345 915.3888 1819.2708 910.7322 1821.1958 910.2135 Z M 1805.5483 928.325 C 1808.2069 927.8832 1812.288 925.7393 1812.0489 928.325 C 1811.8097 930.9106 1808.9202 934.2744 1805.7873 933.7597 C 1802.6586 933.241 1802.4196 928.8397 1805.5483 928.325 Z" fill="#ffb000" fill-opacity=".6"/>
        </g>
      </g>
    </g>
  </g>
</svg>
