<?xml version="1.0" encoding="UTF-8" standalone="no"?>
<!DOCTYPE svg PUBLIC "-//W3C//DTD SVG 1.1//EN" "http://www.w3.org/Graphics/SVG/1.1/DTD/svg11.dtd">
<svg version="1.1" xmlns="http://www.w3.org/2000/svg" xmlns:xl="http://www.w3.org/1999/xlink" xmlns:dc="http://purl.org/dc/elements/1.1/" viewBox="1660 708 135 126" width="135" height="126">
  <defs/>
  <g id="Stone_Gold" stroke-dasharray="none" fill="none" fill-opacity="1" stroke-opacity="1" stroke="none">
    <title>Stone Gold</title>
    <g id="Stone_Gold_Layer_3">
      <title>Layer 3</title>
      <g id="Group_13">
        <g id="Graphic_23">
          <path d="M 1703.6765 712.2684 C 1703.6765 712.2684 1719.5588 708 1723.5294 708 C 1727.5 708 1743.3824 712.2684 1743.3824 712.2684 C 1743.3824 712.2684 1759.2647 729.334 1763.2353 729.334 C 1763.2353 729.334 1771.1765 729.334 1779.1176 737.8668 C 1787.0588 746.3996 1787.0588 763.46515 1787.0588 763.46515 C 1787.0588 763.46515 1795 780.5307 1795 789.0635 C 1795 797.5963 1791.0294 806.1291 1787.0588 810.3975 C 1783.0882 814.6659 1767.2059 818.9303 1767.2059 818.9303 C 1767.2059 818.9303 1763.2353 827.4631 1755.2941 831.7315 C 1731.4706 835.9999 1715.5882 831.7315 1715.5882 831.7315 L 1707.647 823.1987 C 1707.647 823.1987 1679.853 818.9303 1675.8824 818.9303 C 1671.9118 818.9303 1660 801.8647 1660 797.5963 C 1660 793.3279 1660 780.5307 1663.9706 767.7296 C 1671.9118 754.9284 1675.8824 750.664 1675.8824 750.664 C 1675.8824 750.664 1671.9118 742.13515 1675.8824 733.60235 C 1683.8235 725.0696 1699.7059 720.8012 1699.7059 720.8012 L 1703.6765 712.2684 Z" fill="#805800"/>
        </g>
        <g id="Graphic_22">
          <path d="M 1705.3004 713.5906 C 1705.3004 713.5906 1719.7256 709.5366 1723.462 709.5366 C 1727.1982 709.5366 1743.2751 714.0988 1743.2751 714.0988 C 1743.2751 714.0988 1757.466 730.0685 1761.2024 730.0685 C 1761.2024 730.0685 1769.2944 729.88985 1776.771 737.9263 C 1784.2476 745.9628 1783.5528 760.2291 1783.5528 760.2291 C 1783.5528 760.2291 1791.0294 776.2941 1791.0294 784.3266 C 1791.0294 792.3591 1787.293 800.3956 1783.5568 804.4138 C 1779.8204 808.4321 1764.8712 812.4463 1764.8712 812.4463 C 1764.8712 812.4463 1761.1349 820.4788 1753.6582 824.4971 C 1731.2363 828.5153 1716.287 824.4971 1716.287 824.4971 L 1708.8144 816.4646 C 1708.8144 816.4646 1682.6562 812.4463 1678.9199 812.4463 C 1675.1835 812.4463 1663.9706 796.3774 1663.9706 792.3591 C 1663.9706 788.3409 1663.9706 776.29015 1667.707 764.2394 C 1675.1835 752.1887 1678.9199 748.1744 1678.9199 748.1744 C 1678.9199 748.1744 1674.2028 741.6507 1677.9391 733.6143 C 1685.4118 725.5818 1701.2901 721.4484 1701.2901 721.4484 Z" fill="#ffb000" fill-opacity=".7"/>
        </g>
        <g id="Graphic_21">
          <path d="M 1706.7378 716.8544 C 1706.7378 716.8544 1720.2299 713.31265 1723.724 713.31265 C 1727.218 713.31265 1742.2547 717.29515 1742.2547 717.29515 C 1742.2547 717.29515 1755.5244 731.2359 1759.0185 731.2359 C 1759.0185 731.2359 1766.5865 731.081 1773.5787 738.0931 C 1780.567 745.10515 1779.9237 757.5609 1779.9237 757.5609 C 1779.9237 757.5609 1781.0156 774.416 1783.8466 774.9243 C 1791.0334 776.2107 1784.5097 789.6671 1781.0156 793.1731 C 1777.5215 796.6791 1753.1818 798.2435 1753.1818 798.2435 C 1753.1818 798.2435 1754.0394 809.1825 1747.0472 812.6925 C 1726.0785 816.1985 1717.0097 813.6693 1717.0097 813.6693 L 1710.0215 806.6572 C 1710.0215 806.6572 1692.9876 790.3897 1689.4935 790.3897 C 1685.9994 790.3897 1668.0801 789.1231 1668.0801 785.6171 C 1668.0801 782.111 1668.0801 771.589 1671.5743 761.0709 C 1678.5625 750.5528 1682.0606 747.0428 1682.0606 747.0428 C 1682.0606 747.0428 1677.6493 741.345 1681.1434 734.3329 C 1688.1316 727.3209 1702.9816 723.7116 1702.9816 723.7116 L 1706.7378 716.8544 Z" fill="#e69f00"/>
        </g>
        <g id="Graphic_20">
          <path d="M 1681.0044 745.78015 L 1696.8113 753.1297 L 1688.5525 758.9585 L 1671.5822 761.0709 Z" fill="#ffb000" fill-opacity=".7"/>
        </g>
        <g id="Graphic_19">
          <path d="M 1662.3704 783.04015 C 1662.3704 783.04015 1666.8532 797.9934 1668.0325 799.7682 C 1669.2118 801.5431 1684.308 800.2765 1686.194 800.2765 C 1688.08 800.2765 1697.2799 805.0928 1697.2799 805.0928 C 1697.2799 805.0928 1685.0147 808.3884 1680.7701 807.8801 C 1676.5256 807.3719 1665.4913 805.3906 1664.4947 802.5556 C 1663.498 799.7206 1662.3704 783.04015 1662.3704 783.04015 Z" fill="#ffb000" fill-opacity=".6"/>
        </g>
        <g id="Graphic_18">
          <path d="M 1685.0147 733.8684 C 1686.9603 733.2529 1700.3451 727.5313 1703.1762 727.7854 C 1706.0072 728.0396 1718.038 734.8809 1715.207 737.164 C 1712.376 739.4471 1696.8074 737.6722 1692.3285 737.6722 C 1687.8497 737.6722 1681.0044 735.135 1685.0147 733.8684 Z M 1675.5806 764.5372 C 1676.7837 762.27 1692.801 761.4957 1692.801 761.4957 C 1692.801 761.4957 1713.5593 769.8618 1713.5593 771.1284 C 1713.5593 772.395 1694.691 781.01515 1692.801 781.2653 C 1690.911 781.5154 1674.6356 766.3121 1675.5806 764.5372 Z M 1722.0484 779.9987 C 1721.6751 777.9935 1730.069 765.8038 1731.7207 764.7913 C 1733.3725 763.7788 1755.5443 757.946 1759.3163 757.946 C 1763.0884 757.946 1775.1193 766.8163 1775.3575 768.5912 C 1775.5918 770.366 1764.7441 782.5319 1761.913 783.5444 C 1759.082 784.5609 1722.7551 783.7985 1722.0484 779.9987 Z M 1743.2791 746.5385 C 1742.3857 748.6707 1764.5099 751.609 1766.8684 750.5925 C 1769.227 749.58 1773.4715 742.7347 1772.7647 740.95985 C 1772.058 739.185 1765.2166 734.1146 1761.6788 734.6228 C 1758.137 735.135 1745.3994 741.4721 1743.2791 746.5385 Z M 1725.8244 715.3654 C 1727.8018 715.7903 1740.9206 718.91515 1742.5724 721.4484 C 1744.2241 723.9816 1734.79 731.8394 1732.1932 732.0935 C 1729.6004 732.34765 1711.9075 721.4484 1710.0215 720.1818 C 1708.1354 718.91515 1722.2826 714.6031 1725.8244 715.3654 Z" fill="#ffb000" fill-opacity=".8"/>
        </g>
        <g id="Graphic_17">
          <path d="M 1707.8972 820.2962 C 1706.2454 817.7629 1708.8422 809.3969 1710.2557 810.4094 C 1711.6693 811.4219 1715.9178 814.4634 1716.152 817.0006 C 1716.3863 819.5338 1720.6349 824.3501 1723.7001 825.8709 C 1726.7654 827.3916 1743.5134 827.3916 1746.3444 826.3791 C 1749.1754 825.3666 1755.7785 819.7879 1757.4303 816.4924 C 1759.082 813.1968 1760.988 812.9546 1764.8712 812.4424 C 1768.7544 811.9301 1772.5026 815.7935 1767.2059 818.9303 C 1761.913 822.0671 1756.251 827.6457 1749.648 828.9124 C 1743.0449 830.179 1721.5799 831.1954 1717.8038 829.6747 C 1714.0278 828.154 1707.8972 820.2962 1707.8972 820.2962 Z" fill="#ffb000" fill-opacity=".6"/>
        </g>
        <g id="Graphic_16">
          <path d="M 1736.2353 801.9918 C 1734.246 800.9237 1733.5035 792.0851 1734.528 791.3506 C 1735.5524 790.616 1745.1135 792.0851 1747.333 792.4504 C 1749.5526 792.8157 1763.0407 791.7159 1764.4066 793.185 C 1765.7725 794.6541 1769.0641 800.0382 1770.2116 803.2743 C 1771.3591 806.5143 1763.8944 806.0259 1760.992 805.2913 C 1758.0894 804.5568 1738.967 803.4609 1736.2353 801.9918 Z M 1706.0072 743.4971 C 1708.6 743.4971 1719.4516 743.2429 1721.8101 743.4971 C 1724.1687 743.7512 1731.7168 750.8466 1728.179 751.609 C 1724.6412 752.3713 1715.207 754.9046 1713.7896 755.1587 C 1712.372 755.4128 1707.1865 750.5965 1705.5347 749.32985 C 1703.887 748.0593 1703.1801 743.4971 1706.0072 743.4971 Z M 1735.731 736.4016 C 1737.0413 734.2932 1742.0999 733.6143 1742.3341 735.8934 C 1742.5684 738.1765 1741.1549 743.2429 1738.3238 742.9888 C 1735.4928 742.7387 1733.841 739.4431 1735.731 736.4016 Z M 1722.0484 789.8815 C 1724.403 789.5996 1728.8897 789.1191 1728.8897 791.1481 C 1728.8897 793.1771 1726.0587 793.9354 1722.7551 793.6813 C 1719.4556 793.4312 1719.9241 790.1356 1722.0484 789.8815 Z" fill="#ffb000" fill-opacity=".7"/>
        </g>
        <g id="Graphic_15">
          <path d="M 1712.8485 761.74985 C 1714.9093 759.979 1722.0484 759.7209 1723.7001 760.4832 C 1725.352 761.2456 1721.8141 766.5662 1719.6899 766.8203 C 1717.5656 767.0704 1710.49 763.77485 1712.8485 761.74985 Z" fill="#ffb000" fill-opacity=".95"/>
        </g>
        <g id="Graphic_14">
          <path d="M 1760.023 800.5266 C 1762.3776 799.8953 1768.0437 799.26 1767.8054 801.0349 C 1767.5712 802.8097 1765.2126 806.1053 1763.3226 805.8512 C 1761.4326 805.5971 1758.137 801.0349 1760.023 800.5266 Z M 1744.6926 818.2712 C 1747.2974 817.8384 1751.2957 815.7379 1751.0615 818.2712 C 1750.8272 820.8044 1747.9962 824.1 1744.927 823.5957 C 1741.8616 823.0875 1741.6274 818.7754 1744.6926 818.2712 Z" fill="#ffb000" fill-opacity=".6"/>
        </g>
      </g>
    </g>
  </g>
</svg>
