<?xml version="1.0" encoding="UTF-8" standalone="no"?>
<!DOCTYPE svg PUBLIC "-//W3C//DTD SVG 1.1//EN" "http://www.w3.org/Graphics/SVG/1.1/DTD/svg11.dtd">
<svg xmlns="http://www.w3.org/2000/svg" version="1.1" xmlns:dc="http://purl.org/dc/elements/1.1/" xmlns:xl="http://www.w3.org/1999/xlink" viewBox="1564 1035 256 256" width="256" height="256">
  <defs/>
  <g id="Canvas_1" fill="none" fill-opacity="1" stroke-dasharray="none" stroke="none" stroke-opacity="1">
    <title>Canvas 1</title>
    <g id="Canvas_1_Layer_1">
      <title>Layer 1</title>
      <g id="Graphic_78">
        <path d="M 1692 1250.425 C 1598.965 1250.425 1577 1267.915 1577 1276 C 1577 1284.085 1588.4424 1291 1602.5556 1291 L 1781.4444 1291 C 1795.5576 1291 1807 1284.0587 1807 1276 C 1807 1267.9412 1785.035 1250.425 1692 1250.425 Z" fill="#5c913b"/>
      </g>
    </g>
    <g id="Canvas_1_Layer_2">
      <title>Layer 2</title>
      <g id="Group_3">
        <title>Stone_Blue_Far_2_Layer_4</title>
        <g id="Graphic_24">
          <path d="M 1667.6836 1147.1295 C 1667.6836 1147.1295 1683.8945 1142.7729 1687.9472 1142.7729 C 1692 1142.7729 1708.2109 1147.1295 1708.2109 1147.1295 C 1708.2109 1147.1295 1724.4218 1164.548 1728.4745 1164.548 C 1728.4745 1164.548 1736.58 1164.548 1744.6853 1173.2573 C 1752.7909 1181.9666 1752.7909 1199.3854 1752.7909 1199.3854 C 1752.7909 1199.3854 1760.8963 1216.804 1760.8963 1225.5132 C 1760.8963 1234.2225 1756.8436 1242.9318 1752.7909 1247.2885 C 1748.738 1251.6451 1732.5272 1255.9978 1732.5272 1255.9978 C 1732.5272 1255.9978 1728.4745 1264.7071 1720.369 1269.0637 C 1696.0526 1273.4204 1679.8418 1269.0637 1679.8418 1269.0637 L 1671.7364 1260.3545 C 1671.7364 1260.3545 1643.3674 1255.9978 1639.3145 1255.9978 C 1635.2618 1255.9978 1623.1037 1238.5792 1623.1037 1234.2225 C 1623.1037 1229.8658 1623.1037 1216.804 1627.1564 1203.738 C 1635.2618 1190.672 1639.3145 1186.3194 1639.3145 1186.3194 C 1639.3145 1186.3194 1635.2618 1177.614 1639.3145 1168.9048 C 1647.42 1160.1955 1663.6309 1155.8388 1663.6309 1155.8388 Z" fill="#805800"/>
        </g>
        <g id="Graphic_22">
          <path d="M 1669.341 1148.479 C 1669.341 1148.479 1684.0648 1144.3412 1687.8784 1144.3412 C 1691.692 1144.3412 1708.1015 1148.9978 1708.1015 1148.9978 C 1708.1015 1148.9978 1722.5858 1165.2978 1726.3995 1165.2978 C 1726.3995 1165.2978 1734.659 1165.1155 1742.2902 1173.3182 C 1749.9215 1181.5209 1749.2123 1196.0823 1749.2123 1196.0823 C 1749.2123 1196.0823 1756.8436 1212.4797 1756.8436 1220.6783 C 1756.8436 1228.877 1753.03 1237.0797 1749.2163 1241.181 C 1745.4028 1245.2824 1730.1442 1249.3797 1730.1442 1249.3797 C 1730.1442 1249.3797 1726.3306 1257.5784 1718.6992 1261.6797 C 1695.8136 1265.7811 1680.5551 1261.6797 1680.5551 1261.6797 L 1672.9278 1253.481 C 1672.9278 1253.481 1646.2284 1249.3797 1642.4149 1249.3797 C 1638.6012 1249.3797 1627.1564 1232.9783 1627.1564 1228.877 C 1627.1564 1224.7756 1627.1564 1212.4756 1630.97 1200.1756 C 1638.6012 1187.8756 1642.4149 1183.7783 1642.4149 1183.7783 C 1642.4149 1183.7783 1637.6003 1177.1196 1641.414 1168.9169 C 1649.0411 1160.7183 1665.248 1156.4994 1665.248 1156.4994 Z" fill="#ffb000" fill-opacity=".7"/>
        </g>
        <g id="Graphic_20">
          <path d="M 1670.8083 1151.8104 C 1670.8083 1151.8104 1684.5795 1148.1954 1688.1458 1148.1954 C 1691.7122 1148.1954 1707.06 1152.2603 1707.06 1152.2603 C 1707.06 1152.2603 1720.604 1166.4894 1724.1705 1166.4894 C 1724.1705 1166.4894 1731.895 1166.3314 1739.0318 1173.4884 C 1746.1646 1180.6455 1745.508 1193.3589 1745.508 1193.3589 C 1745.508 1193.3589 1746.6225 1210.5628 1749.5122 1211.0815 C 1756.8476 1212.3945 1750.189 1226.1292 1746.6225 1229.7077 C 1743.0562 1233.2863 1718.213 1234.8831 1718.213 1234.8831 C 1718.213 1234.8831 1719.0884 1246.0484 1711.9516 1249.631 C 1690.5491 1253.2095 1681.2926 1250.628 1681.2926 1250.628 L 1674.16 1243.4707 C 1674.16 1243.4707 1656.7737 1226.8668 1653.2074 1226.8668 C 1649.6409 1226.8668 1631.351 1225.574 1631.351 1221.9955 C 1631.351 1218.4169 1631.351 1207.6772 1634.9174 1196.9415 C 1642.05 1186.2058 1645.6207 1182.6232 1645.6207 1182.6232 C 1645.6207 1182.6232 1641.118 1176.8076 1644.6844 1169.6505 C 1651.817 1162.4934 1666.9744 1158.8095 1666.9744 1158.8095 Z" fill="#e69f00"/>
        </g>
        <g id="Graphic_18">
          <path d="M 1644.5425 1181.3345 L 1660.6765 1188.836 L 1652.2468 1194.7855 L 1634.9255 1196.9415 Z" fill="#ffb000" fill-opacity=".7"/>
        </g>
        <g id="Graphic_16">
          <path d="M 1625.5233 1219.3652 C 1625.5233 1219.3652 1630.0986 1234.6278 1631.3023 1236.4393 C 1632.506 1238.251 1647.9144 1236.958 1649.8395 1236.958 C 1651.7645 1236.958 1661.1546 1241.874 1661.1546 1241.874 C 1661.1546 1241.874 1648.636 1245.2378 1644.3035 1244.7191 C 1639.9711 1244.2003 1628.7087 1242.178 1627.6915 1239.2844 C 1626.6742 1236.3908 1625.5233 1219.3652 1625.5233 1219.3652 Z" fill="#ffb000" fill-opacity=".6"/>
        </g>
        <g id="Graphic_14">
          <path d="M 1648.636 1169.1763 C 1650.6217 1168.5482 1664.2833 1162.7082 1667.1729 1162.9676 C 1670.0625 1163.2269 1682.3423 1170.2097 1679.4528 1172.54 C 1676.5631 1174.8704 1660.6724 1173.0588 1656.1009 1173.0588 C 1651.5295 1173.0588 1644.5425 1170.4691 1648.636 1169.1763 Z M 1639.0065 1200.4796 C 1640.2345 1198.1655 1656.5832 1197.3751 1656.5832 1197.3751 C 1656.5832 1197.3751 1677.7709 1205.9143 1677.7709 1207.2071 C 1677.7709 1208.4998 1658.5123 1217.2983 1656.5832 1217.5537 C 1654.6542 1217.809 1638.042 1202.2911 1639.0065 1200.4796 Z M 1686.4356 1216.2609 C 1686.0545 1214.2142 1694.622 1201.7724 1696.308 1200.7389 C 1697.994 1199.7055 1720.6244 1193.752 1724.4745 1193.752 C 1728.3245 1193.752 1740.6043 1202.8058 1740.8475 1204.6173 C 1741.0865 1206.4289 1730.0145 1218.8465 1727.1249 1219.88 C 1724.2352 1220.9175 1687.157 1220.1394 1686.4356 1216.2609 Z M 1708.1055 1182.1085 C 1707.1936 1184.2849 1729.7755 1187.2838 1732.1828 1186.2464 C 1734.59 1185.2129 1738.9224 1178.226 1738.201 1176.4144 C 1737.4797 1174.6029 1730.4967 1169.4276 1726.8858 1169.9463 C 1723.2708 1170.4691 1710.2697 1176.9372 1708.1055 1182.1085 Z M 1690.2898 1150.2907 C 1692.308 1150.7243 1705.6982 1153.9137 1707.384 1156.4994 C 1709.07 1159.085 1699.4408 1167.1054 1696.7903 1167.3648 C 1694.1438 1167.624 1676.0849 1156.4994 1674.16 1155.2065 C 1672.2349 1153.9137 1686.6746 1149.5125 1690.2898 1150.2907 Z" fill="#ffb000" fill-opacity=".8"/>
        </g>
        <g id="Graphic_12">
          <path d="M 1671.9917 1257.392 C 1670.3057 1254.8063 1672.9562 1246.2672 1674.399 1247.3006 C 1675.8418 1248.334 1680.1782 1251.4385 1680.4174 1254.0282 C 1680.6564 1256.6138 1684.9927 1261.5298 1688.1216 1263.082 C 1691.2502 1264.6342 1708.3446 1264.6342 1711.2343 1263.6008 C 1714.1238 1262.5672 1720.8635 1256.8732 1722.5493 1253.5095 C 1724.2352 1250.1457 1726.1806 1249.8984 1730.1442 1249.3757 C 1734.1077 1248.8529 1737.9336 1252.7962 1732.5272 1255.9978 C 1727.1249 1259.1995 1721.3457 1264.8935 1714.606 1266.1863 C 1707.8664 1267.4791 1685.9573 1268.5166 1682.1032 1266.9644 C 1678.2491 1265.4123 1671.9917 1257.392 1671.9917 1257.392 Z" fill="#ffb000" fill-opacity=".6"/>
        </g>
        <g id="Graphic_10">
          <path d="M 1700.916 1238.7089 C 1698.8856 1237.6186 1698.1277 1228.5974 1699.1734 1227.8476 C 1700.2189 1227.0978 1709.9778 1228.5974 1712.2434 1228.9702 C 1714.5087 1229.343 1728.276 1228.2204 1729.67 1229.72 C 1731.0642 1231.2195 1734.424 1236.7149 1735.5951 1240.018 C 1736.7664 1243.3249 1729.1472 1242.8264 1726.1846 1242.0766 C 1723.2222 1241.3269 1703.7043 1240.2084 1700.916 1238.7089 Z M 1670.0625 1179.0042 C 1672.709 1179.0042 1683.7851 1178.7448 1686.1924 1179.0042 C 1688.5997 1179.2636 1696.304 1186.5057 1692.693 1187.2838 C 1689.082 1188.062 1679.4528 1190.6476 1678.006 1190.907 C 1676.5591 1191.1664 1671.2663 1186.2504 1669.5804 1184.9576 C 1667.8984 1183.6608 1667.1771 1179.0042 1670.0625 1179.0042 Z M 1700.4012 1171.762 C 1701.7386 1169.61 1706.9018 1168.9169 1707.141 1171.2432 C 1707.38 1173.5735 1705.9372 1178.7448 1703.0477 1178.4855 C 1700.158 1178.23 1698.4722 1174.8663 1700.4012 1171.762 Z M 1686.4356 1226.348 C 1688.8389 1226.0603 1693.4184 1225.57 1693.4184 1227.6409 C 1693.4184 1229.7118 1690.5289 1230.486 1687.157 1230.2265 C 1683.7891 1229.9712 1684.2673 1226.6075 1686.4356 1226.348 Z" fill="#ffb000" fill-opacity=".7"/>
        </g>
        <g id="Graphic_8">
          <path d="M 1677.0453 1197.6345 C 1679.1488 1195.827 1686.4356 1195.5636 1688.1216 1196.3417 C 1689.8075 1197.1198 1686.1965 1202.5505 1684.0283 1202.8098 C 1681.86 1203.0652 1674.638 1199.7013 1677.0453 1197.6345 Z" fill="#ffb000" fill-opacity=".95"/>
        </g>
        <g id="Graphic_6">
          <path d="M 1725.1958 1237.2135 C 1727.5991 1236.569 1733.3823 1235.9207 1733.139 1237.7322 C 1732.9 1239.5437 1730.4928 1242.9075 1728.5636 1242.6482 C 1726.6345 1242.3888 1723.2708 1237.7322 1725.1958 1237.2135 Z M 1709.5483 1255.325 C 1712.2069 1254.8832 1716.288 1252.7393 1716.0489 1255.325 C 1715.8097 1257.9106 1712.9202 1261.2744 1709.7873 1260.7597 C 1706.6586 1260.241 1706.4196 1255.8397 1709.5483 1255.325 Z" fill="#ffb000" fill-opacity=".6"/>
        </g>
      </g>
    </g>
    <g id="Canvas_1_Layer_3">
      <title>Layer 3</title>
      <g id="Group_79">
        <g id="Graphic_87">
          <path d="M 1673.25 1102.9167 C 1673.25 1094.2875 1669.0833 1080 1671.1667 1080 C 1673.25 1080 1685.75 1088.3333 1681.5833 1102.9167 C 1679.2125 1111.2146 1679.7167 1111.25 1677.4167 1111.25 C 1675.1167 1111.25 1673.25 1111.5458 1673.25 1102.9167 Z" fill="#f3ddab"/>
        </g>
        <g id="Graphic_86">
          <path d="M 1674.3958 1104.3833 C 1674.3958 1097.2708 1671.6937 1085.4979 1673.0458 1085.4979 C 1674.3958 1085.4979 1682.5 1092.3646 1679.798 1104.3833 C 1678.2604 1111.2208 1678.5875 1111.25 1677.0958 1111.25 C 1675.6042 1111.25 1674.3958 1111.4938 1674.3958 1104.3833 Z" fill="#ffac33"/>
        </g>
        <g id="Graphic_85">
          <path d="M 1664.477 1105.7812 C 1662.2625 1097.4417 1654.5687 1084.7 1656.5833 1084.1667 C 1658.5958 1083.6313 1672.8167 1088.4792 1672.5312 1103.6438 C 1672.3687 1112.2729 1672.8667 1112.1771 1670.6417 1112.7667 C 1668.4167 1113.3562 1666.6896 1114.1208 1664.477 1105.7812 Z" fill="#f3ddab"/>
        </g>
        <g id="Graphic_84">
          <path d="M 1665.9583 1106.9042 C 1664.1354 1100.0312 1658.502 1089.3438 1659.8083 1088.9979 C 1661.1146 1088.65 1670.7083 1093.2104 1671.1792 1105.5187 C 1671.448 1112.5208 1671.773 1112.4667 1670.3312 1112.85 C 1668.8896 1113.2312 1667.7833 1113.7771 1665.9583 1106.9042 Z" fill="#ffac33"/>
        </g>
        <g id="Graphic_83">
          <circle cx="1722.2083" cy="1139.375" r="7.29167831803447" fill="#ffac33"/>
        </g>
        <g id="Graphic_82">
          <path d="M 1718.527 1146.1167 C 1721.6396 1143.2375 1723.25 1138.7875 1723.25 1132.0833 C 1723.25 1117.125 1709.0417 1109.1667 1694.0833 1109.1667 C 1689.798 1109.1667 1686.1062 1109.4938 1682.9938 1110.2917 C 1680.7333 1107.9375 1677.0354 1107.0833 1672 1107.0833 C 1663.1167 1107.0833 1654.5 1115.5604 1654.5 1124.4438 C 1654.5 1133.0479 1662.5833 1134.1042 1671.1646 1134.1604 L 1671.1667 1134.1667 C 1677.4167 1144.5833 1673.25 1155 1677.4167 1155 C 1680.725 1155 1681.4042 1150.3812 1681.5438 1145.8854 C 1683.7687 1147.2667 1686.248 1148.3667 1688.9 1149.1708 C 1687.073 1150.2625 1685.75 1151.3979 1685.75 1151.875 C 1685.75 1154.7521 1689.9167 1155 1696.1667 1155 C 1707.6708 1155 1723.25 1155 1719.0833 1146.6667 C 1718.9708 1146.4438 1718.7687 1146.2708 1718.527 1146.1167 Z" fill="#f3ddab"/>
        </g>
        <g id="Graphic_81">
          <circle cx="1667" cy="1117.5" r="2.08333666229577" fill="#ffac33"/>
        </g>
        <g id="Graphic_80">
          <path d="M 1658.6667 1123.75 C 1658.6667 1126.05 1657.625 1127.9167 1656.5833 1127.9167 C 1655.5417 1127.9167 1654.5 1126.05 1654.5 1123.75 C 1654.5 1121.45 1655.4333 1121.6667 1656.5833 1121.6667 C 1657.7333 1121.6667 1658.6667 1121.45 1658.6667 1123.75 Z" fill="#ffac33"/>
        </g>
      </g>
    </g>
  </g>
</svg>
