<?xml version="1.0" encoding="UTF-8" standalone="no"?>
<!DOCTYPE svg PUBLIC "-//W3C//DTD SVG 1.1//EN" "http://www.w3.org/Graphics/SVG/1.1/DTD/svg11.dtd">
<svg version="1.1" xmlns:xl="http://www.w3.org/1999/xlink" xmlns:dc="http://purl.org/dc/elements/1.1/" xmlns="http://www.w3.org/2000/svg" viewBox="2326 2421 135 126" width="135" height="126">
  <defs/>
  <g id="Canvas_300" stroke-opacity="1" fill-opacity="1" stroke-dasharray="none" stroke="none" fill="none">
    <title>Canvas 300</title>
    <g id="Canvas_300_Layer_1">
      <title>Layer 1</title>
      <g id="Group_2">
        <g id="Graphic_12">
          <path d="M 2369.6765 2425.2684 C 2369.6765 2425.2684 2385.5588 2421 2389.5294 2421 C 2393.5 2421 2409.3824 2425.2684 2409.3824 2425.2684 C 2409.3824 2425.2684 2425.2647 2442.334 2429.2353 2442.334 C 2429.2353 2442.334 2437.1765 2442.334 2445.1176 2450.8668 C 2453.0588 2459.3996 2453.0588 2476.465 2453.0588 2476.465 C 2453.0588 2476.465 2461 2493.5307 2461 2502.0635 C 2461 2510.5963 2457.0294 2519.129 2453.0588 2523.3975 C 2449.0882 2527.666 2433.206 2531.9303 2433.206 2531.9303 C 2433.206 2531.9303 2429.2353 2540.463 2421.294 2544.7315 C 2397.4706 2549 2381.5882 2544.7315 2381.5882 2544.7315 L 2373.647 2536.1987 C 2373.647 2536.1987 2345.853 2531.9303 2341.8824 2531.9303 C 2337.9118 2531.9303 2326 2514.8647 2326 2510.5963 C 2326 2506.328 2326 2493.5307 2329.9706 2480.7296 C 2337.9118 2467.9284 2341.8824 2463.664 2341.8824 2463.664 C 2341.8824 2463.664 2337.9118 2455.1351 2341.8824 2446.6024 C 2349.8235 2438.0696 2365.706 2433.8012 2365.706 2433.8012 L 2369.6765 2425.2684 Z" fill="#802a00"/>
        </g>
        <g id="Graphic_11">
          <title>Bézier</title>
          <path d="M 2371.3004 2426.5906 C 2371.3004 2426.5906 2385.7256 2422.5366 2389.462 2422.5366 C 2393.1982 2422.5366 2409.2751 2427.0988 2409.2751 2427.0988 C 2409.2751 2427.0988 2423.466 2443.0685 2427.2024 2443.0685 C 2427.2024 2443.0685 2435.2944 2442.8899 2442.771 2450.9263 C 2450.2476 2458.9628 2449.5528 2473.229 2449.5528 2473.229 C 2449.5528 2473.229 2457.0294 2489.294 2457.0294 2497.3266 C 2457.0294 2505.359 2453.293 2513.3956 2449.5568 2517.4138 C 2445.8204 2521.432 2430.8712 2525.4463 2430.8712 2525.4463 C 2430.8712 2525.4463 2427.1349 2533.4788 2419.6582 2537.497 C 2397.2363 2541.5153 2382.287 2537.497 2382.287 2537.497 L 2374.8144 2529.4646 C 2374.8144 2529.4646 2348.6562 2525.4463 2344.9199 2525.4463 C 2341.1835 2525.4463 2329.9706 2509.3774 2329.9706 2505.359 C 2329.9706 2501.341 2329.9706 2489.29 2333.707 2477.2394 C 2341.1835 2465.1887 2344.9199 2461.1744 2344.9199 2461.1744 C 2344.9199 2461.1744 2340.2028 2454.6507 2343.939 2446.6143 C 2351.4118 2438.5818 2367.2901 2434.4484 2367.2901 2434.4484 Z" fill="#f50" fill-opacity=".6"/>
        </g>
        <g id="Graphic_10">
          <path d="M 2372.6557 2429.3786 C 2372.6557 2429.3786 2386.1478 2425.8368 2389.642 2425.8368 C 2393.136 2425.8368 2408.1726 2429.8193 2408.1726 2429.8193 C 2408.1726 2429.8193 2421.4423 2443.76 2424.9364 2443.76 C 2424.9364 2443.76 2432.5044 2443.6052 2439.4966 2450.6172 C 2446.4848 2457.6293 2445.8416 2470.085 2445.8416 2470.085 C 2445.8416 2470.085 2446.9335 2486.9402 2449.7645 2487.4484 C 2456.9513 2488.735 2450.4276 2502.1912 2446.9335 2505.6972 C 2443.4394 2509.2033 2419.0997 2510.7677 2419.0997 2510.7677 C 2419.0997 2510.7677 2419.9573 2521.7066 2412.965 2525.2166 C 2391.9964 2528.7227 2382.9276 2526.1934 2382.9276 2526.1934 L 2375.9394 2519.1814 C 2375.9394 2519.1814 2358.9056 2502.914 2355.4114 2502.914 C 2351.9173 2502.914 2333.998 2501.6472 2333.998 2498.1412 C 2333.998 2494.6352 2333.998 2484.113 2337.4922 2473.595 C 2344.4804 2463.077 2347.9785 2459.567 2347.9785 2459.567 C 2347.9785 2459.567 2343.5672 2453.8691 2347.0613 2446.857 C 2354.0495 2439.845 2368.8995 2436.2358 2368.8995 2436.2358 L 2372.6557 2429.3786 Z" fill="#f50" fill-opacity=".6"/>
        </g>
        <g id="Graphic_9">
          <path d="M 2347.0044 2458.7801 L 2362.8113 2466.1297 L 2354.5525 2471.9585 L 2337.5822 2474.071 Z" fill="#f50" fill-opacity=".6"/>
        </g>
        <g id="Graphic_8">
          <path d="M 2328.3704 2496.04 C 2328.3704 2496.04 2332.8532 2510.9934 2334.0325 2512.7682 C 2335.2118 2514.543 2350.308 2513.2765 2352.194 2513.2765 C 2354.08 2513.2765 2363.2799 2518.0928 2363.2799 2518.0928 C 2363.2799 2518.0928 2351.0147 2521.3884 2346.7701 2520.88 C 2342.5256 2520.372 2331.4913 2518.3906 2330.4947 2515.5556 C 2329.498 2512.7206 2328.3704 2496.04 2328.3704 2496.04 Z" fill="#f50" fill-opacity=".6"/>
        </g>
        <g id="Graphic_7">
          <path d="M 2351.0147 2446.8684 C 2352.9603 2446.253 2366.3451 2440.5313 2369.1762 2440.7854 C 2372.0072 2441.0396 2384.038 2447.881 2381.207 2450.164 C 2378.376 2452.447 2362.8074 2450.6722 2358.3285 2450.6722 C 2353.8497 2450.6722 2347.0044 2448.135 2351.0147 2446.8684 Z M 2341.5806 2477.5372 C 2342.7837 2475.27 2358.801 2474.4957 2358.801 2474.4957 C 2358.801 2474.4957 2379.5593 2482.8618 2379.5593 2484.1284 C 2379.5593 2485.395 2360.691 2494.015 2358.801 2494.2653 C 2356.911 2494.5154 2340.6356 2479.312 2341.5806 2477.5372 Z M 2388.0484 2492.9987 C 2387.6751 2490.9935 2396.069 2478.8038 2397.7207 2477.7913 C 2399.3725 2476.7788 2421.5443 2470.946 2425.3163 2470.946 C 2429.0884 2470.946 2441.1193 2479.8163 2441.3575 2481.5912 C 2441.5918 2483.366 2430.744 2495.532 2427.913 2496.5444 C 2425.082 2497.561 2388.7551 2496.7985 2388.0484 2492.9987 Z M 2409.279 2459.5385 C 2408.3857 2461.6707 2430.5099 2464.609 2432.8684 2463.5925 C 2435.227 2462.58 2439.4715 2455.7347 2438.7647 2453.9599 C 2438.058 2452.185 2431.2166 2447.1146 2427.6788 2447.6228 C 2424.137 2448.135 2411.3994 2454.472 2409.279 2459.5385 Z M 2391.8244 2428.3654 C 2393.8018 2428.7903 2406.9206 2431.9151 2408.5724 2434.4484 C 2410.224 2436.9816 2400.79 2444.8394 2398.1932 2445.0935 C 2395.6004 2445.3476 2377.9075 2434.4484 2376.0215 2433.1818 C 2374.1354 2431.9151 2388.2826 2427.603 2391.8244 2428.3654 Z" fill="#f50" fill-opacity=".6"/>
        </g>
        <g id="Graphic_6">
          <path d="M 2373.8972 2533.2962 C 2372.2454 2530.763 2374.8422 2522.397 2376.2557 2523.4094 C 2377.6693 2524.422 2381.9178 2527.4634 2382.152 2530.0006 C 2382.3863 2532.5338 2386.6349 2537.35 2389.7001 2538.871 C 2392.7654 2540.3916 2409.5134 2540.3916 2412.3444 2539.379 C 2415.1754 2538.3666 2421.7785 2532.788 2423.4303 2529.4924 C 2425.082 2526.1968 2426.988 2525.9546 2430.8712 2525.4424 C 2434.7544 2524.93 2438.5026 2528.7935 2433.206 2531.9303 C 2427.913 2535.067 2422.251 2540.6457 2415.648 2541.9124 C 2409.0449 2543.179 2387.5799 2544.1954 2383.8038 2542.6747 C 2380.0278 2541.154 2373.8972 2533.2962 2373.8972 2533.2962 Z" fill="#f50" fill-opacity=".6"/>
        </g>
        <g id="Graphic_5">
          <path d="M 2402.2353 2514.9918 C 2400.246 2513.9237 2399.5035 2505.085 2400.528 2504.3506 C 2401.5524 2503.616 2411.1135 2505.085 2413.333 2505.4504 C 2415.5526 2505.8157 2429.0407 2504.716 2430.4066 2506.185 C 2431.7725 2507.654 2435.064 2513.0382 2436.2116 2516.2743 C 2437.359 2519.5143 2429.8944 2519.026 2426.992 2518.2913 C 2424.0894 2517.5568 2404.967 2516.461 2402.2353 2514.9918 Z M 2372.0072 2456.497 C 2374.6 2456.497 2385.4516 2456.243 2387.8101 2456.497 C 2390.1687 2456.7512 2397.7168 2463.8466 2394.179 2464.609 C 2390.6412 2465.3713 2381.207 2467.9046 2379.7896 2468.1587 C 2378.372 2468.4128 2373.1865 2463.5965 2371.5347 2462.3299 C 2369.887 2461.0593 2369.1801 2456.497 2372.0072 2456.497 Z M 2401.731 2449.4016 C 2403.0413 2447.2932 2408.0999 2446.6143 2408.334 2448.8934 C 2408.5684 2451.1765 2407.1549 2456.243 2404.3238 2455.9888 C 2401.4928 2455.7387 2399.841 2452.443 2401.731 2449.4016 Z M 2388.0484 2502.8815 C 2390.403 2502.5996 2394.8897 2502.119 2394.8897 2504.148 C 2394.8897 2506.177 2392.0587 2506.9354 2388.7551 2506.6813 C 2385.4556 2506.4312 2385.924 2503.1356 2388.0484 2502.8815 Z" fill="#f50" fill-opacity=".6"/>
        </g>
        <g id="Graphic_4">
          <path d="M 2378.8485 2474.75 C 2380.9093 2472.979 2388.0484 2472.721 2389.7001 2473.4832 C 2391.352 2474.2456 2387.814 2479.5662 2385.6899 2479.8203 C 2383.5656 2480.0704 2376.49 2476.775 2378.8485 2474.75 Z" fill="#f50" fill-opacity=".6"/>
        </g>
        <g id="Graphic_3">
          <path d="M 2426.023 2513.5266 C 2428.3776 2512.8953 2434.0437 2512.26 2433.8054 2514.035 C 2433.5712 2515.8097 2431.2126 2519.1053 2429.3226 2518.8512 C 2427.4326 2518.597 2424.137 2514.035 2426.023 2513.5266 Z M 2410.6926 2531.2712 C 2413.2974 2530.8384 2417.2957 2528.738 2417.0615 2531.2712 C 2416.8272 2533.8044 2413.9962 2537.1 2410.927 2536.5957 C 2407.8616 2536.0875 2407.6274 2531.7754 2410.6926 2531.2712 Z" fill="#f50" fill-opacity=".6"/>
        </g>
      </g>
    </g>
  </g>
</svg>
