<?xml version="1.0" encoding="UTF-8" standalone="no"?>
<!DOCTYPE svg PUBLIC "-//W3C//DTD SVG 1.1//EN" "http://www.w3.org/Graphics/SVG/1.1/DTD/svg11.dtd">
<svg xmlns:xl="http://www.w3.org/1999/xlink" xmlns:dc="http://purl.org/dc/elements/1.1/" version="1.1" xmlns="http://www.w3.org/2000/svg" viewBox="1060 676 256 256" width="256" height="256">
  <defs/>
  <g id="Canvas_1" fill-opacity="1" stroke-dasharray="none" stroke="none" fill="none" stroke-opacity="1">
    <title>Canvas 1</title>
    <g id="Canvas_1_Layer_3">
      <title>Layer 3</title>
      <g id="Graphic_38">
        <path d="M 1188 891.425 C 1094.965 891.425 1073 908.915 1073 917 C 1073 925.085 1084.4424 932 1098.5556 932 L 1277.4444 932 C 1291.5576 932 1303 925.0587 1303 917 C 1303 908.9412 1281.035 891.425 1188 891.425 Z" fill="#5c913b"/>
      </g>
      <g id="Graphic_37">
        <path d="M 1250.8 887.9605 C 1250.8 895.9391 1245.0665 898.8 1237.9988 898.8 C 1230.9313 898.8 1225.1977 895.9442 1225.1977 887.9605 L 1228.3968 855.4473 C 1228.3968 847.4687 1230.9266 848.2192 1237.9988 848.2192 C 1245.0665 848.2192 1247.6008 847.4636 1247.6008 855.4473 Z" fill="#643"/>
      </g>
      <g id="Graphic_36">
        <path d="M 1291.0616 840.8798 C 1263.5006 816.0507 1252.3381 780.4976 1237.999 780.4976 C 1223.66 780.4976 1212.4976 816.0507 1184.9426 840.8798 C 1173.3597 851.3157 1178.878 857.3503 1194.7541 856.1434 C 1208.9069 855.0685 1222.141 851.694 1237.999 851.694 C 1253.8572 851.694 1267.0974 855.0746 1281.2442 856.1434 C 1297.1204 857.3503 1302.6385 851.3098 1291.0616 840.8798 Z" fill="#5c913b"/>
      </g>
      <g id="Graphic_35">
        <path d="M 1282.1089 831.0382 C 1260.9306 810.6166 1249.0295 781.3623 1237.999 781.3623 C 1226.9746 781.3623 1215.0737 810.6166 1193.8954 831.0382 C 1177.0646 847.2686 1215.9502 850.9074 1237.999 831.0382 C 1260.042 850.9074 1298.9336 847.2686 1282.1089 831.0382 Z" fill="#3e721d"/>
      </g>
      <g id="Graphic_34">
        <path d="M 1282.1089 814.4956 C 1260.9306 795.413 1249.0295 768.0861 1237.999 768.0861 C 1226.9746 768.0861 1215.0737 795.413 1193.8954 814.4956 C 1177.0646 829.6571 1215.9502 833.0557 1237.999 814.4956 C 1260.042 833.0557 1298.9336 829.6512 1282.1089 814.4956 Z" fill="#5c913b"/>
      </g>
      <g id="Graphic_33">
        <path d="M 1272.4354 800.9433 C 1255.9049 786.0459 1246.6098 764.7117 1237.999 764.7117 C 1229.3945 764.7117 1220.0994 786.0459 1203.5628 800.9433 C 1190.4248 812.7783 1220.778 815.4384 1237.999 800.9433 C 1255.2143 815.4323 1285.5735 812.7783 1272.4354 800.9433 Z" fill="#3e721d"/>
      </g>
      <g id="Graphic_32">
        <path d="M 1272.4354 788.5438 C 1255.9049 773.6463 1246.6098 752.3121 1237.999 752.3121 C 1229.3945 752.3121 1220.0994 773.6463 1203.5628 788.5438 C 1190.4248 800.3787 1220.778 803.0389 1237.999 788.5438 C 1255.2143 803.0389 1285.5735 800.3848 1272.4354 788.5438 Z" fill="#5c913b"/>
      </g>
      <g id="Graphic_31">
        <path d="M 1265.7883 777.5373 C 1252.446 765.5161 1244.9464 748.301 1237.999 748.301 C 1231.0518 748.301 1223.552 765.5161 1210.2098 777.5373 C 1199.6057 787.0907 1224.1044 789.2342 1237.999 777.5373 C 1251.8938 789.2342 1276.3984 787.0907 1265.7883 777.5373 Z" fill="#3e721d"/>
      </g>
      <g id="Graphic_30">
        <path d="M 1265.7883 768.2062 C 1252.446 756.185 1244.9464 738.9699 1237.999 738.9699 C 1231.0518 738.9699 1223.552 756.185 1210.2098 768.2062 C 1199.6057 777.7595 1224.1044 779.9031 1237.999 768.2062 C 1251.8938 779.9031 1276.3984 777.7595 1265.7883 768.2062 Z" fill="#5c913b"/>
      </g>
      <g id="Graphic_29">
        <path d="M 1259.1472 754.4678 C 1248.9994 745.3228 1243.2891 732.22075 1237.999 732.22075 C 1232.715 732.22075 1227.0047 745.3228 1216.8509 754.4678 C 1208.7807 761.7393 1227.425 763.3665 1237.999 754.4678 C 1248.5732 763.37255 1267.2173 761.7393 1259.1472 754.4678 Z" fill="#3e721d"/>
      </g>
      <g id="Graphic_28">
        <path d="M 1259.1472 748.2469 C 1248.9994 739.102 1243.2891 726 1237.999 726 C 1232.715 726 1227.0047 739.102 1216.8509 748.2469 C 1208.7807 755.51855 1227.425 757.1457 1237.999 748.2469 C 1248.5732 757.1457 1267.2173 755.51855 1259.1472 748.2469 Z" fill="#5c913b"/>
      </g>
    </g>
    <g id="Canvas_1_Layer_2">
      <title>Layer 2</title>
      <g id="Group_26">
        <g id="Graphic_14">
          <path d="M 1272.2353 801.8463 L 1188 717.61105 L 1103.7648 801.8463 L 1103.7648 912 L 1272.2353 912 Z" fill="#f3ddab"/>
        </g>
        <g id="Graphic_12">
          <path d="M 1094.8735 813.4555 C 1096.7073 813.4555 1098.5412 812.7535 1099.9382 811.3566 L 1188 723.2946 L 1276.0619 811.3566 C 1278.8629 814.1575 1283.3903 814.1575 1286.1913 811.3566 C 1288.9922 808.5556 1288.9922 804.0282 1286.1913 801.2273 L 1193.0648 708.1007 C 1190.2638 705.2997 1185.7363 705.2997 1182.9353 708.1007 L 1089.8087 801.2273 C 1087.0077 804.0282 1087.0077 808.5556 1089.8087 811.3566 C 1091.2057 812.7535 1093.0396 813.4555 1094.8735 813.4555 Z" fill="#f50"/>
        </g>
        <g id="Graphic_10">
          <rect x="1170.8272" y="859.2883" width="34.3456" height="52.7117" fill="#fff0ce"/>
        </g>
        <g id="Graphic_19">
          <rect x="1173.8273" y="862.2883" width="28.34554" height="49.7117" fill="gray"/>
        </g>
        <g id="Graphic_20">
          <path d="M 1241.457 816.6023 L 1215.5384 816.6023 L 1215.5384 847.534 L 1241.457 847.534 Z M 1160.4617 816.6023 L 1134.5431 816.6023 L 1134.5431 847.534 L 1160.4617 847.534 Z" fill="gray"/>
        </g>
        <g id="Graphic_21">
          <rect x="1214.2656" y="847.534" width="28.345583" height="3" fill="#fff0ce"/>
        </g>
        <g id="Graphic_22">
          <rect x="1133.3104" y="847.534" width="28.345583" height="3" fill="#fff0ce"/>
        </g>
        <g id="Graphic_23">
          <path d="M 1202.1728 862.2883 L 1178 857.8 L 1178 916.4 L 1202.1728 912 Z" fill="#f50"/>
        </g>
      </g>
    </g>
  </g>
</svg>
