<?xml version="1.0" encoding="UTF-8" standalone="no"?>
<!DOCTYPE svg PUBLIC "-//W3C//DTD SVG 1.1//EN" "http://www.w3.org/Graphics/SVG/1.1/DTD/svg11.dtd">
<svg xmlns:xl="http://www.w3.org/1999/xlink" xmlns="http://www.w3.org/2000/svg" version="1.1" xmlns:dc="http://purl.org/dc/elements/1.1/" viewBox="1564 1035 256 256" width="256" height="256">
  <defs/>
  <g id="Canvas_1" fill-opacity="1" stroke-dasharray="none" stroke-opacity="1" stroke="none" fill="none">
    <title>Canvas 1</title>
    <g id="Canvas_1_Layer_1">
      <title>Layer 1</title>
      <g id="Group_67">
        <g id="Graphic_78">
          <path d="M 1692 1250.425 C 1598.965 1250.425 1577 1267.915 1577 1276 C 1577 1284.085 1588.4424 1291 1602.5556 1291 L 1781.4444 1291 C 1795.5576 1291 1807 1284.0587 1807 1276 C 1807 1267.9412 1785.035 1250.425 1692 1250.425 Z" fill="#5c913b"/>
        </g>
        <g id="Graphic_77">
          <path d="M 1754.8 1246.9605 C 1754.8 1254.9391 1749.0665 1257.8 1741.9988 1257.8 C 1734.9313 1257.8 1729.1977 1254.9442 1729.1977 1246.9605 L 1732.3968 1214.4473 C 1732.3968 1206.4687 1734.9266 1207.2192 1741.9988 1207.2192 C 1749.0665 1207.2192 1751.6008 1206.4636 1751.6008 1214.4473 Z" fill="#643"/>
        </g>
        <g id="Graphic_76">
          <path d="M 1795.0616 1199.8798 C 1767.5006 1175.0507 1756.3381 1139.4976 1741.999 1139.4976 C 1727.66 1139.4976 1716.4976 1175.0507 1688.9426 1199.8798 C 1677.3597 1210.3157 1682.878 1216.3503 1698.7541 1215.1434 C 1712.9069 1214.0685 1726.141 1210.694 1741.999 1210.694 C 1757.8572 1210.694 1771.0974 1214.0746 1785.2442 1215.1434 C 1801.1204 1216.3503 1806.6385 1210.3098 1795.0616 1199.8798 Z" fill="#5c913b"/>
        </g>
        <g id="Graphic_75">
          <path d="M 1786.1089 1190.0382 C 1764.9306 1169.6166 1753.0295 1140.3623 1741.999 1140.3623 C 1730.9746 1140.3623 1719.0737 1169.6166 1697.8954 1190.0382 C 1681.0646 1206.2686 1719.9502 1209.9074 1741.999 1190.0382 C 1764.042 1209.9074 1802.9336 1206.2686 1786.1089 1190.0382 Z" fill="#3e721d"/>
        </g>
        <g id="Graphic_74">
          <path d="M 1786.1089 1173.4956 C 1764.9306 1154.413 1753.0295 1127.0861 1741.999 1127.0861 C 1730.9746 1127.0861 1719.0737 1154.413 1697.8954 1173.4956 C 1681.0646 1188.6571 1719.9502 1192.0557 1741.999 1173.4956 C 1764.042 1192.0557 1802.9336 1188.6512 1786.1089 1173.4956 Z" fill="#5c913b"/>
        </g>
        <g id="Graphic_73">
          <path d="M 1776.4354 1159.9433 C 1759.9049 1145.0459 1750.6098 1123.7117 1741.999 1123.7117 C 1733.3945 1123.7117 1724.0994 1145.0459 1707.5628 1159.9433 C 1694.4248 1171.7783 1724.778 1174.4384 1741.999 1159.9433 C 1759.2143 1174.4323 1789.5735 1171.7783 1776.4354 1159.9433 Z" fill="#3e721d"/>
        </g>
        <g id="Graphic_72">
          <path d="M 1776.4354 1147.5438 C 1759.9049 1132.6463 1750.6098 1111.3121 1741.999 1111.3121 C 1733.3945 1111.3121 1724.0994 1132.6463 1707.5628 1147.5438 C 1694.4248 1159.3787 1724.778 1162.0389 1741.999 1147.5438 C 1759.2143 1162.0389 1789.5735 1159.3848 1776.4354 1147.5438 Z" fill="#5c913b"/>
        </g>
        <g id="Graphic_71">
          <path d="M 1769.7883 1136.5373 C 1756.446 1124.5161 1748.9464 1107.301 1741.999 1107.301 C 1735.0518 1107.301 1727.552 1124.5161 1714.2098 1136.5373 C 1703.6057 1146.0907 1728.1044 1148.2342 1741.999 1136.5373 C 1755.8938 1148.2342 1780.3984 1146.0907 1769.7883 1136.5373 Z" fill="#3e721d"/>
        </g>
        <g id="Graphic_70">
          <path d="M 1769.7883 1127.2062 C 1756.446 1115.185 1748.9464 1097.9699 1741.999 1097.9699 C 1735.0518 1097.9699 1727.552 1115.185 1714.2098 1127.2062 C 1703.6057 1136.7595 1728.1044 1138.9031 1741.999 1127.2062 C 1755.8938 1138.9031 1780.3984 1136.7595 1769.7883 1127.2062 Z" fill="#5c913b"/>
        </g>
        <g id="Graphic_69">
          <path d="M 1763.1472 1113.4678 C 1752.9994 1104.3228 1747.2891 1091.2208 1741.999 1091.2208 C 1736.715 1091.2208 1731.0047 1104.3228 1720.8509 1113.4678 C 1712.7807 1120.7393 1731.425 1122.3665 1741.999 1113.4678 C 1752.5732 1122.3726 1771.2173 1120.7393 1763.1472 1113.4678 Z" fill="#3e721d"/>
        </g>
        <g id="Graphic_68">
          <path d="M 1763.1472 1107.2469 C 1752.9994 1098.102 1747.2891 1085 1741.999 1085 C 1736.715 1085 1731.0047 1098.102 1720.8509 1107.2469 C 1712.7807 1114.5186 1731.425 1116.1457 1741.999 1107.2469 C 1752.5732 1116.1457 1771.2173 1114.5186 1763.1472 1107.2469 Z" fill="#5c913b"/>
        </g>
      </g>
    </g>
    <g id="Canvas_1_Layer_2">
      <title>Layer 2</title>
      <g id="Group_79">
        <title>Group_24</title>
        <g id="Group_91">
          <title>Group_31</title>
          <g id="Group_100">
            <title>Graphic_36</title>
            <g id="Graphic_101">
              <path d="M 1670.6288 1142.7729 L 1644.9834 1142.7729 L 1615.0637 1181.241 L 1657.8061 1181.241 Z" fill="white"/>
            </g>
          </g>
          <g id="Group_98">
            <title>Graphic_35</title>
            <g id="Graphic_99">
              <path d="M 1768.9363 1181.241 L 1739.0166 1142.7729 L 1713.3712 1142.7729 L 1726.1939 1181.241 Z" fill="white"/>
            </g>
          </g>
          <g id="Group_96">
            <title>Graphic_34</title>
            <g id="Graphic_97">
              <path d="M 1726.1939 1181.241 L 1768.9363 1181.241 L 1692 1271 Z" fill="white"/>
            </g>
          </g>
          <g id="Group_94">
            <title>Graphic_33</title>
            <g id="Graphic_95">
              <path d="M 1657.8061 1181.241 L 1615.0637 1181.241 L 1692 1271 Z M 1670.6288 1142.7729 L 1657.8061 1181.241 L 1726.1939 1181.241 L 1713.3712 1142.7729 Z" fill="white"/>
            </g>
          </g>
          <g id="Group_92">
            <title>Graphic_32</title>
            <g id="Graphic_93">
              <path d="M 1692 1271 L 1657.8061 1181.241 L 1726.1939 1181.241 Z" fill="white"/>
            </g>
          </g>
        </g>
        <g id="Group_80">
          <title>Group_25</title>
          <g id="Group_89">
            <title>Graphic_30</title>
            <g id="Graphic_90">
              <path d="M 1670.6288 1142.7729 L 1644.9834 1142.7729 L 1615.0637 1181.241 L 1657.8061 1181.241 Z" fill="#ffb000" fill-opacity=".25"/>
            </g>
          </g>
          <g id="Group_87">
            <title>Graphic_29</title>
            <g id="Graphic_88">
              <path d="M 1768.9363 1181.241 L 1739.0166 1142.7729 L 1713.3712 1142.7729 L 1726.1939 1181.241 Z" fill="#ffb000" fill-opacity=".7"/>
            </g>
          </g>
          <g id="Group_85">
            <title>Graphic_28</title>
            <g id="Graphic_86">
              <path d="M 1726.1939 1181.241 L 1768.9363 1181.241 L 1692 1271 Z" fill="#ffb000" fill-opacity=".9"/>
            </g>
          </g>
          <g id="Group_83">
            <title>Graphic_27</title>
            <g id="Graphic_84">
              <path d="M 1657.8061 1181.241 L 1615.0637 1181.241 L 1692 1271 Z M 1670.6288 1142.7729 L 1657.8061 1181.241 L 1726.1939 1181.241 L 1713.3712 1142.7729 Z" fill="#ffb000" fill-opacity=".5"/>
            </g>
          </g>
          <g id="Group_81">
            <title>Graphic_26</title>
            <g id="Graphic_82">
              <path d="M 1692 1271 L 1657.8061 1181.241 L 1726.1939 1181.241 Z" fill="#ffb000" fill-opacity=".6"/>
            </g>
          </g>
        </g>
      </g>
    </g>
  </g>
</svg>
