<?xml version="1.0" encoding="UTF-8" standalone="no"?>
<!DOCTYPE svg PUBLIC "-//W3C//DTD SVG 1.1//EN" "http://www.w3.org/Graphics/SVG/1.1/DTD/svg11.dtd">
<svg xmlns="http://www.w3.org/2000/svg" xmlns:xl="http://www.w3.org/1999/xlink" xmlns:dc="http://purl.org/dc/elements/1.1/" version="1.1" viewBox="2609 2376 256 256" width="256" height="256">
  <defs/>
  <g id="Canvas_2" stroke-opacity="1" stroke="none" fill="none" fill-opacity="1" stroke-dasharray="none">
    <title>Canvas 2</title>
    <g id="Canvas_2_Layer_1">
      <title>Layer 1</title>
      <g id="Graphic_48">
        <path d="M 2737 2591.425 C 2643.965 2591.425 2622 2608.915 2622 2617 C 2622 2625.085 2633.4424 2632 2647.5556 2632 L 2826.4444 2632 C 2840.5576 2632 2852 2625.0587 2852 2617 C 2852 2608.9412 2830.035 2591.425 2737 2591.425 Z" fill="#5c913b"/>
      </g>
    </g>
    <g id="Canvas_2_Layer_2">
      <title>Layer 2</title>
      <g id="Group_40">
        <g id="Graphic_45">
          <path d="M 2730.0714 2611.9375 C 2726.6863 2611.9375 2723.6696 2609.8073 2722.5297 2606.618 L 2682.5004 2494.5386 C 2681.6254 2492.086 2681.9996 2489.5185 2683.4965 2487.3884 C 2684.999 2485.264 2687.2467 2483.773 2689.849 2483.773 L 2783.9578 2484.147 C 2787.1645 2484.147 2790.0546 2485.903 2791.321 2488.8507 L 2839.3527 2600.855 C 2840.412 2603.3307 2840.1587 2606.1343 2838.6848 2608.3797 C 2837.1938 2610.625 2834.678 2611.9375 2831.9894 2611.9375 Z" fill="#f3ddab"/>
        </g>
        <g id="Graphic_44">
          <path d="M 2642.005 2611.9375 C 2639.3164 2611.9375 2636.8006 2610.5788 2635.3153 2608.3392 C 2633.8414 2606.0883 2633.588 2603.2443 2634.6474 2600.7686 L 2682.7076 2488.626 C 2683.9627 2485.69 2686.8642 2483.773 2690.0653 2483.773 C 2693.272 2483.773 2696.1736 2485.69 2697.4287 2488.626 L 2745.4888 2600.7686 C 2746.5482 2603.25 2746.289 2606.0883 2744.8154 2608.3392 C 2743.3415 2610.5788 2740.8255 2611.9375 2738.1314 2611.9375 Z" fill="#fff0ce"/>
        </g>
        <g id="Graphic_43">
          <path d="M 2690.0425 2503.6628 L 2672.6787 2612 L 2707.4 2612 Z" fill="gray"/>
        </g>
        <g id="Graphic_42">
          <path d="M 2722.2878 2603.111 L 2725.863 2612 L 2706.0527 2612 Z M 2657.791 2603.111 L 2654.2158 2612 L 2674.026 2612 Z" fill="#5dadec"/>
        </g>
        <g id="Graphic_41">
          <path d="M 2706.0527 2612 C 2706.0527 2612 2720.6125 2608.2868 2727.734 2601.7177 L 2690.0423 2503.6628 Z M 2674.026 2612 C 2674.026 2612 2659.4662 2608.2868 2652.3448 2601.7177 L 2690.0307 2503.6686 Z" fill="#f50"/>
        </g>
      </g>
    </g>
  </g>
</svg>
