<?xml version="1.0" encoding="UTF-8" standalone="no"?>
<!DOCTYPE svg PUBLIC "-//W3C//DTD SVG 1.1//EN" "http://www.w3.org/Graphics/SVG/1.1/DTD/svg11.dtd">
<svg version="1.1" xmlns="http://www.w3.org/2000/svg" xmlns:xl="http://www.w3.org/1999/xlink" xmlns:dc="http://purl.org/dc/elements/1.1/" viewBox="1427 1033 135 126" width="135" height="126">
  <defs/>
  <g id="Canvas_298" stroke-dasharray="none" fill="none" fill-opacity="1" stroke-opacity="1" stroke="none">
    <title>Canvas 298</title>
    <g id="Canvas_298_Layer_1">
      <title>Layer 1</title>
      <g id="Group_2">
        <g id="Graphic_12">
          <path d="M 1470.6765 1037.2684 C 1470.6765 1037.2684 1486.5588 1033 1490.5294 1033 C 1494.5 1033 1510.3824 1037.2684 1510.3824 1037.2684 C 1510.3824 1037.2684 1526.2647 1054.334 1530.2353 1054.334 C 1530.2353 1054.334 1538.1765 1054.334 1546.1176 1062.8668 C 1554.0588 1071.3996 1554.0588 1088.4651 1554.0588 1088.4651 C 1554.0588 1088.4651 1562 1105.5307 1562 1114.0635 C 1562 1122.5963 1558.0294 1131.1291 1554.0588 1135.3975 C 1550.0882 1139.6659 1534.2059 1143.9303 1534.2059 1143.9303 C 1534.2059 1143.9303 1530.2353 1152.4631 1522.2941 1156.7315 C 1498.4706 1160.9999 1482.5882 1156.7315 1482.5882 1156.7315 L 1474.647 1148.1987 C 1474.647 1148.1987 1446.853 1143.9303 1442.8824 1143.9303 C 1438.9118 1143.9303 1427 1126.8647 1427 1122.5963 C 1427 1118.328 1427 1105.5307 1430.9706 1092.7296 C 1438.9118 1079.9284 1442.8824 1075.664 1442.8824 1075.664 C 1442.8824 1075.664 1438.9118 1067.1351 1442.8824 1058.6024 C 1450.8235 1050.0696 1466.7059 1045.8012 1466.7059 1045.8012 L 1470.6765 1037.2684 Z" fill="#456280"/>
        </g>
        <g id="Graphic_11">
          <path d="M 1472.3004 1038.5906 C 1472.3004 1038.5906 1486.7256 1034.5366 1490.462 1034.5366 C 1494.1982 1034.5366 1510.2751 1039.0988 1510.2751 1039.0988 C 1510.2751 1039.0988 1524.466 1055.0685 1528.2024 1055.0685 C 1528.2024 1055.0685 1536.2944 1054.8899 1543.771 1062.9263 C 1551.2476 1070.9628 1550.5528 1085.2291 1550.5528 1085.2291 C 1550.5528 1085.2291 1558.0294 1101.2941 1558.0294 1109.3266 C 1558.0294 1117.3591 1554.293 1125.3956 1550.5568 1129.4138 C 1546.8204 1133.432 1531.8712 1137.4463 1531.8712 1137.4463 C 1531.8712 1137.4463 1528.1349 1145.4788 1520.6582 1149.497 C 1498.2363 1153.5153 1483.287 1149.497 1483.287 1149.497 L 1475.8144 1141.4646 C 1475.8144 1141.4646 1449.6562 1137.4463 1445.9199 1137.4463 C 1442.1835 1137.4463 1430.9706 1121.3774 1430.9706 1117.3591 C 1430.9706 1113.3409 1430.9706 1101.2901 1434.7069 1089.2394 C 1442.1835 1077.1887 1445.9199 1073.1744 1445.9199 1073.1744 C 1445.9199 1073.1744 1441.2028 1066.6507 1444.9391 1058.6143 C 1452.4118 1050.5818 1468.2901 1046.4484 1468.2901 1046.4484 Z" fill="#8ac5ff" fill-opacity=".7"/>
        </g>
        <g id="Graphic_10">
          <path d="M 1473.7378 1041.8544 C 1473.7378 1041.8544 1487.2299 1038.3126 1490.724 1038.3126 C 1494.218 1038.3126 1509.2547 1042.2951 1509.2547 1042.2951 C 1509.2547 1042.2951 1522.5244 1056.2359 1526.0185 1056.2359 C 1526.0185 1056.2359 1533.5865 1056.081 1540.5787 1063.0931 C 1547.567 1070.1051 1546.9237 1082.5609 1546.9237 1082.5609 C 1546.9237 1082.5609 1548.0156 1099.416 1550.8466 1099.9243 C 1558.0334 1101.2107 1551.5097 1114.667 1548.0156 1118.1731 C 1544.5215 1121.6791 1520.1818 1123.2435 1520.1818 1123.2435 C 1520.1818 1123.2435 1521.0394 1134.1825 1514.0472 1137.6925 C 1493.0785 1141.1985 1484.0097 1138.6693 1484.0097 1138.6693 L 1477.0215 1131.6572 C 1477.0215 1131.6572 1459.9876 1115.3897 1456.4935 1115.3897 C 1452.9994 1115.3897 1435.0801 1114.1231 1435.0801 1110.617 C 1435.0801 1107.111 1435.0801 1096.589 1438.5743 1086.0709 C 1445.5625 1075.5528 1449.0606 1072.0428 1449.0606 1072.0428 C 1449.0606 1072.0428 1444.6493 1066.345 1448.1434 1059.333 C 1455.1316 1052.3209 1469.9816 1048.7116 1469.9816 1048.7116 L 1473.7378 1041.8544 Z" fill="#8ac5ff" fill-opacity=".8"/>
        </g>
        <g id="Graphic_9">
          <path d="M 1448.0044 1070.7801 L 1463.8113 1078.1297 L 1455.5525 1083.9585 L 1438.5822 1086.0709 Z" fill="#8ac5ff" fill-opacity=".7"/>
        </g>
        <g id="Graphic_8">
          <path d="M 1429.3704 1108.0401 C 1429.3704 1108.0401 1433.8532 1122.9934 1435.0325 1124.7682 C 1436.2118 1126.5431 1451.308 1125.2765 1453.194 1125.2765 C 1455.08 1125.2765 1464.2799 1130.0928 1464.2799 1130.0928 C 1464.2799 1130.0928 1452.0147 1133.3884 1447.7701 1132.8801 C 1443.5256 1132.3719 1432.4913 1130.3906 1431.4947 1127.5556 C 1430.4981 1124.7206 1429.3704 1108.0401 1429.3704 1108.0401 Z" fill="#8ac5ff" fill-opacity=".6"/>
        </g>
        <g id="Graphic_7">
          <path d="M 1452.0147 1058.8684 C 1453.9603 1058.253 1467.3451 1052.5313 1470.1762 1052.7854 C 1473.0072 1053.0396 1485.038 1059.8809 1482.207 1062.164 C 1479.376 1064.447 1463.8074 1062.6722 1459.3285 1062.6722 C 1454.8497 1062.6722 1448.0044 1060.135 1452.0147 1058.8684 Z M 1442.5806 1089.5372 C 1443.7837 1087.27 1459.801 1086.4957 1459.801 1086.4957 C 1459.801 1086.4957 1480.5593 1094.8618 1480.5593 1096.1284 C 1480.5593 1097.395 1461.691 1106.0151 1459.801 1106.2653 C 1457.911 1106.5154 1441.6356 1091.312 1442.5806 1089.5372 Z M 1489.0484 1104.9987 C 1488.6751 1102.9935 1497.069 1090.8038 1498.7207 1089.7913 C 1500.3725 1088.7788 1522.5443 1082.946 1526.3163 1082.946 C 1530.0884 1082.946 1542.1193 1091.8163 1542.3575 1093.5912 C 1542.5918 1095.366 1531.7441 1107.5319 1528.913 1108.5444 C 1526.082 1109.5609 1489.7551 1108.7985 1489.0484 1104.9987 Z M 1510.2791 1071.5385 C 1509.3857 1073.6707 1531.5099 1076.609 1533.8684 1075.5925 C 1536.227 1074.58 1540.4715 1067.7347 1539.7647 1065.9599 C 1539.058 1064.185 1532.2166 1059.1146 1528.6788 1059.6228 C 1525.137 1060.135 1512.3994 1066.472 1510.2791 1071.5385 Z M 1492.8244 1040.3654 C 1494.8018 1040.7903 1507.9206 1043.9151 1509.5724 1046.4484 C 1511.2241 1048.9816 1501.79 1056.8394 1499.1932 1057.0935 C 1496.6004 1057.3476 1478.9075 1046.4484 1477.0215 1045.1818 C 1475.1354 1043.9151 1489.2826 1039.6031 1492.8244 1040.3654 Z" fill="#8ac5ff" fill-opacity=".9"/>
        </g>
        <g id="Graphic_6">
          <path d="M 1474.8972 1145.2962 C 1473.2454 1142.763 1475.8422 1134.3969 1477.2557 1135.4094 C 1478.6693 1136.4219 1482.9178 1139.4634 1483.152 1142.0006 C 1483.3863 1144.5338 1487.6349 1149.3501 1490.7001 1150.8709 C 1493.7654 1152.3916 1510.5134 1152.3916 1513.3444 1151.3791 C 1516.1754 1150.3666 1522.7785 1144.788 1524.4303 1141.4924 C 1526.082 1138.1968 1527.988 1137.9546 1531.8712 1137.4424 C 1535.7544 1136.9301 1539.5026 1140.7935 1534.2059 1143.9303 C 1528.913 1147.067 1523.251 1152.6457 1516.648 1153.9124 C 1510.0449 1155.179 1488.5799 1156.1954 1484.8038 1154.6747 C 1481.0278 1153.154 1474.8972 1145.2962 1474.8972 1145.2962 Z" fill="#8ac5ff" fill-opacity=".6"/>
        </g>
        <g id="Graphic_5">
          <path d="M 1503.2353 1126.9918 C 1501.246 1125.9237 1500.5035 1117.0851 1501.528 1116.3506 C 1502.5524 1115.616 1512.1135 1117.0851 1514.333 1117.4504 C 1516.5526 1117.8157 1530.0407 1116.7159 1531.4066 1118.185 C 1532.7725 1119.6541 1536.0641 1125.0382 1537.2116 1128.2743 C 1538.3591 1131.5143 1530.8944 1131.0259 1527.992 1130.2913 C 1525.0894 1129.5568 1505.967 1128.4609 1503.2353 1126.9918 Z M 1473.0072 1068.497 C 1475.6 1068.497 1486.4516 1068.243 1488.8101 1068.497 C 1491.1687 1068.7512 1498.7168 1075.8466 1495.179 1076.609 C 1491.6412 1077.3713 1482.207 1079.9046 1480.7896 1080.1587 C 1479.372 1080.4128 1474.1865 1075.5965 1472.5347 1074.3299 C 1470.8869 1073.0593 1470.1801 1068.497 1473.0072 1068.497 Z M 1502.731 1061.4016 C 1504.0413 1059.2932 1509.0999 1058.6143 1509.3341 1060.8934 C 1509.5684 1063.1765 1508.1549 1068.243 1505.3238 1067.9888 C 1502.4928 1067.7387 1500.841 1064.4431 1502.731 1061.4016 Z M 1489.0484 1114.8815 C 1491.403 1114.5996 1495.8897 1114.1191 1495.8897 1116.1481 C 1495.8897 1118.177 1493.0587 1118.9354 1489.7551 1118.6813 C 1486.4556 1118.4312 1486.9241 1115.1356 1489.0484 1114.8815 Z" fill="#8ac5ff" fill-opacity=".7"/>
        </g>
        <g id="Graphic_4">
          <title>Bézier</title>
          <path d="M 1479.8485 1086.7499 C 1481.9093 1084.979 1489.0484 1084.7209 1490.7001 1085.4832 C 1492.352 1086.2456 1488.8141 1091.5662 1486.6899 1091.8203 C 1484.5656 1092.0704 1477.49 1088.7749 1479.8485 1086.7499 Z" fill="#8ac5ff" fill-opacity=".95"/>
        </g>
        <g id="Graphic_3">
          <path d="M 1527.023 1125.5266 C 1529.3776 1124.8953 1535.0437 1124.26 1534.8054 1126.0349 C 1534.5712 1127.8097 1532.2126 1131.1053 1530.3226 1130.8512 C 1528.4326 1130.597 1525.137 1126.0349 1527.023 1125.5266 Z M 1511.6926 1143.2712 C 1514.2974 1142.8384 1518.2957 1140.738 1518.0615 1143.2712 C 1517.8272 1145.8044 1514.9962 1149.1 1511.927 1148.5957 C 1508.8616 1148.0875 1508.6274 1143.7754 1511.6926 1143.2712 Z" fill="#8ac5ff" fill-opacity=".6"/>
        </g>
      </g>
    </g>
  </g>
</svg>
