<?xml version="1.0" encoding="UTF-8" standalone="no"?>
<!DOCTYPE svg PUBLIC "-//W3C//DTD SVG 1.1//EN" "http://www.w3.org/Graphics/SVG/1.1/DTD/svg11.dtd">
<svg xmlns:xl="http://www.w3.org/1999/xlink" xmlns="http://www.w3.org/2000/svg" version="1.1" xmlns:dc="http://purl.org/dc/elements/1.1/" viewBox="1427 1033 256 256" width="256" height="256">
  <defs/>
  <g id="Canvas_1" fill-opacity="1" stroke-dasharray="none" stroke-opacity="1" stroke="none" fill="none">
    <title>Canvas 1</title>
    <g id="Canvas_1_Layer_1">
      <title>Layer 1</title>
      <g id="Graphic_35">
        <path d="M 1555 1248.425 C 1461.965 1248.425 1440 1265.915 1440 1274 C 1440 1282.085 1451.4424 1289 1465.5556 1289 L 1644.4444 1289 C 1658.5576 1289 1670 1282.0587 1670 1274 C 1670 1265.9412 1648.035 1248.425 1555 1248.425 Z" fill="#5c913b"/>
      </g>
      <g id="Group_2">
        <title>Canvas_298</title>
        <g id="Group_3">
          <title>Canvas_298_Layer_1</title>
          <g id="Group_4">
            <title>Group_2</title>
            <g id="Group_23">
              <title>Graphic_12</title>
              <g id="Graphic_24">
                <path d="M 1530.6837 1145.1296 C 1530.6837 1145.1296 1546.8945 1140.7729 1550.9473 1140.7729 C 1555 1140.7729 1571.211 1145.1296 1571.211 1145.1296 C 1571.211 1145.1296 1587.4217 1162.5482 1591.4745 1162.5482 C 1591.4745 1162.5482 1599.58 1162.5482 1607.6853 1171.2575 C 1615.7907 1179.9668 1615.7907 1197.3853 1615.7907 1197.3853 C 1615.7907 1197.3853 1623.8962 1214.8038 1623.8962 1223.5131 C 1623.8962 1232.2224 1619.8435 1240.9317 1615.7907 1245.2884 C 1611.738 1249.6451 1595.5272 1253.9977 1595.5272 1253.9977 C 1595.5272 1253.9977 1591.4745 1262.707 1583.369 1267.0637 C 1559.0527 1271.4204 1542.8418 1267.0637 1542.8418 1267.0637 L 1534.7364 1258.3544 C 1534.7364 1258.3544 1506.3675 1253.9977 1502.3147 1253.9977 C 1498.262 1253.9977 1486.1038 1236.5791 1486.1038 1232.2224 C 1486.1038 1227.8658 1486.1038 1214.8038 1490.1565 1201.738 C 1498.262 1188.672 1502.3147 1184.3194 1502.3147 1184.3194 C 1502.3147 1184.3194 1498.262 1175.614 1502.3147 1166.9049 C 1510.42 1158.1956 1526.631 1153.8389 1526.631 1153.8389 Z" fill="#456280"/>
              </g>
            </g>
            <g id="Group_21">
              <title>Graphic_11</title>
              <g id="Graphic_22">
                <path d="M 1532.3412 1146.4791 C 1532.3412 1146.4791 1547.0648 1142.3413 1550.8785 1142.3413 C 1554.692 1142.3413 1571.1014 1146.9979 1571.1014 1146.9979 C 1571.1014 1146.9979 1585.5858 1163.2979 1589.3995 1163.2979 C 1589.3995 1163.2979 1597.6589 1163.1156 1605.2901 1171.3182 C 1612.9214 1179.521 1612.2122 1194.0823 1612.2122 1194.0823 C 1612.2122 1194.0823 1619.8435 1210.4796 1619.8435 1218.6783 C 1619.8435 1226.8769 1616.0298 1235.0796 1612.2163 1239.181 C 1608.4026 1243.2823 1593.1442 1247.3796 1593.1442 1247.3796 C 1593.1442 1247.3796 1589.3306 1255.5782 1581.6993 1259.6796 C 1558.8136 1263.781 1543.555 1259.6796 1543.555 1259.6796 L 1535.9279 1251.481 C 1535.9279 1251.481 1509.2286 1247.3796 1505.415 1247.3796 C 1501.6014 1247.3796 1490.1565 1230.9783 1490.1565 1226.8769 C 1490.1565 1222.7756 1490.1565 1210.4755 1493.9701 1198.1756 C 1501.6014 1185.8756 1505.415 1181.7783 1505.415 1181.7783 C 1505.415 1181.7783 1500.6004 1175.1196 1504.414 1166.917 C 1512.0412 1158.7184 1528.248 1154.4995 1528.248 1154.4995 Z" fill="#8ac5ff" fill-opacity=".7"/>
              </g>
            </g>
            <g id="Group_19">
              <title>Graphic_10</title>
              <g id="Graphic_20">
                <path d="M 1533.8083 1149.8104 C 1533.8083 1149.8104 1547.5795 1146.1954 1551.1459 1146.1954 C 1554.7122 1146.1954 1570.0599 1150.2603 1570.0599 1150.2603 C 1570.0599 1150.2603 1583.604 1164.4894 1587.1704 1164.4894 C 1587.1704 1164.4894 1594.895 1164.3313 1602.0318 1171.4885 C 1609.1646 1178.6455 1608.508 1191.359 1608.508 1191.359 C 1608.508 1191.359 1609.6225 1208.5627 1612.512 1209.0815 C 1619.8475 1210.3945 1613.1889 1224.1291 1609.6225 1227.7077 C 1606.0562 1231.2863 1581.213 1232.883 1581.213 1232.883 C 1581.213 1232.883 1582.0883 1244.0483 1574.9515 1247.6309 C 1553.5491 1251.2094 1544.2927 1248.6279 1544.2927 1248.6279 L 1537.16 1241.4708 C 1537.16 1241.4708 1519.7737 1224.8668 1516.2074 1224.8668 C 1512.641 1224.8668 1494.351 1223.574 1494.351 1219.9954 C 1494.351 1216.4168 1494.351 1205.6772 1497.9175 1194.9415 C 1505.0503 1184.2059 1508.6207 1180.6233 1508.6207 1180.6233 C 1508.6207 1180.6233 1504.1182 1174.8076 1507.6845 1167.6506 C 1514.8173 1160.4934 1529.9745 1156.8095 1529.9745 1156.8095 Z" fill="#8ac5ff" fill-opacity=".8"/>
              </g>
            </g>
            <g id="Group_17">
              <title>Graphic_9</title>
              <g id="Graphic_18">
                <path d="M 1507.5427 1179.3345 L 1523.6765 1186.8361 L 1515.2469 1192.7854 L 1497.9256 1194.9415 Z" fill="#8ac5ff" fill-opacity=".7"/>
              </g>
            </g>
            <g id="Group_15">
              <title>Graphic_8</title>
              <g id="Graphic_16">
                <path d="M 1488.5232 1217.3651 C 1488.5232 1217.3651 1493.0988 1232.6277 1494.3025 1234.4393 C 1495.5062 1236.2509 1510.9146 1234.958 1512.8396 1234.958 C 1514.7646 1234.958 1524.1548 1239.874 1524.1548 1239.874 C 1524.1548 1239.874 1511.636 1243.2378 1507.3035 1242.719 C 1502.9712 1242.2002 1491.7087 1240.178 1490.6915 1237.2843 C 1489.6743 1234.3907 1488.5232 1217.3651 1488.5232 1217.3651 Z" fill="#8ac5ff" fill-opacity=".6"/>
              </g>
            </g>
            <g id="Group_13">
              <title>Graphic_7</title>
              <g id="Graphic_14">
                <path d="M 1511.636 1167.1764 C 1513.6218 1166.5482 1527.2834 1160.7082 1530.173 1160.9675 C 1533.0626 1161.227 1545.3423 1168.2098 1542.4527 1170.5401 C 1539.5632 1172.8704 1523.6725 1171.0588 1519.101 1171.0588 C 1514.5296 1171.0588 1507.5427 1168.4692 1511.636 1167.1764 Z M 1502.0067 1198.4795 C 1503.2347 1196.1654 1519.5833 1195.3751 1519.5833 1195.3751 C 1519.5833 1195.3751 1540.771 1203.9143 1540.771 1205.207 C 1540.771 1206.4999 1521.5124 1215.2983 1519.5833 1215.5536 C 1517.6542 1215.8089 1501.0421 1200.291 1502.0067 1198.4795 Z M 1549.4356 1214.2608 C 1549.0546 1212.2142 1557.6221 1199.7723 1559.308 1198.7389 C 1560.994 1197.7054 1583.6244 1191.752 1587.4744 1191.752 C 1591.3245 1191.752 1603.6043 1200.8058 1603.8474 1202.6174 C 1604.0865 1204.4289 1593.0145 1216.8464 1590.1248 1217.8799 C 1587.2352 1218.9174 1550.157 1218.1392 1549.4356 1214.2608 Z M 1571.1055 1180.1085 C 1570.1936 1182.2848 1592.7754 1185.2839 1595.1827 1184.2464 C 1597.59 1183.213 1601.9224 1176.226 1601.201 1174.4146 C 1600.4796 1172.603 1593.4967 1167.4277 1589.8858 1167.9464 C 1586.2707 1168.4692 1573.2696 1174.9372 1571.1055 1180.1085 Z M 1553.2897 1148.2907 C 1555.308 1148.7243 1568.6982 1151.9138 1570.3842 1154.4995 C 1572.07 1157.0851 1562.4408 1165.1054 1559.7903 1165.3648 C 1557.1438 1165.6241 1539.085 1154.4995 1537.16 1153.2067 C 1535.2349 1151.9138 1549.6747 1147.5126 1553.2897 1148.2907 Z" fill="#8ac5ff" fill-opacity=".9"/>
              </g>
            </g>
            <g id="Group_11">
              <title>Graphic_6</title>
              <g id="Graphic_12">
                <path d="M 1534.9917 1255.3919 C 1533.3058 1252.8063 1535.9563 1244.2671 1537.399 1245.3006 C 1538.8419 1246.334 1543.1782 1249.4384 1543.4173 1252.0281 C 1543.6564 1254.6137 1547.9929 1259.5296 1551.1215 1261.0819 C 1554.2502 1262.634 1571.3446 1262.634 1574.2342 1261.6006 C 1577.1237 1260.5671 1583.8634 1254.8732 1585.5494 1251.5094 C 1587.2352 1248.1456 1589.1807 1247.8984 1593.1442 1247.3756 C 1597.1077 1246.8527 1600.9334 1250.796 1595.5272 1253.9977 C 1590.1248 1257.1993 1584.3457 1262.8934 1577.6061 1264.1863 C 1570.8664 1265.4791 1548.9574 1266.5165 1545.1032 1264.9644 C 1541.2491 1263.4122 1534.9917 1255.3919 1534.9917 1255.3919 Z" fill="#8ac5ff" fill-opacity=".6"/>
              </g>
            </g>
            <g id="Group_9">
              <title>Graphic_5</title>
              <g id="Graphic_10">
                <path d="M 1563.916 1236.7089 C 1561.8855 1235.6187 1561.1277 1226.5972 1562.1734 1225.8475 C 1563.219 1225.0978 1572.9778 1226.5972 1575.2432 1226.9701 C 1577.5087 1227.343 1591.2758 1226.2204 1592.67 1227.7199 C 1594.0641 1229.2194 1597.4238 1234.7148 1598.595 1238.0179 C 1599.7663 1241.3249 1592.1472 1240.8264 1589.1848 1240.0766 C 1586.2221 1239.3269 1566.7042 1238.2083 1563.916 1236.7089 Z M 1533.0626 1177.0041 C 1535.709 1177.0041 1546.7851 1176.7449 1549.1924 1177.0041 C 1551.5998 1177.2636 1559.304 1184.5058 1555.693 1185.2839 C 1552.082 1186.062 1542.4527 1188.6477 1541.006 1188.907 C 1539.559 1189.1664 1534.2663 1184.2505 1532.5804 1182.9577 C 1530.8985 1181.6608 1530.177 1177.0041 1533.0626 1177.0041 Z M 1563.4013 1169.762 C 1564.7387 1167.61 1569.9019 1166.917 1570.141 1169.2433 C 1570.38 1171.5736 1568.9373 1176.7449 1566.0477 1176.4854 C 1563.1581 1176.2301 1561.4722 1172.8664 1563.4013 1169.762 Z M 1549.4356 1224.348 C 1551.839 1224.0603 1556.4184 1223.5699 1556.4184 1225.6409 C 1556.4184 1227.7117 1553.5289 1228.4858 1550.157 1228.2265 C 1546.7892 1227.9712 1547.2674 1224.6074 1549.4356 1224.348 Z" fill="#8ac5ff" fill-opacity=".7"/>
              </g>
            </g>
            <g id="Group_7">
              <title>Graphic_4</title>
              <g id="Graphic_8">
                <path d="M 1540.0454 1195.6346 C 1542.1489 1193.827 1549.4356 1193.5636 1551.1215 1194.3417 C 1552.8076 1195.1198 1549.1965 1200.5505 1547.0284 1200.8099 C 1544.8601 1201.0651 1537.6382 1197.7015 1540.0454 1195.6346 Z" fill="#8ac5ff" fill-opacity=".95"/>
              </g>
            </g>
            <g id="Group_5">
              <title>Graphic_3</title>
              <g id="Graphic_6">
                <path d="M 1588.1957 1235.2133 C 1590.599 1234.569 1596.3823 1233.9205 1596.139 1235.7322 C 1595.9 1237.5437 1593.4927 1240.9074 1591.5636 1240.6481 C 1589.6345 1240.3886 1586.2707 1235.7322 1588.1957 1235.2133 Z M 1572.5482 1253.325 C 1575.2069 1252.8832 1579.2879 1250.7394 1579.0489 1253.325 C 1578.8097 1255.9106 1575.9201 1259.2743 1572.7875 1258.7596 C 1569.6587 1258.2409 1569.4196 1253.8396 1572.5482 1253.325 Z" fill="#8ac5ff" fill-opacity=".6"/>
              </g>
            </g>
          </g>
        </g>
      </g>
    </g>
  </g>
</svg>
