<?xml version="1.0" encoding="UTF-8" standalone="no"?>
<!DOCTYPE svg PUBLIC "-//W3C//DTD SVG 1.1//EN" "http://www.w3.org/Graphics/SVG/1.1/DTD/svg11.dtd">
<svg version="1.1" xmlns="http://www.w3.org/2000/svg" xmlns:xl="http://www.w3.org/1999/xlink" xmlns:dc="http://purl.org/dc/elements/1.1/" viewBox="1564 1035 135 134" width="135" height="134">
  <defs/>
  <g id="Diamond_Gold_Far" stroke-dasharray="none" fill="none" fill-opacity="1" stroke-opacity="1" stroke="none">
    <title>Diamond Gold Far</title>
    <g id="Diamond_Gold_Far_Layer_1">
      <title>Layer 1</title>
      <g id="Graphic_29">
        <path d="M 1631.5 1128.2313 C 1576.8925 1128.2313 1564 1145.7213 1564 1153.8063 C 1564 1161.8913 1570.7162 1168.8063 1579 1168.8063 L 1684 1168.8063 C 1692.2838 1168.8063 1699 1161.865 1699 1153.8063 C 1699 1145.7475 1686.1075 1128.2313 1631.5 1128.2313 Z" fill="#78b159"/>
      </g>
      <g id="Graphic_28">
        <path d="M 1672.015 1139.3687 C 1672.015 1145.11 1667.3575 1147.1687 1661.6162 1147.1687 C 1655.875 1147.1687 1651.2175 1145.1137 1651.2175 1139.3687 L 1653.8162 1115.9725 C 1653.8162 1110.2312 1655.8712 1110.7712 1661.6162 1110.7712 C 1667.3575 1110.7712 1669.4162 1110.2275 1669.4162 1115.9725 L 1672.015 1139.3687 Z" fill="#662113"/>
      </g>
      <g id="Graphic_27">
        <path d="M 1694.755 1107.745 C 1677.5425 1092.2387 1670.5713 1070.035 1661.6163 1070.035 C 1652.6613 1070.035 1645.69 1092.2387 1628.4813 1107.745 C 1621.2475 1114.2625 1624.6938 1118.0312 1634.6088 1117.2775 C 1643.4475 1116.6062 1651.7125 1114.4987 1661.6163 1114.4987 C 1671.52 1114.4987 1679.7888 1116.61 1688.6238 1117.2775 C 1698.5388 1118.0312 1701.985 1114.2587 1694.755 1107.745 Z" fill="#5c913b"/>
      </g>
      <g id="Graphic_26">
        <path d="M 1689.1638 1101.5987 C 1675.9375 1088.845 1668.505 1070.575 1661.6162 1070.575 C 1654.7312 1070.575 1647.2988 1088.845 1634.0725 1101.5987 C 1623.5612 1111.735 1647.8462 1114.0075 1661.6162 1101.5987 C 1675.3825 1114.0075 1699.6712 1111.735 1689.1638 1101.5987 Z" fill="#3e721d"/>
      </g>
      <g id="Graphic_25">
        <path d="M 1689.1638 1091.2675 C 1675.9375 1079.35 1668.505 1062.2837 1661.6162 1062.2837 C 1654.7312 1062.2837 1647.2988 1079.35 1634.0725 1091.2675 C 1623.5612 1100.7362 1647.8462 1102.8587 1661.6162 1091.2675 C 1675.3825 1102.8587 1699.6712 1100.7325 1689.1638 1091.2675 Z" fill="#5c913b"/>
      </g>
      <g id="Graphic_24">
        <path d="M 1683.1225 1082.8038 C 1672.7988 1073.5 1666.9938 1060.1763 1661.6163 1060.1763 C 1656.2425 1060.1763 1650.4375 1073.5 1640.11 1082.8038 C 1631.905 1090.195 1650.8613 1091.8563 1661.6163 1082.8038 C 1672.3675 1091.8525 1691.3275 1090.195 1683.1225 1082.8038 Z" fill="#3e721d"/>
      </g>
      <g id="Graphic_23">
        <path d="M 1683.1225 1075.06 C 1672.7988 1065.7562 1666.9938 1052.4325 1661.6163 1052.4325 C 1656.2425 1052.4325 1650.4375 1065.7562 1640.11 1075.06 C 1631.905 1082.4512 1650.8613 1084.1125 1661.6163 1075.06 C 1672.3675 1084.1125 1691.3275 1082.455 1683.1225 1075.06 Z" fill="#5c913b"/>
      </g>
      <g id="Graphic_22">
        <path d="M 1678.9712 1068.1862 C 1670.6387 1060.6787 1665.955 1049.9275 1661.6162 1049.9275 C 1657.2775 1049.9275 1652.5938 1060.6787 1644.2612 1068.1862 C 1637.6387 1074.1525 1652.9388 1075.4912 1661.6162 1068.1862 C 1670.2938 1075.4912 1685.5975 1074.1525 1678.9712 1068.1862 Z" fill="#3e721d"/>
      </g>
      <g id="Graphic_21">
        <path d="M 1678.9712 1062.3587 C 1670.6387 1054.8512 1665.955 1044.1 1661.6162 1044.1 C 1657.2775 1044.1 1652.5938 1054.8512 1644.2612 1062.3587 C 1637.6387 1068.325 1652.9388 1069.6637 1661.6162 1062.3587 C 1670.2938 1069.6637 1685.5975 1068.325 1678.9712 1062.3587 Z" fill="#5c913b"/>
      </g>
      <g id="Graphic_20">
        <path d="M 1674.8237 1053.7787 C 1668.4862 1048.0675 1664.92 1039.885 1661.6162 1039.885 C 1658.3162 1039.885 1654.75 1048.0675 1648.4087 1053.7787 C 1643.3687 1058.32 1655.0125 1059.3362 1661.6162 1053.7787 C 1668.22 1059.34 1679.8637 1058.32 1674.8237 1053.7787 Z" fill="#3e721d"/>
      </g>
      <g id="Graphic_19">
        <path d="M 1674.8237 1049.8937 C 1668.4862 1044.1825 1664.92 1036 1661.6162 1036 C 1658.3162 1036 1654.75 1044.1825 1648.4087 1049.8937 C 1643.3687 1054.435 1655.0125 1055.4512 1661.6162 1049.8937 C 1668.22 1055.4512 1679.8637 1054.435 1674.8237 1049.8937 Z" fill="#5c913b"/>
      </g>
    </g>
    <g id="Diamond_Gold_Far_Layer_4">
      <title>Layer 4</title>
      <g id="Group_30">
        <g id="Group_37">
          <g id="Graphic_42">
            <path d="M 1608.8849 1067.547 L 1590.883 1067.547 L 1569.8808 1094.5497 L 1599.884 1094.5497 Z" fill="white"/>
          </g>
          <g id="Graphic_41">
            <path d="M 1677.892 1094.5497 L 1656.8898 1067.547 L 1638.888 1067.547 L 1647.889 1094.5497 Z" fill="white"/>
          </g>
          <g id="Graphic_40">
            <path d="M 1647.889 1094.5497 L 1677.892 1094.5497 L 1623.8864 1157.5562 Z" fill="white"/>
          </g>
          <g id="Graphic_39">
            <path d="M 1599.884 1094.5497 L 1569.8808 1094.5497 L 1623.8864 1157.5562 Z M 1608.8849 1067.547 L 1599.884 1094.5497 L 1647.889 1094.5497 L 1638.888 1067.547 Z" fill="white"/>
          </g>
          <g id="Graphic_38">
            <path d="M 1623.8864 1157.5562 L 1599.884 1094.5497 L 1647.889 1094.5497 Z" fill="white"/>
          </g>
        </g>
        <g id="Group_31">
          <g id="Graphic_36">
            <path d="M 1608.8849 1067.547 L 1590.883 1067.547 L 1569.8808 1094.5497 L 1599.884 1094.5497 Z" fill="#ffb000" fill-opacity=".25"/>
          </g>
          <g id="Graphic_35">
            <path d="M 1677.892 1094.5497 L 1656.8898 1067.547 L 1638.888 1067.547 L 1647.889 1094.5497 Z" fill="#ffb000" fill-opacity=".7"/>
          </g>
          <g id="Graphic_34">
            <path d="M 1647.889 1094.5497 L 1677.892 1094.5497 L 1623.8864 1157.5562 Z" fill="#ffb000" fill-opacity=".9"/>
          </g>
          <g id="Graphic_33">
            <path d="M 1599.884 1094.5497 L 1569.8808 1094.5497 L 1623.8864 1157.5562 Z M 1608.8849 1067.547 L 1599.884 1094.5497 L 1647.889 1094.5497 L 1638.888 1067.547 Z" fill="#ffb000" fill-opacity=".5"/>
          </g>
          <g id="Graphic_32">
            <path d="M 1623.8864 1157.5562 L 1599.884 1094.5497 L 1647.889 1094.5497 Z" fill="#ffb000" fill-opacity=".6"/>
          </g>
        </g>
      </g>
    </g>
  </g>
</svg>
