<?xml version="1.0" encoding="UTF-8" standalone="no"?>
<!DOCTYPE svg PUBLIC "-//W3C//DTD SVG 1.1//EN" "http://www.w3.org/Graphics/SVG/1.1/DTD/svg11.dtd">
<svg version="1.1" xmlns="http://www.w3.org/2000/svg" xmlns:xl="http://www.w3.org/1999/xlink" xmlns:dc="http://purl.org/dc/elements/1.1/" viewBox="1564 1035 135 134" width="135" height="134">
  <defs/>
  <g id="Stone_Blue_Far_2" stroke-dasharray="none" fill="none" fill-opacity="1" stroke-opacity="1" stroke="none">
    <title>Stone Blue Far 2</title>
    <g id="Stone_Blue_Far_2_Layer_1">
      <title>Layer 1</title>
      <g id="Graphic_29">
        <path d="M 1631.5 1128.2313 C 1576.8925 1128.2313 1564 1145.7213 1564 1153.8063 C 1564 1161.8913 1570.7162 1168.8063 1579 1168.8063 L 1684 1168.8063 C 1692.2838 1168.8063 1699 1161.865 1699 1153.8063 C 1699 1145.7475 1686.1075 1128.2313 1631.5 1128.2313 Z" fill="#78b159"/>
      </g>
      <g id="Graphic_28">
        <path d="M 1672.015 1139.3687 C 1672.015 1145.11 1667.3575 1147.1687 1661.6162 1147.1687 C 1655.875 1147.1687 1651.2175 1145.1137 1651.2175 1139.3687 L 1653.8162 1115.9725 C 1653.8162 1110.2312 1655.8712 1110.7712 1661.6162 1110.7712 C 1667.3575 1110.7712 1669.4162 1110.2275 1669.4162 1115.9725 L 1672.015 1139.3687 Z" fill="#662113"/>
      </g>
      <g id="Graphic_27">
        <path d="M 1694.755 1107.745 C 1677.5425 1092.2387 1670.5713 1070.035 1661.6163 1070.035 C 1652.6613 1070.035 1645.69 1092.2387 1628.4813 1107.745 C 1621.2475 1114.2625 1624.6938 1118.0312 1634.6088 1117.2775 C 1643.4475 1116.6062 1651.7125 1114.4987 1661.6163 1114.4987 C 1671.52 1114.4987 1679.7888 1116.61 1688.6238 1117.2775 C 1698.5388 1118.0312 1701.985 1114.2587 1694.755 1107.745 Z" fill="#5c913b"/>
      </g>
      <g id="Graphic_26">
        <path d="M 1689.1638 1101.5987 C 1675.9375 1088.845 1668.505 1070.575 1661.6162 1070.575 C 1654.7312 1070.575 1647.2988 1088.845 1634.0725 1101.5987 C 1623.5612 1111.735 1647.8462 1114.0075 1661.6162 1101.5987 C 1675.3825 1114.0075 1699.6712 1111.735 1689.1638 1101.5987 Z" fill="#3e721d"/>
      </g>
      <g id="Graphic_25">
        <path d="M 1689.1638 1091.2675 C 1675.9375 1079.35 1668.505 1062.2837 1661.6162 1062.2837 C 1654.7312 1062.2837 1647.2988 1079.35 1634.0725 1091.2675 C 1623.5612 1100.7362 1647.8462 1102.8587 1661.6162 1091.2675 C 1675.3825 1102.8587 1699.6712 1100.7325 1689.1638 1091.2675 Z" fill="#5c913b"/>
      </g>
      <g id="Graphic_24">
        <path d="M 1683.1225 1082.8038 C 1672.7988 1073.5 1666.9938 1060.1763 1661.6163 1060.1763 C 1656.2425 1060.1763 1650.4375 1073.5 1640.11 1082.8038 C 1631.905 1090.195 1650.8613 1091.8563 1661.6163 1082.8038 C 1672.3675 1091.8525 1691.3275 1090.195 1683.1225 1082.8038 Z" fill="#3e721d"/>
      </g>
      <g id="Graphic_23">
        <path d="M 1683.1225 1075.06 C 1672.7988 1065.7562 1666.9938 1052.4325 1661.6163 1052.4325 C 1656.2425 1052.4325 1650.4375 1065.7562 1640.11 1075.06 C 1631.905 1082.4512 1650.8613 1084.1125 1661.6163 1075.06 C 1672.3675 1084.1125 1691.3275 1082.455 1683.1225 1075.06 Z" fill="#5c913b"/>
      </g>
      <g id="Graphic_22">
        <path d="M 1678.9712 1068.1862 C 1670.6387 1060.6787 1665.955 1049.9275 1661.6162 1049.9275 C 1657.2775 1049.9275 1652.5938 1060.6787 1644.2612 1068.1862 C 1637.6387 1074.1525 1652.9388 1075.4912 1661.6162 1068.1862 C 1670.2938 1075.4912 1685.5975 1074.1525 1678.9712 1068.1862 Z" fill="#3e721d"/>
      </g>
      <g id="Graphic_21">
        <path d="M 1678.9712 1062.3587 C 1670.6387 1054.8512 1665.955 1044.1 1661.6162 1044.1 C 1657.2775 1044.1 1652.5938 1054.8512 1644.2612 1062.3587 C 1637.6387 1068.325 1652.9388 1069.6637 1661.6162 1062.3587 C 1670.2938 1069.6637 1685.5975 1068.325 1678.9712 1062.3587 Z" fill="#5c913b"/>
      </g>
      <g id="Graphic_20">
        <path d="M 1674.8237 1053.7787 C 1668.4862 1048.0675 1664.92 1039.885 1661.6162 1039.885 C 1658.3162 1039.885 1654.75 1048.0675 1648.4087 1053.7787 C 1643.3687 1058.32 1655.0125 1059.3362 1661.6162 1053.7787 C 1668.22 1059.34 1679.8637 1058.32 1674.8237 1053.7787 Z" fill="#3e721d"/>
      </g>
      <g id="Graphic_19">
        <path d="M 1674.8237 1049.8937 C 1668.4862 1044.1825 1664.92 1036 1661.6162 1036 C 1658.3162 1036 1654.75 1044.1825 1648.4087 1049.8937 C 1643.3687 1054.435 1655.0125 1055.4512 1661.6162 1049.8937 C 1668.22 1055.4512 1679.8637 1054.435 1674.8237 1049.8937 Z" fill="#5c913b"/>
      </g>
    </g>
    <g id="Stone_Blue_Far_2_Layer_4">
      <title>Layer 4</title>
      <g id="Group_30">
        <g id="Graphic_40">
          <path d="M 1606.8175 1070.6051 C 1606.8175 1070.6051 1618.1968 1067.547 1621.0416 1067.547 C 1623.8864 1067.547 1635.2657 1070.6051 1635.2657 1070.6051 C 1635.2657 1070.6051 1646.645 1082.8321 1649.4898 1082.8321 C 1649.4898 1082.8321 1655.1794 1082.8321 1660.869 1088.9456 C 1666.5587 1095.0591 1666.5587 1107.2862 1666.5587 1107.2862 C 1666.5587 1107.2862 1672.2483 1119.5132 1672.2483 1125.6267 C 1672.2483 1131.7402 1669.4035 1137.8537 1666.5587 1140.9119 C 1663.7138 1143.97 1652.3346 1147.0254 1652.3346 1147.0254 C 1652.3346 1147.0254 1649.4898 1153.1389 1643.8001 1156.197 C 1626.7312 1159.2552 1615.352 1156.197 1615.352 1156.197 L 1609.6624 1150.0836 C 1609.6624 1150.0836 1589.7487 1147.0254 1586.9038 1147.0254 C 1584.059 1147.0254 1575.5246 1134.7984 1575.5246 1131.7402 C 1575.5246 1128.682 1575.5246 1119.5132 1578.3694 1110.3415 C 1584.059 1101.1698 1586.9038 1098.1145 1586.9038 1098.1145 C 1586.9038 1098.1145 1584.059 1092.0038 1586.9038 1085.8903 C 1592.5935 1079.7768 1603.9727 1076.7186 1603.9727 1076.7186 L 1606.8175 1070.6051 Z" fill="#805800"/>
        </g>
        <g id="Graphic_39">
          <path d="M 1607.981 1071.5524 C 1607.981 1071.5524 1618.3163 1068.6479 1620.9933 1068.6479 C 1623.6702 1068.6479 1635.1889 1071.9166 1635.1889 1071.9166 C 1635.1889 1071.9166 1645.3562 1083.3584 1648.0332 1083.3584 C 1648.0332 1083.3584 1653.831 1083.2304 1659.1877 1088.9883 C 1664.5445 1094.7462 1664.0467 1104.9676 1664.0467 1104.9676 C 1664.0467 1104.9676 1669.4035 1116.4778 1669.4035 1122.2328 C 1669.4035 1127.9879 1666.7265 1133.7458 1664.0495 1136.6247 C 1661.3726 1139.5037 1650.6618 1142.3798 1650.6618 1142.3798 C 1650.6618 1142.3798 1647.9849 1148.1349 1642.628 1151.0138 C 1626.5634 1153.8928 1615.8527 1151.0138 1615.8527 1151.0138 L 1610.4987 1145.2587 C 1610.4987 1145.2587 1591.757 1142.3798 1589.0801 1142.3798 C 1586.4031 1142.3798 1578.3694 1130.8668 1578.3694 1127.9879 C 1578.3694 1125.1089 1578.3694 1116.4749 1581.0464 1107.8409 C 1586.4031 1099.2069 1589.0801 1096.3308 1589.0801 1096.3308 C 1589.0801 1096.3308 1585.7005 1091.6567 1588.3775 1085.8988 C 1593.7314 1080.1438 1605.1078 1077.1823 1605.1078 1077.1823 Z" fill="#ffb000" fill-opacity=".7"/>
        </g>
        <g id="Graphic_38">
          <path d="M 1609.0109 1073.8909 C 1609.0109 1073.8909 1618.6776 1071.3533 1621.181 1071.3533 C 1623.6844 1071.3533 1634.4578 1074.2067 1634.4578 1074.2067 C 1634.4578 1074.2067 1643.9651 1084.1948 1646.4686 1084.1948 C 1646.4686 1084.1948 1651.8908 1084.0839 1656.9005 1089.1078 C 1661.9074 1094.1317 1661.4465 1103.0559 1661.4465 1103.0559 C 1661.4465 1103.0559 1662.2288 1115.1322 1664.2572 1115.4963 C 1669.4063 1116.418 1664.7323 1126.0591 1662.2288 1128.571 C 1659.7254 1131.083 1642.2867 1132.2039 1642.2867 1132.2039 C 1642.2867 1132.2039 1642.9012 1140.0414 1637.8915 1142.5562 C 1622.868 1145.0681 1616.3704 1143.256 1616.3704 1143.256 L 1611.3636 1138.232 C 1611.3636 1138.232 1599.1593 1126.5768 1596.6559 1126.5768 C 1594.1524 1126.5768 1581.3138 1125.6694 1581.3138 1123.1574 C 1581.3138 1120.6454 1581.3138 1113.1067 1583.8172 1105.5707 C 1588.824 1098.0348 1591.3304 1095.52 1591.3304 1095.52 C 1591.3304 1095.52 1588.1698 1091.4377 1590.6732 1086.4138 C 1595.68 1081.3898 1606.3197 1078.8039 1606.3197 1078.8039 L 1609.0109 1073.8909 Z" fill="#e69f00"/>
        </g>
        <g id="Graphic_37">
          <path d="M 1590.5736 1094.6154 L 1601.8989 1099.8811 L 1595.9816 1104.0573 L 1583.8229 1105.5707 Z" fill="#ffb000" fill-opacity=".7"/>
        </g>
        <g id="Graphic_36">
          <path d="M 1577.223 1121.3111 C 1577.223 1121.3111 1580.4347 1132.0247 1581.2796 1133.2963 C 1582.1245 1134.568 1592.9405 1133.6604 1594.2918 1133.6604 C 1595.6431 1133.6604 1602.2345 1137.1112 1602.2345 1137.1112 C 1602.2345 1137.1112 1593.447 1139.4724 1590.4058 1139.1083 C 1587.3647 1138.7441 1579.459 1137.3246 1578.745 1135.2934 C 1578.0309 1133.2622 1577.223 1121.3111 1577.223 1121.3111 Z" fill="#ffb000" fill-opacity=".6"/>
        </g>
        <g id="Graphic_35">
          <path d="M 1593.447 1086.0809 C 1594.8409 1085.64 1604.4307 1081.5406 1606.459 1081.7227 C 1608.4874 1081.9047 1617.1072 1086.8063 1615.0789 1088.4421 C 1613.0505 1090.0779 1601.896 1088.8062 1598.687 1088.8062 C 1595.4781 1088.8062 1590.5736 1086.9884 1593.447 1086.0809 Z M 1586.6876 1108.0543 C 1587.5496 1106.4299 1599.0256 1105.8751 1599.0256 1105.8751 C 1599.0256 1105.8751 1613.8983 1111.8692 1613.8983 1112.7767 C 1613.8983 1113.6841 1600.3797 1119.8602 1599.0256 1120.0395 C 1597.6715 1120.2187 1586.0106 1109.3259 1586.6876 1108.0543 Z M 1619.9805 1119.132 C 1619.713 1117.6953 1625.727 1108.9618 1626.9105 1108.2363 C 1628.094 1107.5109 1643.9794 1103.3319 1646.682 1103.3319 C 1649.3845 1103.3319 1658.0043 1109.6872 1658.175 1110.9588 C 1658.3428 1112.2304 1650.5708 1120.947 1648.5424 1121.6724 C 1646.514 1122.4007 1620.4869 1121.8545 1619.9805 1119.132 Z M 1635.1917 1095.1587 C 1634.5516 1096.6864 1650.403 1098.7915 1652.0928 1098.0633 C 1653.7826 1097.3378 1656.8237 1092.4334 1656.3173 1091.1617 C 1655.811 1089.8901 1650.9093 1086.2573 1648.3746 1086.6214 C 1645.837 1086.9884 1636.7109 1091.5287 1635.1917 1095.1587 Z M 1622.686 1072.8241 C 1624.1026 1073.1285 1633.5019 1075.3673 1634.6853 1077.1823 C 1635.8688 1078.9973 1629.1095 1084.6272 1627.249 1084.8093 C 1625.3913 1084.9913 1612.7148 1077.1823 1611.3636 1076.2748 C 1610.0123 1075.3673 1620.1483 1072.2779 1622.686 1072.8241 Z" fill="#ffb000" fill-opacity=".8"/>
        </g>
        <g id="Graphic_34">
          <path d="M 1609.8416 1148.004 C 1608.6581 1146.189 1610.5186 1140.195 1611.5314 1140.9204 C 1612.5442 1141.6458 1615.5881 1143.825 1615.756 1145.6428 C 1615.9238 1147.4578 1618.9677 1150.9086 1621.164 1151.9981 C 1623.3601 1153.0877 1635.3596 1153.0877 1637.388 1152.3623 C 1639.4163 1151.6368 1644.1472 1147.6399 1645.3306 1145.2787 C 1646.514 1142.9175 1647.8796 1142.7439 1650.6618 1142.377 C 1653.444 1142.01 1656.1296 1144.778 1652.3346 1147.0254 C 1648.5424 1149.2728 1644.4857 1153.2697 1639.7548 1154.1772 C 1635.0239 1155.0847 1619.6448 1155.813 1616.9394 1154.7234 C 1614.234 1153.6339 1609.8416 1148.004 1609.8416 1148.004 Z" fill="#ffb000" fill-opacity=".6"/>
        </g>
        <g id="Graphic_33">
          <path d="M 1630.145 1134.8894 C 1628.7198 1134.1241 1628.1878 1127.7916 1628.9218 1127.2653 C 1629.6557 1126.739 1636.506 1127.7916 1638.0963 1128.0533 C 1639.6865 1128.315 1649.3504 1127.527 1650.329 1128.5796 C 1651.3076 1129.6322 1653.666 1133.4897 1654.4881 1135.8083 C 1655.3103 1138.1296 1649.962 1137.7797 1647.8824 1137.2534 C 1645.8029 1136.7271 1632.1023 1135.942 1630.145 1134.8894 Z M 1608.4874 1092.9796 C 1610.3451 1092.9796 1618.12 1092.7975 1619.8098 1092.9796 C 1621.4996 1093.1617 1626.9076 1098.2453 1624.3729 1098.7915 C 1621.8382 1099.3377 1615.0789 1101.1527 1614.0633 1101.3348 C 1613.0477 1101.5169 1609.3324 1098.0661 1608.149 1097.1586 C 1606.9683 1096.2483 1606.462 1092.9796 1608.4874 1092.9796 Z M 1629.7837 1087.8959 C 1630.7225 1086.3853 1634.3468 1085.8988 1634.5147 1087.5318 C 1634.6825 1089.1675 1633.6697 1092.7975 1631.6414 1092.6155 C 1629.613 1092.4362 1628.4296 1090.075 1629.7837 1087.8959 Z M 1619.9805 1126.2127 C 1621.6675 1126.0107 1624.8821 1125.6665 1624.8821 1127.1202 C 1624.8821 1128.5739 1622.8538 1129.1173 1620.4869 1128.9352 C 1618.1228 1128.756 1618.4585 1126.3948 1619.9805 1126.2127 Z" fill="#ffb000" fill-opacity=".7"/>
        </g>
        <g id="Graphic_32">
          <path d="M 1613.389 1106.0572 C 1614.8655 1104.7884 1619.9805 1104.6035 1621.164 1105.1497 C 1622.3474 1105.6959 1619.8127 1109.508 1618.2907 1109.69 C 1616.7687 1109.8693 1611.6992 1107.508 1613.389 1106.0572 Z" fill="#ffb000" fill-opacity=".95"/>
        </g>
        <g id="Graphic_31">
          <path d="M 1647.1883 1133.8397 C 1648.8753 1133.3873 1652.9348 1132.9322 1652.7641 1134.2038 C 1652.5963 1135.4754 1650.9065 1137.8366 1649.5523 1137.6546 C 1648.1982 1137.4725 1645.837 1134.2038 1647.1883 1133.8397 Z M 1636.2045 1146.5531 C 1638.0707 1146.243 1640.9354 1144.7381 1640.7676 1146.5531 C 1640.5997 1148.3681 1638.5714 1150.7293 1636.3723 1150.368 C 1634.1761 1150.0039 1634.0083 1146.9144 1636.2045 1146.5531 Z" fill="#ffb000" fill-opacity=".6"/>
        </g>
      </g>
    </g>
  </g>
</svg>
