<?xml version="1.0" encoding="UTF-8" standalone="no"?>
<!DOCTYPE svg PUBLIC "-//W3C//DTD SVG 1.1//EN" "http://www.w3.org/Graphics/SVG/1.1/DTD/svg11.dtd">
<svg xmlns:dc="http://purl.org/dc/elements/1.1/" xmlns="http://www.w3.org/2000/svg" version="1.1" xmlns:xl="http://www.w3.org/1999/xlink" viewBox="1564 1035 256 256" width="256" height="256">
  <defs/>
  <g id="Canvas_1" stroke="none" stroke-dasharray="none" fill="none" stroke-opacity="1" fill-opacity="1">
    <title>Canvas 1</title>
    <g id="Canvas_1_Layer_1">
      <title>Layer 1</title>
      <g id="Group_59">
        <title>Graphic_78</title>
        <g id="Graphic_60">
          <path d="M 1692 1250.425 C 1598.965 1250.425 1577 1267.915 1577 1276 C 1577 1284.085 1588.4424 1291 1602.5556 1291 L 1781.4444 1291 C 1795.5576 1291 1807 1284.0587 1807 1276 C 1807 1267.9412 1785.035 1250.425 1692 1250.425 Z" fill="#5c913b"/>
        </g>
      </g>
    </g>
    <g id="Canvas_1_Layer_2">
      <title>Layer 2</title>
      <g id="Group_61">
        <g id="Graphic_63">
          <path d="M 1688.6667 1083.3333 C 1688.6667 1083.3333 1688.6667 1080 1692 1080 C 1695.3333 1080 1695.3333 1083.3333 1695.3333 1083.3333 L 1695.3333 1086.6667 C 1695.3333 1086.6667 1695.3333 1090 1692 1090 C 1688.6667 1090 1688.6667 1086.6667 1688.6667 1086.6667 Z M 1718.6667 1106.6667 C 1718.6667 1106.6667 1722 1106.6667 1722 1110 C 1722 1113.3333 1718.6667 1113.3333 1718.6667 1113.3333 L 1715.3333 1113.3333 C 1715.3333 1113.3333 1712 1113.3333 1712 1110 C 1712 1106.6667 1715.3333 1106.6667 1715.3333 1106.6667 Z M 1668.6667 1106.6667 C 1668.6667 1106.6667 1672 1106.6667 1672 1110 C 1672 1113.3333 1668.6667 1113.3333 1668.6667 1113.3333 L 1665.3333 1113.3333 C 1665.3333 1113.3333 1662 1113.3333 1662 1110 C 1662 1106.6667 1665.3333 1106.6667 1665.3333 1106.6667 Z M 1677.2017 1092.155 C 1677.2017 1092.155 1679.5583 1094.5117 1677.2017 1096.8683 C 1674.845 1099.225 1672.4883 1096.8683 1672.4883 1096.8683 L 1670.13 1094.5133 C 1670.13 1094.5133 1667.7733 1092.1567 1670.13 1089.7983 C 1672.4883 1087.4417 1674.845 1089.7983 1674.845 1089.7983 Z M 1712.2017 1127.155 C 1712.2017 1127.155 1714.5583 1129.5117 1712.2017 1131.8683 C 1709.845 1134.225 1707.4883 1131.8683 1707.4883 1131.8683 L 1705.1317 1129.5117 C 1705.1317 1129.5117 1702.775 1127.155 1705.1317 1124.7983 C 1707.4883 1122.4417 1709.845 1124.7983 1709.845 1124.7983 Z M 1711.5133 1096.8683 C 1711.5133 1096.8683 1709.1567 1099.225 1706.8 1096.8683 C 1704.4433 1094.5117 1706.8 1092.155 1706.8 1092.155 L 1709.1567 1089.7983 C 1709.1567 1089.7983 1711.5133 1087.4417 1713.87 1089.7983 C 1716.2267 1092.155 1713.87 1094.5117 1713.87 1094.5117 Z M 1676.5133 1131.8683 C 1676.5133 1131.8683 1674.1567 1134.225 1671.8 1131.8683 C 1669.4433 1129.5117 1671.8 1127.155 1671.8 1127.155 L 1674.1567 1124.7983 C 1674.1567 1124.7983 1676.5133 1122.4417 1678.87 1124.7983 C 1681.2267 1127.155 1678.87 1129.5117 1678.87 1129.5117 Z M 1688.6667 1133.3333 C 1688.6667 1133.3333 1688.6667 1130 1692 1130 C 1695.3333 1130 1695.3333 1133.3333 1695.3333 1133.3333 L 1695.3333 1136.6667 C 1695.3333 1136.6667 1695.3333 1140 1692 1140 C 1688.6667 1140 1688.6667 1136.6667 1688.6667 1136.6667 Z" fill="#ffac33"/>
        </g>
        <g id="Graphic_62">
          <circle cx="1692" cy="1110" r="16.6666932983649" fill="#ffac33"/>
        </g>
      </g>
    </g>
    <g id="Canvas_1_Layer_3">
      <title>Layer 3</title>
      <g id="Group_3">
        <title>Canvas_1_Layer_2</title>
        <g id="Group_4">
          <title>Group_79</title>
          <g id="Group_21">
            <title>Group_91</title>
            <g id="Group_34">
              <title>Group_100</title>
              <g id="Group_35">
                <title>Graphic_101</title>
                <g id="Graphic_36">
                  <path d="M 1670.6288 1142.7729 L 1644.9834 1142.7729 L 1615.0637 1181.241 L 1657.8061 1181.241 Z" fill="white"/>
                </g>
              </g>
            </g>
            <g id="Group_31">
              <title>Group_98</title>
              <g id="Group_32">
                <title>Graphic_99</title>
                <g id="Graphic_33">
                  <path d="M 1768.9363 1181.241 L 1739.0166 1142.7729 L 1713.3712 1142.7729 L 1726.194 1181.241 Z" fill="white"/>
                </g>
              </g>
            </g>
            <g id="Group_28">
              <title>Group_96</title>
              <g id="Group_29">
                <title>Graphic_97</title>
                <g id="Graphic_30">
                  <path d="M 1726.194 1181.241 L 1768.9363 1181.241 L 1692 1271 Z" fill="white"/>
                </g>
              </g>
            </g>
            <g id="Group_25">
              <title>Group_94</title>
              <g id="Group_26">
                <title>Graphic_95</title>
                <g id="Graphic_27">
                  <path d="M 1657.8061 1181.241 L 1615.0637 1181.241 L 1692 1271 Z M 1670.6288 1142.7729 L 1657.8061 1181.241 L 1726.194 1181.241 L 1713.3712 1142.7729 Z" fill="white"/>
                </g>
              </g>
            </g>
            <g id="Group_22">
              <title>Group_92</title>
              <g id="Group_23">
                <title>Graphic_93</title>
                <g id="Graphic_24">
                  <path d="M 1692 1271 L 1657.8061 1181.241 L 1726.194 1181.241 Z" fill="white"/>
                </g>
              </g>
            </g>
          </g>
          <g id="Group_5">
            <title>Group_80</title>
            <g id="Group_18">
              <title>Group_89</title>
              <g id="Group_19">
                <title>Graphic_90</title>
                <g id="Graphic_20">
                  <path d="M 1670.6288 1142.7729 L 1644.9834 1142.7729 L 1615.0637 1181.241 L 1657.8061 1181.241 Z" fill="#ffb000" fill-opacity=".25"/>
                </g>
              </g>
            </g>
            <g id="Group_15">
              <title>Group_87</title>
              <g id="Group_16">
                <title>Graphic_88</title>
                <g id="Graphic_17">
                  <path d="M 1768.9363 1181.241 L 1739.0166 1142.7729 L 1713.3712 1142.7729 L 1726.194 1181.241 Z" fill="#ffb000" fill-opacity=".7"/>
                </g>
              </g>
            </g>
            <g id="Group_12">
              <title>Group_85</title>
              <g id="Group_13">
                <title>Graphic_86</title>
                <g id="Graphic_14">
                  <path d="M 1726.194 1181.241 L 1768.9363 1181.241 L 1692 1271 Z" fill="#ffb000" fill-opacity=".9"/>
                </g>
              </g>
            </g>
            <g id="Group_9">
              <title>Group_83</title>
              <g id="Group_10">
                <title>Graphic_84</title>
                <g id="Graphic_11">
                  <path d="M 1657.8061 1181.241 L 1615.0637 1181.241 L 1692 1271 Z M 1670.6288 1142.7729 L 1657.8061 1181.241 L 1726.194 1181.241 L 1713.3712 1142.7729 Z" fill="#ffb000" fill-opacity=".5"/>
                </g>
              </g>
            </g>
            <g id="Group_6">
              <title>Group_81</title>
              <g id="Group_7">
                <title>Graphic_82</title>
                <g id="Graphic_8">
                  <path d="M 1692 1271 L 1657.8061 1181.241 L 1726.194 1181.241 Z" fill="#ffb000" fill-opacity=".6"/>
                </g>
              </g>
            </g>
          </g>
        </g>
      </g>
    </g>
  </g>
</svg>
