<?xml version="1.0" encoding="UTF-8" standalone="no"?>
<!DOCTYPE svg PUBLIC "-//W3C//DTD SVG 1.1//EN" "http://www.w3.org/Graphics/SVG/1.1/DTD/svg11.dtd">
<svg xmlns="http://www.w3.org/2000/svg" version="1.1" xmlns:dc="http://purl.org/dc/elements/1.1/" xmlns:xl="http://www.w3.org/1999/xlink" viewBox="1564 1035 256 256" width="256" height="256">
  <defs/>
  <g id="Canvas_1" fill="none" fill-opacity="1" stroke-dasharray="none" stroke="none" stroke-opacity="1">
    <title>Canvas 1</title>
    <g id="Canvas_1_Layer_1">
      <title>Layer 1</title>
      <g id="Group_59">
        <title>Graphic_78</title>
        <g id="Graphic_60">
          <path d="M 1692 1250.425 C 1598.965 1250.425 1577 1267.915 1577 1276 C 1577 1284.085 1588.4424 1291 1602.5556 1291 L 1781.4444 1291 C 1795.5576 1291 1807 1284.0587 1807 1276 C 1807 1267.9412 1785.035 1250.425 1692 1250.425 Z" fill="#5c913b"/>
        </g>
      </g>
    </g>
    <g id="Canvas_1_Layer_3">
      <title>Layer 3</title>
      <g id="Group_3">
        <title>Canvas_1_Layer_2</title>
        <g id="Group_4">
          <title>Group_79</title>
          <g id="Group_21">
            <title>Group_91</title>
            <g id="Group_34">
              <title>Group_100</title>
              <g id="Group_35">
                <title>Graphic_101</title>
                <g id="Graphic_36">
                  <path d="M 1670.6288 1142.7729 L 1644.9834 1142.7729 L 1615.0637 1181.241 L 1657.8061 1181.241 Z" fill="white"/>
                </g>
              </g>
            </g>
            <g id="Group_31">
              <title>Group_98</title>
              <g id="Group_32">
                <title>Graphic_99</title>
                <g id="Graphic_33">
                  <path d="M 1768.9363 1181.241 L 1739.0166 1142.7729 L 1713.3712 1142.7729 L 1726.194 1181.241 Z" fill="white"/>
                </g>
              </g>
            </g>
            <g id="Group_28">
              <title>Group_96</title>
              <g id="Group_29">
                <title>Graphic_97</title>
                <g id="Graphic_30">
                  <path d="M 1726.194 1181.241 L 1768.9363 1181.241 L 1692 1271 Z" fill="white"/>
                </g>
              </g>
            </g>
            <g id="Group_25">
              <title>Group_94</title>
              <g id="Group_26">
                <title>Graphic_95</title>
                <g id="Graphic_27">
                  <path d="M 1657.8061 1181.241 L 1615.0637 1181.241 L 1692 1271 Z M 1670.6288 1142.7729 L 1657.8061 1181.241 L 1726.194 1181.241 L 1713.3712 1142.7729 Z" fill="white"/>
                </g>
              </g>
            </g>
            <g id="Group_22">
              <title>Group_92</title>
              <g id="Group_23">
                <title>Graphic_93</title>
                <g id="Graphic_24">
                  <path d="M 1692 1271 L 1657.8061 1181.241 L 1726.194 1181.241 Z" fill="white"/>
                </g>
              </g>
            </g>
          </g>
          <g id="Group_5">
            <title>Group_80</title>
            <g id="Group_18">
              <title>Group_89</title>
              <g id="Group_19">
                <title>Graphic_90</title>
                <g id="Graphic_20">
                  <path d="M 1670.6288 1142.7729 L 1644.9834 1142.7729 L 1615.0637 1181.241 L 1657.8061 1181.241 Z" fill="#ffb000" fill-opacity=".25"/>
                </g>
              </g>
            </g>
            <g id="Group_15">
              <title>Group_87</title>
              <g id="Group_16">
                <title>Graphic_88</title>
                <g id="Graphic_17">
                  <path d="M 1768.9363 1181.241 L 1739.0166 1142.7729 L 1713.3712 1142.7729 L 1726.194 1181.241 Z" fill="#ffb000" fill-opacity=".7"/>
                </g>
              </g>
            </g>
            <g id="Group_12">
              <title>Group_85</title>
              <g id="Group_13">
                <title>Graphic_86</title>
                <g id="Graphic_14">
                  <path d="M 1726.194 1181.241 L 1768.9363 1181.241 L 1692 1271 Z" fill="#ffb000" fill-opacity=".9"/>
                </g>
              </g>
            </g>
            <g id="Group_9">
              <title>Group_83</title>
              <g id="Group_10">
                <title>Graphic_84</title>
                <g id="Graphic_11">
                  <path d="M 1657.8061 1181.241 L 1615.0637 1181.241 L 1692 1271 Z M 1670.6288 1142.7729 L 1657.8061 1181.241 L 1726.194 1181.241 L 1713.3712 1142.7729 Z" fill="#ffb000" fill-opacity=".5"/>
                </g>
              </g>
            </g>
            <g id="Group_6">
              <title>Group_81</title>
              <g id="Group_7">
                <title>Graphic_82</title>
                <g id="Graphic_8">
                  <path d="M 1692 1271 L 1657.8061 1181.241 L 1726.194 1181.241 Z" fill="#ffb000" fill-opacity=".6"/>
                </g>
              </g>
            </g>
          </g>
        </g>
      </g>
    </g>
    <g id="Canvas_1_Layer_2">
      <title>Layer 2</title>
      <g id="Group_61">
        <g id="Graphic_63">
          <path d="M 1687.8333 1084.1667 C 1687.8333 1084.1667 1687.8333 1080 1692 1080 C 1696.1667 1080 1696.1667 1084.1667 1696.1667 1084.1667 L 1696.1667 1088.3333 C 1696.1667 1088.3333 1696.1667 1092.5 1692 1092.5 C 1687.8333 1092.5 1687.8333 1088.3333 1687.8333 1088.3333 Z M 1725.3333 1113.3333 C 1725.3333 1113.3333 1729.5 1113.3333 1729.5 1117.5 C 1729.5 1121.6667 1725.3333 1121.6667 1725.3333 1121.6667 L 1721.1667 1121.6667 C 1721.1667 1121.6667 1717 1121.6667 1717 1117.5 C 1717 1113.3333 1721.1667 1113.3333 1721.1667 1113.3333 Z M 1662.8333 1113.3333 C 1662.8333 1113.3333 1667 1113.3333 1667 1117.5 C 1667 1121.6667 1662.8333 1121.6667 1662.8333 1121.6667 L 1658.6667 1121.6667 C 1658.6667 1121.6667 1654.5 1121.6667 1654.5 1117.5 C 1654.5 1113.3333 1658.6667 1113.3333 1658.6667 1113.3333 Z M 1673.502 1095.1938 C 1673.502 1095.1938 1676.448 1098.1396 1673.502 1101.0854 C 1670.5562 1104.0312 1667.6104 1101.0854 1667.6104 1101.0854 L 1664.6625 1098.1417 C 1664.6625 1098.1417 1661.7167 1095.1958 1664.6625 1092.2479 C 1667.6104 1089.3021 1670.5562 1092.2479 1670.5562 1092.2479 Z M 1717.252 1138.9438 C 1717.252 1138.9438 1720.198 1141.8896 1717.252 1144.8354 C 1714.3062 1147.7812 1711.3604 1144.8354 1711.3604 1144.8354 L 1708.4146 1141.8896 C 1708.4146 1141.8896 1705.4688 1138.9438 1708.4146 1135.9979 C 1711.3604 1133.0521 1714.3062 1135.9979 1714.3062 1135.9979 Z M 1716.3917 1101.0854 C 1716.3917 1101.0854 1713.4458 1104.0312 1710.5 1101.0854 C 1707.5542 1098.1396 1710.5 1095.1938 1710.5 1095.1938 L 1713.4458 1092.2479 C 1713.4458 1092.2479 1716.3917 1089.3021 1719.3375 1092.2479 C 1722.2833 1095.1938 1719.3375 1098.1396 1719.3375 1098.1396 Z M 1672.6417 1144.8354 C 1672.6417 1144.8354 1669.6958 1147.7812 1666.75 1144.8354 C 1663.8042 1141.8896 1666.75 1138.9438 1666.75 1138.9438 L 1669.6958 1135.9979 C 1669.6958 1135.9979 1672.6417 1133.0521 1675.5875 1135.9979 C 1678.5333 1138.9438 1675.5875 1141.8896 1675.5875 1141.8896 Z M 1687.8333 1146.6667 C 1687.8333 1146.6667 1687.8333 1142.5 1692 1142.5 C 1696.1667 1142.5 1696.1667 1146.6667 1696.1667 1146.6667 L 1696.1667 1150.8333 C 1696.1667 1150.8333 1696.1667 1155 1692 1155 C 1687.8333 1155 1687.8333 1150.8333 1687.8333 1150.8333 Z" fill="#ffac33"/>
        </g>
        <g id="Graphic_62">
          <circle cx="1692" cy="1117.5" r="20.8333666229562" fill="#ffac33"/>
        </g>
      </g>
    </g>
  </g>
</svg>
