<?xml version="1.0" encoding="UTF-8" standalone="no"?>
<!DOCTYPE svg PUBLIC "-//W3C//DTD SVG 1.1//EN" "http://www.w3.org/Graphics/SVG/1.1/DTD/svg11.dtd">
<svg xmlns:xl="http://www.w3.org/1999/xlink" xmlns="http://www.w3.org/2000/svg" version="1.1" xmlns:dc="http://purl.org/dc/elements/1.1/" viewBox="1564 1035 256 256" width="256" height="256">
  <defs/>
  <g id="Canvas_1" fill-opacity="1" stroke-dasharray="none" stroke-opacity="1" stroke="none" fill="none">
    <title>Canvas 1</title>
    <g id="Canvas_1_Layer_1">
      <title>Layer 1</title>
      <g id="Graphic_78">
        <path d="M 1692 1250.425 C 1598.965 1250.425 1577 1267.915 1577 1276 C 1577 1284.085 1588.4424 1291 1602.5556 1291 L 1781.4444 1291 C 1795.5576 1291 1807 1284.0587 1807 1276 C 1807 1267.9412 1785.035 1250.425 1692 1250.425 Z" fill="#5c913b"/>
      </g>
    </g>
    <g id="Canvas_1_Layer_2">
      <title>Layer 2</title>
      <g id="Group_102">
        <title>Stone_Blue_Far_Layer_4</title>
        <g id="Group_103">
          <title>Group_44</title>
          <g id="Group_115">
            <title>Group_51</title>
            <g id="Group_124">
              <title>Graphic_56</title>
              <g id="Graphic_125">
                <path d="M 1670.6289 1142.7729 L 1644.9834 1142.7729 L 1615.0637 1181.2409 L 1657.8062 1181.2409 Z" fill="white"/>
              </g>
            </g>
            <g id="Group_122">
              <title>Graphic_55</title>
              <g id="Graphic_123">
                <path d="M 1768.9363 1181.2409 L 1739.0166 1142.7729 L 1713.3712 1142.7729 L 1726.194 1181.2409 Z" fill="white"/>
              </g>
            </g>
            <g id="Group_120">
              <title>Graphic_54</title>
              <g id="Graphic_121">
                <path d="M 1726.194 1181.2409 L 1768.9363 1181.2409 L 1692 1270.9998 Z" fill="white"/>
              </g>
            </g>
            <g id="Group_118">
              <title>Graphic_53</title>
              <g id="Graphic_119">
                <path d="M 1657.8062 1181.2409 L 1615.0637 1181.2409 L 1692 1270.9998 Z M 1670.6289 1142.7729 L 1657.8062 1181.2409 L 1726.194 1181.2409 L 1713.3712 1142.7729 Z" fill="white"/>
              </g>
            </g>
            <g id="Group_116">
              <title>Graphic_52</title>
              <g id="Graphic_117">
                <path d="M 1692 1270.9998 L 1657.8062 1181.2409 L 1726.194 1181.2409 Z" fill="white"/>
              </g>
            </g>
          </g>
          <g id="Group_104">
            <title>Group_45</title>
            <g id="Group_113">
              <title>Graphic_50</title>
              <g id="Graphic_114">
                <path d="M 1670.6289 1142.7729 L 1644.9834 1142.7729 L 1615.0637 1181.2409 L 1657.8062 1181.2409 Z" fill="#8ac5ff" fill-opacity=".25"/>
              </g>
            </g>
            <g id="Group_111">
              <title>Graphic_49</title>
              <g id="Graphic_112">
                <path d="M 1768.9363 1181.2409 L 1739.0166 1142.7729 L 1713.3712 1142.7729 L 1726.194 1181.2409 Z" fill="#8ac5ff" fill-opacity=".7"/>
              </g>
            </g>
            <g id="Group_109">
              <title>Graphic_48</title>
              <g id="Graphic_110">
                <path d="M 1726.194 1181.2409 L 1768.9363 1181.2409 L 1692 1270.9998 Z" fill="#8ac5ff" fill-opacity=".9"/>
              </g>
            </g>
            <g id="Group_107">
              <title>Graphic_47</title>
              <g id="Graphic_108">
                <path d="M 1657.8062 1181.2409 L 1615.0637 1181.2409 L 1692 1270.9998 Z M 1670.6289 1142.7729 L 1657.8062 1181.2409 L 1726.194 1181.2409 L 1713.3712 1142.7729 Z" fill="#8ac5ff" fill-opacity=".5"/>
              </g>
            </g>
            <g id="Group_105">
              <title>Graphic_46</title>
              <g id="Graphic_106">
                <path d="M 1692 1270.9998 L 1657.8062 1181.2409 L 1726.194 1181.2409 Z" fill="#8ac5ff" fill-opacity=".6"/>
              </g>
            </g>
          </g>
        </g>
      </g>
    </g>
  </g>
</svg>
