<?xml version="1.0" encoding="UTF-8" standalone="no"?>
<!DOCTYPE svg PUBLIC "-//W3C//DTD SVG 1.1//EN" "http://www.w3.org/Graphics/SVG/1.1/DTD/svg11.dtd">
<svg version="1.1" xmlns="http://www.w3.org/2000/svg" xmlns:xl="http://www.w3.org/1999/xlink" xmlns:dc="http://purl.org/dc/elements/1.1/" viewBox="1060 676 136 148" width="136" height="148">
  <defs/>
  <g id="Home" stroke-dasharray="none" fill="none" fill-opacity="1" stroke-opacity="1" stroke="none">
    <title>Home</title>
    <g id="Home_Layer_1">
      <title>Layer 1</title>
      <g id="Group_2">
        <g id="Graphic_7">
          <path d="M 1071.3871 740.8373 L 1128 684.2244 L 1184.6129 740.8373 L 1184.6129 814.8695 L 1071.3871 814.8695 Z" fill="#f3ddab"/>
        </g>
        <g id="Graphic_6">
          <path d="M 1190.5886 748.6396 C 1189.3561 748.6396 1188.1236 748.1678 1187.1847 747.229 L 1128 688.0442 L 1068.8153 747.229 C 1066.9328 749.1114 1063.89 749.1114 1062.0075 747.229 C 1060.1251 745.3465 1060.1251 742.3037 1062.0075 740.42126 L 1124.5961 677.83265 C 1126.4786 675.9502 1129.5214 675.9502 1131.4039 677.83265 L 1193.9925 740.42126 C 1195.875 742.3037 1195.875 745.3465 1193.9925 747.229 C 1193.0536 748.1678 1191.8211 748.6396 1190.5886 748.6396 Z" fill="#643"/>
        </g>
        <g id="Graphic_5">
          <rect x="1116.5013" y="777.1044" width="22.273586" height="33.410308" fill="#f50"/>
        </g>
        <g id="Graphic_4">
          <path d="M 1092.0726 750.7545 L 1109.492 750.7545 L 1109.492 771.5431 L 1092.0726 771.5431 Z M 1146.508 750.7545 L 1163.9274 750.7545 L 1163.9274 771.5431 L 1146.508 771.5431 Z" fill="gray"/>
        </g>
        <g id="Graphic_3">
          <path d="M 1195.5 817.0469 C 1195.5 820.65275 1192.5735 823.5792 1188.9677 823.5792 L 1067.0323 823.5792 C 1063.4265 823.5792 1060.5 820.65275 1060.5 817.0469 C 1060.5 813.4411 1063.4265 810.5147 1067.0323 810.5147 L 1188.9677 810.5147 C 1192.5735 810.5147 1195.5 813.4411 1195.5 817.0469 Z" fill="#5c913b"/>
        </g>
      </g>
    </g>
  </g>
</svg>
