<?xml version="1.0" encoding="UTF-8" standalone="no"?>
<!DOCTYPE svg PUBLIC "-//W3C//DTD SVG 1.1//EN" "http://www.w3.org/Graphics/SVG/1.1/DTD/svg11.dtd">
<svg xmlns:xl="http://www.w3.org/1999/xlink" xmlns="http://www.w3.org/2000/svg" version="1.1" xmlns:dc="http://purl.org/dc/elements/1.1/" viewBox="1060 676 256 256" width="256" height="256">
  <defs/>
  <g id="Canvas_1" fill-opacity="1" stroke-dasharray="none" stroke-opacity="1" stroke="none" fill="none">
    <title>Canvas 1</title>
    <g id="Canvas_1_Layer_1">
      <title>Layer 1</title>
      <g id="Graphic_17">
        <path d="M 1188 891.425 C 1094.965 891.425 1073 908.915 1073 917 C 1073 925.085 1084.4424 932 1098.5556 932 L 1277.4444 932 C 1291.5576 932 1303 925.0587 1303 917 C 1303 908.9412 1281.035 891.425 1188 891.425 Z" fill="#5c913b"/>
      </g>
      <g id="Group_18">
        <g id="Graphic_14">
          <path d="M 1103.7647 801.8463 L 1188 717.61105 L 1272.2352 801.8463 L 1272.2352 912 L 1103.7647 912 Z" fill="#f3ddab"/>
        </g>
        <g id="Graphic_12">
          <path d="M 1281.1265 813.4555 C 1279.2927 813.4555 1277.4588 812.7535 1276.0618 811.3566 L 1188 723.2946 L 1099.9381 811.3566 C 1097.1371 814.1575 1092.6097 814.1575 1089.8087 811.3566 C 1087.0078 808.5556 1087.0078 804.0282 1089.8087 801.2273 L 1182.9352 708.1007 C 1185.7362 705.2997 1190.2637 705.2997 1193.0647 708.1007 L 1286.1913 801.2273 C 1288.9923 804.0282 1288.9923 808.5556 1286.1913 811.3566 C 1284.7943 812.7535 1282.9604 813.4555 1281.1265 813.4555 Z" fill="#f50"/>
        </g>
        <g id="Graphic_10">
          <rect x="1170.8909" y="855.8087" width="33.141227" height="49.711736" fill="#f50"/>
        </g>
        <g id="Graphic_8">
          <path d="M 1134.543 816.6023 L 1160.4616 816.6023 L 1160.4616 847.534 L 1134.543 847.534 Z M 1215.5383 816.6023 L 1241.4569 816.6023 L 1241.4569 847.534 L 1215.5383 847.534 Z" fill="gray"/>
        </g>
      </g>
    </g>
  </g>
</svg>
