<?xml version="1.0" encoding="UTF-8" standalone="no"?>
<!DOCTYPE svg PUBLIC "-//W3C//DTD SVG 1.1//EN" "http://www.w3.org/Graphics/SVG/1.1/DTD/svg11.dtd">
<svg xmlns:xl="http://www.w3.org/1999/xlink" xmlns="http://www.w3.org/2000/svg" version="1.1" xmlns:dc="http://purl.org/dc/elements/1.1/" viewBox="1564 1035 256 256" width="256" height="256">
  <defs/>
  <g id="Canvas_1" fill-opacity="1" stroke-dasharray="none" stroke-opacity="1" stroke="none" fill="none">
    <title>Canvas 1</title>
    <g id="Canvas_1_Layer_1">
      <title>Layer 1</title>
      <g id="Group_67">
        <g id="Graphic_78">
          <path d="M 1692 1250.425 C 1598.965 1250.425 1577 1267.915 1577 1276 C 1577 1284.085 1588.4424 1291 1602.5556 1291 L 1781.4444 1291 C 1795.5576 1291 1807 1284.0587 1807 1276 C 1807 1267.9412 1785.035 1250.425 1692 1250.425 Z" fill="#5c913b"/>
        </g>
        <g id="Graphic_77">
          <path d="M 1754.8 1246.9605 C 1754.8 1254.9391 1749.0665 1257.8 1741.9988 1257.8 C 1734.9313 1257.8 1729.1977 1254.9442 1729.1977 1246.9605 L 1732.3968 1214.4473 C 1732.3968 1206.4687 1734.9266 1207.2192 1741.9988 1207.2192 C 1749.0665 1207.2192 1751.6008 1206.4636 1751.6008 1214.4473 Z" fill="#643"/>
        </g>
        <g id="Graphic_76">
          <path d="M 1795.0616 1199.8798 C 1767.5006 1175.0507 1756.3381 1139.4976 1741.999 1139.4976 C 1727.66 1139.4976 1716.4976 1175.0507 1688.9426 1199.8798 C 1677.3597 1210.3157 1682.878 1216.3503 1698.7541 1215.1434 C 1712.9069 1214.0685 1726.141 1210.694 1741.999 1210.694 C 1757.8572 1210.694 1771.0974 1214.0746 1785.2442 1215.1434 C 1801.1204 1216.3503 1806.6385 1210.3098 1795.0616 1199.8798 Z" fill="#5c913b"/>
        </g>
        <g id="Graphic_75">
          <path d="M 1786.1089 1190.0382 C 1764.9306 1169.6166 1753.0295 1140.3623 1741.999 1140.3623 C 1730.9746 1140.3623 1719.0737 1169.6166 1697.8954 1190.0382 C 1681.0646 1206.2686 1719.9502 1209.9074 1741.999 1190.0382 C 1764.042 1209.9074 1802.9336 1206.2686 1786.1089 1190.0382 Z" fill="#3e721d"/>
        </g>
        <g id="Graphic_74">
          <path d="M 1786.1089 1173.4956 C 1764.9306 1154.413 1753.0295 1127.0861 1741.999 1127.0861 C 1730.9746 1127.0861 1719.0737 1154.413 1697.8954 1173.4956 C 1681.0646 1188.6571 1719.9502 1192.0557 1741.999 1173.4956 C 1764.042 1192.0557 1802.9336 1188.6512 1786.1089 1173.4956 Z" fill="#5c913b"/>
        </g>
        <g id="Graphic_73">
          <path d="M 1776.4354 1159.9433 C 1759.9049 1145.0459 1750.6098 1123.7117 1741.999 1123.7117 C 1733.3945 1123.7117 1724.0994 1145.0459 1707.5628 1159.9433 C 1694.4248 1171.7783 1724.778 1174.4384 1741.999 1159.9433 C 1759.2143 1174.4323 1789.5735 1171.7783 1776.4354 1159.9433 Z" fill="#3e721d"/>
        </g>
        <g id="Graphic_72">
          <path d="M 1776.4354 1147.5438 C 1759.9049 1132.6463 1750.6098 1111.3121 1741.999 1111.3121 C 1733.3945 1111.3121 1724.0994 1132.6463 1707.5628 1147.5438 C 1694.4248 1159.3787 1724.778 1162.0389 1741.999 1147.5438 C 1759.2143 1162.0389 1789.5735 1159.3848 1776.4354 1147.5438 Z" fill="#5c913b"/>
        </g>
        <g id="Graphic_71">
          <path d="M 1769.7883 1136.5373 C 1756.446 1124.5161 1748.9464 1107.301 1741.999 1107.301 C 1735.0518 1107.301 1727.552 1124.5161 1714.2098 1136.5373 C 1703.6057 1146.0907 1728.1044 1148.2342 1741.999 1136.5373 C 1755.8938 1148.2342 1780.3984 1146.0907 1769.7883 1136.5373 Z" fill="#3e721d"/>
        </g>
        <g id="Graphic_70">
          <path d="M 1769.7883 1127.2062 C 1756.446 1115.185 1748.9464 1097.9699 1741.999 1097.9699 C 1735.0518 1097.9699 1727.552 1115.185 1714.2098 1127.2062 C 1703.6057 1136.7595 1728.1044 1138.9031 1741.999 1127.2062 C 1755.8938 1138.9031 1780.3984 1136.7595 1769.7883 1127.2062 Z" fill="#5c913b"/>
        </g>
        <g id="Graphic_69">
          <path d="M 1763.1472 1113.4678 C 1752.9994 1104.3228 1747.2891 1091.2208 1741.999 1091.2208 C 1736.715 1091.2208 1731.0047 1104.3228 1720.8509 1113.4678 C 1712.7807 1120.7393 1731.425 1122.3665 1741.999 1113.4678 C 1752.5732 1122.3726 1771.2173 1120.7393 1763.1472 1113.4678 Z" fill="#3e721d"/>
        </g>
        <g id="Graphic_68">
          <path d="M 1763.1472 1107.2469 C 1752.9994 1098.102 1747.2891 1085 1741.999 1085 C 1736.715 1085 1731.0047 1098.102 1720.8509 1107.2469 C 1712.7807 1114.5186 1731.425 1116.1457 1741.999 1107.2469 C 1752.5732 1116.1457 1771.2173 1114.5186 1763.1472 1107.2469 Z" fill="#5c913b"/>
        </g>
      </g>
    </g>
    <g id="Canvas_1_Layer_2">
      <title>Layer 2</title>
      <g id="Group_79">
        <title>Canvas_298</title>
        <g id="Group_80">
          <title>Canvas_298_Layer_1</title>
          <g id="Group_81">
            <title>Group_2</title>
            <g id="Group_100">
              <title>Graphic_12</title>
              <g id="Graphic_101">
                <path d="M 1667.6837 1147.1296 C 1667.6837 1147.1296 1683.8945 1142.7729 1687.9473 1142.7729 C 1692 1142.7729 1708.211 1147.1296 1708.211 1147.1296 C 1708.211 1147.1296 1724.4217 1164.5482 1728.4745 1164.5482 C 1728.4745 1164.5482 1736.58 1164.5482 1744.6853 1173.2575 C 1752.7907 1181.9668 1752.7907 1199.3853 1752.7907 1199.3853 C 1752.7907 1199.3853 1760.8962 1216.8038 1760.8962 1225.5131 C 1760.8962 1234.2224 1756.8435 1242.9317 1752.7907 1247.2884 C 1748.738 1251.6451 1732.5272 1255.9977 1732.5272 1255.9977 C 1732.5272 1255.9977 1728.4745 1264.707 1720.369 1269.0637 C 1696.0527 1273.4204 1679.8418 1269.0637 1679.8418 1269.0637 L 1671.7364 1260.3544 C 1671.7364 1260.3544 1643.3675 1255.9977 1639.3147 1255.9977 C 1635.262 1255.9977 1623.1038 1238.5791 1623.1038 1234.2224 C 1623.1038 1229.8658 1623.1038 1216.8038 1627.1565 1203.738 C 1635.262 1190.672 1639.3147 1186.3194 1639.3147 1186.3194 C 1639.3147 1186.3194 1635.262 1177.614 1639.3147 1168.9049 C 1647.42 1160.1956 1663.631 1155.8389 1663.631 1155.8389 Z" fill="#456280"/>
              </g>
            </g>
            <g id="Group_98">
              <title>Graphic_11</title>
              <g id="Graphic_99">
                <path d="M 1669.3412 1148.4791 C 1669.3412 1148.4791 1684.0648 1144.3413 1687.8785 1144.3413 C 1691.692 1144.3413 1708.1014 1148.9979 1708.1014 1148.9979 C 1708.1014 1148.9979 1722.5858 1165.2979 1726.3995 1165.2979 C 1726.3995 1165.2979 1734.6589 1165.1156 1742.2901 1173.3182 C 1749.9214 1181.521 1749.2122 1196.0823 1749.2122 1196.0823 C 1749.2122 1196.0823 1756.8435 1212.4796 1756.8435 1220.6783 C 1756.8435 1228.8769 1753.0298 1237.0796 1749.2163 1241.181 C 1745.4026 1245.2823 1730.1442 1249.3796 1730.1442 1249.3796 C 1730.1442 1249.3796 1726.3306 1257.5782 1718.6993 1261.6796 C 1695.8136 1265.781 1680.555 1261.6796 1680.555 1261.6796 L 1672.928 1253.481 C 1672.928 1253.481 1646.2286 1249.3796 1642.415 1249.3796 C 1638.6014 1249.3796 1627.1565 1232.9783 1627.1565 1228.8769 C 1627.1565 1224.7756 1627.1565 1212.4755 1630.9701 1200.1756 C 1638.6014 1187.8756 1642.415 1183.7783 1642.415 1183.7783 C 1642.415 1183.7783 1637.6004 1177.1196 1641.414 1168.917 C 1649.0412 1160.7184 1665.248 1156.4995 1665.248 1156.4995 Z" fill="#8ac5ff" fill-opacity=".7"/>
              </g>
            </g>
            <g id="Group_96">
              <title>Graphic_10</title>
              <g id="Graphic_97">
                <path d="M 1670.8083 1151.8104 C 1670.8083 1151.8104 1684.5795 1148.1954 1688.1459 1148.1954 C 1691.7122 1148.1954 1707.0599 1152.2603 1707.0599 1152.2603 C 1707.0599 1152.2603 1720.604 1166.4894 1724.1704 1166.4894 C 1724.1704 1166.4894 1731.895 1166.3313 1739.0318 1173.4885 C 1746.1646 1180.6455 1745.508 1193.359 1745.508 1193.359 C 1745.508 1193.359 1746.6225 1210.5627 1749.512 1211.0815 C 1756.8475 1212.3945 1750.189 1226.1291 1746.6225 1229.7077 C 1743.0562 1233.2863 1718.213 1234.883 1718.213 1234.883 C 1718.213 1234.883 1719.0883 1246.0483 1711.9515 1249.6309 C 1690.549 1253.2094 1681.2927 1250.6279 1681.2927 1250.6279 L 1674.16 1243.4708 C 1674.16 1243.4708 1656.7737 1226.8668 1653.2074 1226.8668 C 1649.641 1226.8668 1631.351 1225.574 1631.351 1221.9954 C 1631.351 1218.4168 1631.351 1207.6772 1634.9175 1196.9415 C 1642.0503 1186.2059 1645.6207 1182.6233 1645.6207 1182.6233 C 1645.6207 1182.6233 1641.1182 1176.8076 1644.6845 1169.6506 C 1651.8173 1162.4934 1666.9745 1158.8095 1666.9745 1158.8095 Z" fill="#8ac5ff" fill-opacity=".8"/>
              </g>
            </g>
            <g id="Group_94">
              <title>Graphic_9</title>
              <g id="Graphic_95">
                <path d="M 1644.5427 1181.3345 L 1660.6765 1188.8361 L 1652.2469 1194.7854 L 1634.9256 1196.9415 Z" fill="#8ac5ff" fill-opacity=".7"/>
              </g>
            </g>
            <g id="Group_92">
              <title>Graphic_8</title>
              <g id="Graphic_93">
                <path d="M 1625.5232 1219.3651 C 1625.5232 1219.3651 1630.0988 1234.6277 1631.3025 1236.4393 C 1632.5062 1238.2509 1647.9146 1236.958 1649.8396 1236.958 C 1651.7646 1236.958 1661.1548 1241.874 1661.1548 1241.874 C 1661.1548 1241.874 1648.636 1245.2378 1644.3035 1244.719 C 1639.9712 1244.2002 1628.7087 1242.178 1627.6915 1239.2843 C 1626.6743 1236.3907 1625.5232 1219.3651 1625.5232 1219.3651 Z" fill="#8ac5ff" fill-opacity=".6"/>
              </g>
            </g>
            <g id="Group_90">
              <title>Graphic_7</title>
              <g id="Graphic_91">
                <path d="M 1648.636 1169.1764 C 1650.6218 1168.5482 1664.2834 1162.7082 1667.173 1162.9675 C 1670.0626 1163.227 1682.3423 1170.2098 1679.4527 1172.5401 C 1676.5632 1174.8704 1660.6725 1173.0588 1656.101 1173.0588 C 1651.5296 1173.0588 1644.5427 1170.4692 1648.636 1169.1764 Z M 1639.0067 1200.4795 C 1640.2347 1198.1654 1656.5833 1197.3751 1656.5833 1197.3751 C 1656.5833 1197.3751 1677.771 1205.9143 1677.771 1207.207 C 1677.771 1208.4999 1658.5124 1217.2983 1656.5833 1217.5536 C 1654.6542 1217.8089 1638.0421 1202.291 1639.0067 1200.4795 Z M 1686.4356 1216.2608 C 1686.0546 1214.2142 1694.6221 1201.7723 1696.308 1200.7389 C 1697.994 1199.7054 1720.6244 1193.752 1724.4744 1193.752 C 1728.3245 1193.752 1740.6043 1202.8058 1740.8474 1204.6174 C 1741.0865 1206.4289 1730.0145 1218.8464 1727.1248 1219.8799 C 1724.2352 1220.9174 1687.157 1220.1392 1686.4356 1216.2608 Z M 1708.1055 1182.1085 C 1707.1936 1184.2848 1729.7754 1187.2839 1732.1827 1186.2464 C 1734.59 1185.213 1738.9224 1178.226 1738.201 1176.4146 C 1737.4796 1174.603 1730.4967 1169.4277 1726.8858 1169.9464 C 1723.2707 1170.4692 1710.2696 1176.9372 1708.1055 1182.1085 Z M 1690.2897 1150.2907 C 1692.308 1150.7243 1705.6982 1153.9138 1707.3842 1156.4995 C 1709.07 1159.0851 1699.4408 1167.1054 1696.7903 1167.3648 C 1694.1438 1167.6241 1676.085 1156.4995 1674.16 1155.2067 C 1672.2349 1153.9138 1686.6747 1149.5126 1690.2897 1150.2907 Z" fill="#8ac5ff" fill-opacity=".9"/>
              </g>
            </g>
            <g id="Group_88">
              <title>Graphic_6</title>
              <g id="Graphic_89">
                <path d="M 1671.9917 1257.3919 C 1670.3058 1254.8063 1672.9563 1246.2671 1674.399 1247.3006 C 1675.8419 1248.334 1680.1782 1251.4384 1680.4173 1254.0281 C 1680.6564 1256.6137 1684.993 1261.5296 1688.1215 1263.0819 C 1691.2502 1264.634 1708.3446 1264.634 1711.2342 1263.6006 C 1714.1237 1262.5671 1720.8634 1256.8732 1722.5494 1253.5094 C 1724.2352 1250.1456 1726.1807 1249.8984 1730.1442 1249.3756 C 1734.1077 1248.8527 1737.9334 1252.796 1732.5272 1255.9977 C 1727.1248 1259.1993 1721.3457 1264.8934 1714.6061 1266.1863 C 1707.8664 1267.4791 1685.9574 1268.5165 1682.1032 1266.9644 C 1678.2491 1265.4122 1671.9917 1257.3919 1671.9917 1257.3919 Z" fill="#8ac5ff" fill-opacity=".6"/>
              </g>
            </g>
            <g id="Group_86">
              <title>Graphic_5</title>
              <g id="Graphic_87">
                <path d="M 1700.916 1238.7089 C 1698.8855 1237.6187 1698.1277 1228.5972 1699.1734 1227.8475 C 1700.219 1227.0978 1709.9778 1228.5972 1712.2432 1228.9701 C 1714.5087 1229.343 1728.2758 1228.2204 1729.67 1229.7199 C 1731.0641 1231.2194 1734.4238 1236.7148 1735.595 1240.0179 C 1736.7663 1243.3249 1729.1472 1242.8264 1726.1848 1242.0766 C 1723.2221 1241.3269 1703.7042 1240.2083 1700.916 1238.7089 Z M 1670.0626 1179.0041 C 1672.709 1179.0041 1683.7851 1178.7449 1686.1924 1179.0041 C 1688.5998 1179.2636 1696.304 1186.5058 1692.693 1187.2839 C 1689.082 1188.062 1679.4527 1190.6477 1678.006 1190.907 C 1676.559 1191.1664 1671.2663 1186.2505 1669.5804 1184.9577 C 1667.8985 1183.6608 1667.177 1179.0041 1670.0626 1179.0041 Z M 1700.4013 1171.762 C 1701.7387 1169.61 1706.9019 1168.917 1707.141 1171.2433 C 1707.38 1173.5736 1705.9373 1178.7449 1703.0477 1178.4854 C 1700.1581 1178.2301 1698.4722 1174.8664 1700.4013 1171.762 Z M 1686.4356 1226.348 C 1688.839 1226.0603 1693.4184 1225.5699 1693.4184 1227.6409 C 1693.4184 1229.7117 1690.5289 1230.4858 1687.157 1230.2265 C 1683.7892 1229.9712 1684.2674 1226.6074 1686.4356 1226.348 Z" fill="#8ac5ff" fill-opacity=".7"/>
              </g>
            </g>
            <g id="Group_84">
              <title>Graphic_4</title>
              <g id="Graphic_85">
                <path d="M 1677.0454 1197.6346 C 1679.1489 1195.827 1686.4356 1195.5636 1688.1215 1196.3417 C 1689.8076 1197.1198 1686.1965 1202.5505 1684.0284 1202.8099 C 1681.8601 1203.0651 1674.6382 1199.7015 1677.0454 1197.6346 Z" fill="#8ac5ff" fill-opacity=".95"/>
              </g>
            </g>
            <g id="Group_82">
              <title>Graphic_3</title>
              <g id="Graphic_83">
                <path d="M 1725.1957 1237.2133 C 1727.599 1236.569 1733.3823 1235.9205 1733.139 1237.7322 C 1732.9 1239.5437 1730.4927 1242.9074 1728.5636 1242.6481 C 1726.6345 1242.3886 1723.2707 1237.7322 1725.1957 1237.2133 Z M 1709.5482 1255.325 C 1712.2069 1254.8832 1716.2879 1252.7394 1716.0489 1255.325 C 1715.8097 1257.9106 1712.9201 1261.2743 1709.7875 1260.7596 C 1706.6587 1260.2409 1706.4196 1255.8396 1709.5482 1255.325 Z" fill="#8ac5ff" fill-opacity=".6"/>
              </g>
            </g>
          </g>
        </g>
      </g>
    </g>
  </g>
</svg>
