<?xml version="1.0" encoding="UTF-8" standalone="no"?>
<!DOCTYPE svg PUBLIC "-//W3C//DTD SVG 1.1//EN" "http://www.w3.org/Graphics/SVG/1.1/DTD/svg11.dtd">
<svg xmlns="http://www.w3.org/2000/svg" xmlns:xl="http://www.w3.org/1999/xlink" xmlns:dc="http://purl.org/dc/elements/1.1/" version="1.1" viewBox="1833 1927 256 256" width="256" height="256">
  <defs/>
  <g id="Canvas_1" stroke-opacity="1" stroke="none" fill="none" fill-opacity="1" stroke-dasharray="none">
    <title>Canvas 1</title>
    <g id="Canvas_1_Layer_1">
      <title>Layer 1</title>
      <g id="Graphic_32">
        <path d="M 1961 2142.425 C 1867.965 2142.425 1846 2159.915 1846 2168 C 1846 2176.085 1857.4424 2183 1871.5556 2183 L 2050.4444 2183 C 2064.5576 2183 2076 2176.0587 2076 2168 C 2076 2159.9412 2054.035 2142.425 1961 2142.425 Z" fill="#5c913b"/>
      </g>
      <g id="Group_26">
        <g id="Graphic_31">
          <path d="M 1954.0714 2162.9375 C 1950.6863 2162.9375 1947.6695 2160.8073 1946.5296 2157.618 L 1906.5004 2045.5386 C 1905.6254 2043.0861 1905.9995 2040.5185 1907.4965 2038.3884 C 1908.999 2036.264 1911.2466 2034.773 1913.849 2034.773 L 2007.9578 2035.147 C 2011.1645 2035.147 2014.0546 2036.903 2015.321 2039.8507 L 2063.3527 2151.855 C 2064.412 2154.3307 2064.1587 2157.1343 2062.6848 2159.3797 C 2061.1938 2161.625 2058.6778 2162.9375 2055.9893 2162.9375 Z" fill="#f3ddab"/>
        </g>
        <g id="Graphic_30">
          <path d="M 1866.005 2162.9375 C 1863.3164 2162.9375 1860.8006 2161.5788 1859.3152 2159.3392 C 1857.8413 2157.0883 1857.588 2154.2443 1858.6473 2151.7686 L 1906.7076 2039.626 C 1907.9626 2036.69 1910.8642 2034.773 1914.0653 2034.773 C 1917.272 2034.773 1920.1736 2036.69 1921.4286 2039.626 L 1969.4887 2151.7686 C 1970.5482 2154.25 1970.289 2157.0883 1968.8153 2159.3392 C 1967.3414 2161.5788 1964.8255 2162.9375 1962.1313 2162.9375 Z" fill="#fff0ce"/>
        </g>
        <g id="Graphic_29">
          <path d="M 1914.0425 2054.6628 L 1896.6787 2163 L 1931.4 2163 Z" fill="gray"/>
        </g>
        <g id="Graphic_28">
          <path d="M 1946.2878 2154.111 L 1949.8629 2163 L 1930.0527 2163 Z M 1881.791 2154.111 L 1878.2158 2163 L 1898.026 2163 Z" fill="#ffac33"/>
        </g>
        <g id="Graphic_27">
          <path d="M 1930.0527 2163 C 1930.0527 2163 1944.6125 2159.2868 1951.734 2152.7177 L 1914.0422 2054.6628 Z M 1898.026 2163 C 1898.026 2163 1883.4662 2159.2868 1876.3447 2152.7177 L 1914.0306 2054.6686 Z" fill="#f50"/>
        </g>
      </g>
    </g>
  </g>
</svg>
