<?xml version="1.0" encoding="UTF-8" standalone="no"?>
<!DOCTYPE svg PUBLIC "-//W3C//DTD SVG 1.1//EN" "http://www.w3.org/Graphics/SVG/1.1/DTD/svg11.dtd">
<svg version="1.1" xmlns="http://www.w3.org/2000/svg" xmlns:xl="http://www.w3.org/1999/xlink" xmlns:dc="http://purl.org/dc/elements/1.1/" viewBox="1833 1927 135 84" width="135" height="84">
  <defs/>
  <g id="tent" stroke-dasharray="none" fill="none" fill-opacity="1" stroke-opacity="1" stroke="none">
    <title>tent</title>
    <g id="tent_Layer_1">
      <title>Layer 1</title>
      <g id="Group_2">
        <g id="Graphic_7">
          <path d="M 1895.9594 2010.9914 C 1893.741 2010.9914 1891.764 2009.5954 1891.017 2007.5053 L 1864.7842 1934.0552 C 1864.2108 1932.448 1864.456 1930.7653 1865.437 1929.3694 C 1866.4217 1927.9772 1868.0213 1927.2452 1869.7267 1927.2452 L 1931.2733 1927.2452 C 1933.3748 1927.2452 1935.2688 1928.396 1936.0988 1930.3277 L 1967.5758 2003.7286 C 1968.27 2005.351 1968.104 2007.1883 1967.1381 2008.6598 C 1966.161 2010.1312 1964.5122 2010.9914 1962.7503 2010.9914 L 1895.9594 2010.9914 Z" fill="#643"/>
        </g>
        <g id="Graphic_6">
          <path d="M 1838.246 2010.9914 C 1836.484 2010.9914 1834.8353 2010.101 1833.8619 2008.6333 C 1832.896 2007.1582 1832.73 2005.2944 1833.4242 2003.672 L 1864.92 1930.1805 C 1865.7425 1928.2564 1867.644 1927 1869.7418 1927 C 1871.8433 1927 1873.7448 1928.2564 1874.5673 1930.1805 L 1906.063 2003.672 C 1906.7573 2005.2981 1906.5875 2007.1582 1905.6217 2008.6333 C 1904.6558 2010.101 1903.007 2010.9914 1901.2414 2010.9914 Z" fill="#805540"/>
        </g>
        <g id="Graphic_5">
          <path d="M 1869.7267 1939.9937 L 1859.2306 2010.9914 L 1880.219 2010.9914 Z" fill="#292f33"/>
        </g>
        <g id="Graphic_4">
          <path d="M 1890.8585 2005.166 L 1893.2014 2010.9914 L 1880.219 2010.9914 Z M 1848.5911 2005.166 L 1846.2482 2010.9914 L 1859.2306 2010.9914 Z" fill="#f3ddab"/>
        </g>
        <g id="Graphic_3">
          <path d="M 1880.219 2010.9914 C 1880.219 2010.9914 1889.7606 2008.558 1894.4276 2004.253 L 1869.7267 1939.9937 Z M 1859.2306 2010.9914 C 1859.2306 2010.9914 1849.689 2008.558 1845.022 2004.253 L 1869.7191 1939.9975 L 1859.2306 2010.9914 Z" fill="#f3ddab"/>
        </g>
      </g>
    </g>
  </g>
</svg>
